<mxfile host="app.diagrams.net" agent="Mozilla/5.0 (Macintosh; Intel Mac OS X 10_15_7) AppleWebKit/537.36 (KHTML, like Gecko) Chrome/121.0.0.0 Safari/537.36" version="28.1.0">
  <diagram name="第 1 页" id="5K400HvOxyw60qXT9IRf">
    <mxGraphModel dx="2256" dy="1289" grid="1" gridSize="10" guides="1" tooltips="1" connect="1" arrows="1" fold="1" page="1" pageScale="1" pageWidth="827" pageHeight="1169" math="0" shadow="0">
      <root>
        <mxCell id="0" />
        <mxCell id="1" parent="0" />
        <mxCell id="XQ58RHuz3fzO0AU-IGTR-12" value="" style="fontColor=#0066CC;verticalAlign=top;verticalLabelPosition=bottom;labelPosition=center;align=center;html=1;outlineConnect=0;fillColor=#3333FF;strokeColor=#3333FF;gradientColor=none;gradientDirection=north;strokeWidth=2;shape=mxgraph.networks.security_camera;container=0;" vertex="1" parent="1">
          <mxGeometry x="413" y="1010" width="20" height="20" as="geometry" />
        </mxCell>
        <mxCell id="XQ58RHuz3fzO0AU-IGTR-13" value="" style="shape=image;verticalLabelPosition=bottom;labelBackgroundColor=default;verticalAlign=top;aspect=fixed;imageAspect=0;image=data:image/png,iVBORw0KGgoAAAANSUhEUgAABfwAAAO+CAIAAADe5kOIAAABWGlDQ1BJQ0MgUHJvZmlsZQAAKJFtkL1LQmEUxn+WoX1AH7TV4GhgUWZUYzpU4CD2HQVdr6aV2dvViKT/oKXJvyBa27KhoXaHIDCItqbGClxKbudqZVYHDuf3Pjzv4fBAg1NTKmkHtlMZIzzpdy0uLbscTzix00wPnZqeVhOhUFAsfM36KhWxWfO239r1fnkz/+gr5l62VgrZ5FHpr7+uWqKxtC7zXXpAV0YGbB7h0H5GWXwo3G3IUcLHFserfGJxpMoXFc9sOCBcEO7QE1pU+EHYE/mhx3/wdnJP/7zBur4tlpqbkdkl3UuIKYK48DLKGH6GJJ///b6KP8AOigMMNoiTICN/J0RRJIkJT5NCZwBPZeeg9IiV8+/8atquG8afoWGzpq1m4fwM2lVNcw/Lew2uw0oztO9UbSV7en3YW+XWPDTlTPN1ARx9UL4zzbe8aZZPofEerkofB41krcZjtQ0AAAA4ZVhJZk1NACoAAAAIAAGHaQAEAAAAAQAAABoAAAAAAAKgAgAEAAAAAQAABfygAwAEAAAAAQAAA74AAAAA5pWVwQAAQABJREFUeAHs3Q+cFVX9//HLLv+XvwssuLCwCBbI4j9EhMz/pZahaKHUV8sssyStNCux0pRKy/xa9MsyyuxbKCUoqYlp/gcRURA2NBQW9g+wy9+Fyx+B5fe+e2CYO/fe2bt375+5M6998ICZc8/MOed5ht3Zz5w5p93eDctDnvmqnDFRdaksv3nyhadV19W/++YzHdc+3edgY64qWDRwdPmk6bkqnXIRQAABBBBAIHMCutOY/cSrww+8MvzAqs3teizucOn4MSMnjBmRuRI5MwIIIIAAAvkiYH43V21HTZ2XL3VOpp7huuVVc6Ypp/XLftXcaeHa5eWXTC8qHW1a3cYm33rPQzr/nTde6V6fmbPnr6neOLSs/9WTz3PPmeQJY09iiiiI/cAjKWWlJUdVzc5hxMcjDlQDAQQQQAABBDInsLdskk6u+43ipqrMlcKZEUAAAQQQQACBnAh4N+gjDsXecoJCoQgggAACCCAQHAE93FNjhx1YEpwm01IEEEAAAQQQCIiAd4M+GnalQVbqBo24tjrD2rY27BnsibGHxM2pQ6yjrA3rWDYQQAABBBBAwMcCY/c9OqrqbjPMu3mwz1ofN5amIYAAAggggEAABdp7ts1bQv3fKzxmS7tBRYPGdt2/oO/B7a93uEC11fa29qVbQuXa0O7q9hMcieZTJR5ty2kl2g83icWhqt376w5lWHs/L5SJji8EEEAAAQR8L1Ac2tiYu3kDfc9LAxFAAAEEEEDACwLeDfpI573C08pK+2lS51BIf0Llh8Ai281fkY2TbdtW4qG05qOSSDx0Qk3o+GzNmD77nz98OP8igAACCCCAgG8F9HhJg3z1sEevk9cNvmLhkpXjC4b4trU0DAEEEEAAAQSyKGBmX26xQM3lnGTOFk+VKIOngz6JKp3N9PpFs1pVXMm4Ka3KT2YEEEAAAQQQyJWAVuw6/4M/6nXyXR3e0FyCuaoG5SKAAAIIIIAAAhkSIOgTBXtK9DAf3QWaeYWiMrnuFJVVaKU31yx8iAACCCCAAAJeEdC75FqyvePap0MdLvVKnagHAggggAACnhHQiuZdSys8Nbgh5SppSMeuuhWeoc1SRfI+6KP5nhsWPdxv3OVtD7VE3u3PEjvFIIAAAggggIAnBCJLtlfdfXjJ9pGeqBOVQAABBBBAwDMCZiSEYiVeCP0o3COYFKpkHZg11ztvvNK9rJmz5+vdrqFl/a+efJ57zja+/5XfQR8F6hoWN79+tShUNCk942v0Yr+uZqGbM/cbm+zrWiZ/22NP7v3NpwgggAACCCCQXgEt2a4FvJqXbI8sGcEXAggggAACCDgEWvsGjOPwtOxaC3ybs5nQTzJDkBwHpqUyeXSS/A76WEOzIv1dtzxdARddN5EBRItDCgAlcw2Z/j4UfsqjzqeqCCCAAAIIBFtAS7b3qWqsqoooaLBPYZOWbB8RbBJajwACCCCAQHwB/dKtURfJ/4Ic/yxtSA1Xx3kzK5kqxT2wDRXJs0ML8qy+0dXVW10mQdGZdEV8oktIdk+XmrImPywo2fOSDwEEEEAAAQQyI6DXuhXoycy5OSsCCCCAAAJ5LKAxEB6sfcrDLFI+0IMIKVQpv0f6KNCjIdlqdm4jPim4cwgCCCCAAAII5FaAJdtz60/pCCCAAAKeFYj7+3Wr3oPJRNPM69iOMyugY8V0lCFuzeMe6DiPj3fzO+ijjonbqdnvMPOimZbuyn7RlIgAAggggAACqQmwZHtqbhyFAAIIIICABwU0Q58Ha5XzKnk66GPetK+ccXcKTHrTKptvG5p5rTwSgUqBi0MQQAABBBAIpgBLtgez32k1AggggEDyAvrlWuMbcv7bripgXvRRcEfDjszv4Mm3wpHTLN/kSPTlrneDPpEF1Nvwpr2GeGUt6GMm9NFl58tLhEYhgAACCCDgYwGWbPdx59I0BBBAAIG2C4yaOq/tJ0nXGUzgyVEl/T5u3vCyj/yonDHRKtR67cvKmfNX1ay6ZWEjvydyzgJQi0U0r/MVmcU5OJHCFk3IgAACCCCAQB4JmMeGzUu251GtqSoCCCCAAAIIxBcwwzKszxoWPWxtB3DDuyN9rM5QEK58UmS2ZoVXtNaaieGZ+7O4A8zsIT3rJJnbMBeQPaaYubI4MwIIIIAAAgikUYAl29OIyakQQAABBBDwgoA1nMeqjF4EUzAhbvTAyuPjjTwI+lj6ppMaFkcSPNJhup50AQVqbJjVHWwggAACCCCQ1wJtfJE8r9tO5RFAAAEEEPCfgJZX0m/ohxZZip70R2M1wqUrzEf+a7h7i/Ip6OPekux/akUQ+427PPulUyICCCCAAAIItEVAS7abWZz18KZu8BULl6wcXzCkLSfkWAQQQAABBBDIoUBkRE/tclMBa8PadaTksJ5ZLpqgT+rg1mRRHhl2lHpLOBIBBBBAAIFACrxXeNrwA6t0F7irwxsaRhxIAxqNAAIIIICATwT0FMc+0671C7vVPI30CWDoJ5+CPpEpkw/PwKRRNuq5rK3PZV0lZkM10Spx2mYqH4cMuwgggAACCOSXAEu251d/UVsEEEAAAQQSCSjiYw8RmKCPPcVMz5LocL+m503Qx3qXyvSE6b+isoosj7IxgScTHWQqH7/+r6BdCCCAAALBEdCS7UX7/hmqXV7cVBUKjQxOw2kpAggggAACCARBIG+CPorvhEJT7BMvKYyX5YiPPfCk5cOyXHoQLkfaiAACCCCAQPYFNDdfeM7y5iXbL8h+6ZSIAAIIIIAAAghkTiDjQZ/quvq01F4RllwFWTS6R00w73Npg1e60tKhnAQBBBBAAIGcC7Bke867gAoggAACCCCQLgG9D2ReCbKfsHLGRPtuALczG/RZsOQdrYWRPOv5yWfNZM53Fs/vXPOSStBrXPZLRO9z6WFgrmJPmWwx50YAAQQQQCBwAizZHrgup8EIIIAAAggETyCzQR/jWVbaL1nYqkjG8Sd9KNn8Gci3rm5tn9pfh21nVqxHe4R7bCRsIoAAAgggkPcCLNme911IAxBAAAEEELAJOF7KMQM4Rk2dZ2WxT9hiJfp+IxtBn0FH9Z0wZkQylJUz7la2stKSZDKnPY9u/ja369HnYKN1ZoV7yidNt3bZQAABBBBAAAE/CbBku596k7YggAACCCCAQKxAQWxSkFPeLxwT5ObTdgQQQAABBIImoCXb1eSOa58OWsNpLwIIIIAAAggEQSAbI31q1m/S5D7JaPZMJlMm8zSv3JHJAjg3AggggAACCHhJgCXbvdQb1AUBBBBAAIHUBbTYt17gchxvT7GvBu7I5uPdzAZ9yo4qXhgKVdc16E+LiMMPvJLzoI/93a4WK0wGBBBAAAEEEPCBAEu2+6ATaQICCCCAAAJaiEl/HA6x63k5Mvh+N8NBn9KS8WNGJoPYsXpel5pVyeTMaB6N8R5+IPfVyGgbOTkCCCCAAAIIGIHzP/hjqCpUVRXZ04Ofwqa1oVBSsxCaw/kbAQQQQAABBLwjoDl5u5ZWWPUx4R7N7mylaKRPbFTI+tSvG5kN+kgtmSmcI3No17ziBeIt7QaFQgR9vNAV1AEBBBBAAIHMCkSWbLeVoMUccrOQhK0ObCKAAAIIIIBAygKK+JSMOxLiMUEfe4oiD1kL+qyp3pBkQ5LPmeQJHdkyHvRxlBe7G4n4LI68d1d+yfSqOdNiM2Qz5ZT9z2ezOMpCAAEEEEAAgVwJOJZsX7xk5fiCIbmqDOUigAACCCCAgJ8EZs5+JpnmrKneOLM6qZzJnC1unhyv3mWP+BSVjo5bxWwm6ilfNoujLAQQQAABBBDIoYCWbFfpeui3a/0bOawGRSOAAAIIIIAAAhkSyOVIH69FfESsJdv7MNgnQ9cap0UAAQQQQMB7AmY6v8iS7R0u9V7tqBECCCCAAAIIJCugV4jMW0T2AypnTLTvZm17aFl/97I0xsdkSD6n+wkTfZqzoI8HIz4yYsn2RBcK6QgggAACCPhSgCXbfdmtNAoBBBBAAIHcClw9+Tz3CsycPV9xH0V8Wsx56z0PuZ/K/dPcBH28GfGRFEu2u18ufIoAAggggID/BFiy3X99SosQQAABBAIooIW67NM2mzE+o6bOsyisQISVEoSNHAR9LGjN3OyFeXzs3cyS7XYNthFAAAEEEPC3AEu2+7t/aR0CCCCAAAIIZHsiZy9HfHQ1NC/ZzlWBAAIIIIAAAv4X0JLt9kaymINdg20EEEAAAQQQ8IdAVkf6eDziox5lyXZ/XNa0AgEEEEAAgRYFWLK9RSIyIIAAAgggkEcCu+pWKObgqLA9RRkcnwZhN3tBH+9HfNTfesrHtD5BuO5pIwIIIIAAAhLQku3DD6yKLNneQUu2F2GCAAIIIIAAAvkroB/o+uOof+x6Xo4Mvt/NUtAnLyI+6myWbPf9FU8DEUAAAQQQsAuwZLtdg20EEEAAAQTyV6Bo4OiupRVW/U24R7M7Wyka6RMbFbI+9etGNoI++RLxUR+zZLtfL3TahQACCCCAQFwBlmyPy0IiAggggAACeSegiI999S4T9LGnKDQRwKBPxidyzqOIj65p3u3Ku//YVBgBBBBAAIE2CmjJdp2BBz9tZORwBBBAAAEEEPCgQGZH+uRXxEfdw5LtHrxGqRICCCCAAAKZENDqXSzZnglYzokAAggggAAC3hHIbNDHtFMv0RWVjvZOm11q0rxk+yqXDHyEAAIIIIAAAr4U0GIOJb5sGI1CAAEEEEAgGAJ6nyt2fa6qudOC0fqErcxG0Cdh4d77gCXbvdcn1AgBBBBAAIGMCLBke0ZYOSkCCCCAAAK5E4idsic2JXe1y03JBH2i3FmyPYqDHQQQQAABBHwtwJLtvu5eGocAAgggECyByDtGZUdW76qaExnjU37JdEuhYdHDAYwBEfSxLoDIBku2R3GwgwACCCCAgN8FWLLd7z1M+xBAAAEEAiQQO7GMPSVcGsQl2zO+eld+XV+s3JFf/UVtEUAAAQQQaKNAZMn2gaO1fGdxU1UbT8XhCCCAAAIIIICA1wQY6RPVIyzZHsXBDgIIIIAAAn4XKA5VdS2t0GDv5gc/F/i9ubQPAQQQQAAB3wpoFudw3XJH82JTHBl8v0vQJ6qLWbI9ioMdBBBAAAEE/CtgLdneUBVppB78FDatDYVG+LfFtAwBBBBAAAE/C+gRTniOM+hjZvbxc7NbahtBnyghlmyP4mAHAQQQQACBAAjo9a51dQr3hFiyPQC9TRMRQAABBHwroB/o9raZOZvtiXk3i3P9ollahz4U+rS9Xa3dJugTJcaS7VEc7CCAAAIIIOBfAWvJdjWx/am3LlyycnzBEP82l5YhgAACCCDgcwG9r10yborVyMoZE7VdPunI6l2HYyhWlkBsMJFzVDdryfaofXYQQAABBBBAwL8CWrJdjdNzv13r3/BvK2kZAggggAACCOSlgGJYWoe+jVUn6BMFqCXbo/bZQQABBBBAAAFfC2g6P7Wv49qnfd1KGocAAggggAACeSlgH7uUWgN4vSvKjSXbozjYQQABBBBAwO8CkSXb9/0zVLu8ecn2kX5vLu1DAAEEEEDAtwKa/kYLeDmaVzV3miMlaLsEfaJ6nCXbozjYQQABBBBAwO8CLNnu9x6mfQgggAACARKInao5NiVAHM1NJegT1eMs2R7FwQ4CCCCAAAL+FWDJdv/2LS1DAAEEEAiigKa/KSqrsFpuFmsvv+TIRM4Nix4OYAyIoI91SUQ2WLI9ioMdBBBAAAEEAiDAku0B6GSaiAACCCAQCIGi0qhV29Vme0q4dEXWgj4zZ893F19TvVEZ9HeLOd3P0+KnBH2iiFiyPYqDHQQQQAABBPwrwJLt/u1bWoYAAggggECOBUxMJ5lKJJ8zmbPF5smboE+4brkZi6UhW22fvzoWwqRoyXam9UmEQzoCCCCAAAI+E9CS7cMPrNJDv10dtGR7kc9aR3MQQAABBBAIlIBmcVbcwNHk2BRHBt/v5k3Qx7yPp/4wM3KXTzryYl4aO0lLtvfZ/3waT8ipEEAAAQQQQMDLAmY6v8iS7R0u9XI9qRsCCCCAAAIIuAvoKU54jjPoY0US3I9N+6dXT/64+zn/vXCZxvgMLet/9vjj3XPOnP2Mewb3T/Mj6OMIzmXuNTyWbHe/XPgUAQQQQAABnwmwZLvPOpTmIIAAAggEVkCT9NnbbuIG9sTMRRLs5ZrtoWUDYhOjUhYuSzZn1GGt3smPoE+rm5XqAbzblaocxyGAAAIIIJCXAizZnpfdRqURQAABBBCIEehaWmGfCqZyxkRlsb8kVL9olt4cijnO5wn5EfTRhNuKz1lhOfuia+ntH5ZsT68nZ0MAAQQQQMCzAizZ7tmuoWIIIIAAAgggkC6B/Aj6qLWKzyksp42isgr7omvpgjDnYcn29HpyNgQQQAABBLwvwJLt3u8jaogAAggggAACqQnkTdBHzbOP1EqttS0exZLtLRKRAQEEEEAAAX8IsGS7P/qRViCAAAIIIGAEzKJPDo2qudMcKUHbzaegTxb6hiXbs4BMEQgggAACCHhEgCXbPdIRVAMBBBBAAIG0CFhzwlhni02xPgrIBkGfqI5myfYoDnYQQAABBBDwuwBLtvu9h2kfAggggEBQBPqNnaLZYKzWmsXa7TMCNyx6OIAxIII+1iUR2WDJ9igOdhBAAAEEEPC7AEu2+72HaR8CCCCAQIAEYuf/taeES1cEMOhTEKD+T6KpLNmeBBJZEEAAAQQQ8I+AWbJd7eHBj386lZYggAACCCCAwGEBRvoclmj+9/X2ZzGXc5QIOwgggAACCPhUgCXbfdqxNAsBBBBAAAEEjggw0ueIhbaKD9ZE7bODAAIIIIAAAn4X0JLtWslBf/zeUNqHAAIIIIBAqwXCdctbfUyGD/BglTLc4jadnpE+UXzDD6yK2mcHAQQQQAABBHwqwJLtPu1YmoUAAgggkE4BTYespyNdSytKxk1J53lTOpfCPeHqFVqa3VRJ5/BCrVJqSvYOIugTZc2S7VEc7CCAAAIIIOBrAZZs93X30jgEEEAAgfQIaPJj/dlVt6J80vT0nDGlsyjiYxbk0tGmStog6NOiJa93RRFpyfaofXYQQAABBBBAwNcCWrJd7eu49mlft5LGIYAAAgggkPcCGuOT923IRQMI+kSpM4tzFAc7CCCAAAII+F0gsmT7wNFavrO4qcrvbaV9CCCAAAIIJCUQd9IcDa6pmjstqeMzk0lvdcWeOLdViq2PB1MI+kR1CpM4RnGwgwACCCCAgN8FWLLd7z1M+xBAAAEEWi1QVDo67jH9xl0eNz07if3GxplUKLdVyk7D21gKQZ8oQF7viuJgBwEEEEAAAf8KmCXbj6qabZ4cNg/2Wevf5tIyBBBAAAEE2iSggbGJgkFtOm/SBxeVVcTmzW2VYuvjwRSCPlGdwpLtURzsIIAAAgggEAAB3cWyZHsA+pkmIoAAAgikLqCflTkfU6P4jgb7qCamGZEqxRv7k3ojfXokq3dFdSxLtkdxsIMAAggggIB/BViy3b99S8sQQAABBNImEImzlFV4ZECNWaurftEs71QpbdAZOxFBnyhalmyP4mAHAQQQQAABXwuwZLuvu5fGIYAAAgikQcCDa6InqpIWlVc8yNFme4oyOD4Nwi5Bn6he1pw+ffY/H5XEDgIIIIAAAgj4V0BLtmucb2TJ9g6X+reVtAwBBBBAAAH/C2h9Mf1xtDPuml+OPP7eJegT1b8s2R7FwQ4CCCCAAAJ+F4gs2b7vn6Ha5c1Lto/0e3NpHwIIIIAAAr4V0Cw/XUuPTPZswj32eX800ic2KuRbjsMNI+hzWKL5X17viuJgBwEEEEAAAX8JVNfVWw2qXr9FgZ7iUFg3iLoF1IOfyvVj7RnKSkuszGwggAACCCCAgMcF9APd/uaXCfrYU/SqF0EfL3aieqVyxsQWa6YAnr07W8wfNwOvd8VlIREBBBBAAAEfCCxY8s7CJSuthijiExnhWxVqqDqUFq5ZPLuuwcqgjRuvmWTfZRsBBBBAAAEEEEhGYE31hmSyKU/yOZM8oSObf0b6KIzX9qAPS7Y7rg92EUAAAQQQ8I2APeIz/MArvZs2OpqmGJCm+NHszla6Bv4w3sfSYAMBBBBAAAGfCVTNnWbG/jQsergh9LBpXVpWB5s5+5lkrNZUb5xZnVTOZM4WN49/gj5xm9faRJZsb60Y+RFAAAEEEMhTgT4HG2NrrjsBe9AnNgMpCCCAAAIIIOBNAQ0EMa902avn8tpQuO7IxM/21750kqKy6faT5PW2d4M+W0L9n+541fGl4fEnHW8Rh6tXmF40szEVlUVmaaqaM83K0MYN5vRpIyCHI4AAAggg4H2B8WNGlh31keJQZKSPnuzpPs+a+lG3FuPXd7CPCfJ+c6ghAggggAACCKQgUFQ6WoGF2Nmdyy+Zro9SOKE3D/Fu0Md4aQnVcL9C+3tbDYsjn9hT0ijLnD5pxORUCCCAAAIIeE1Ab3VpLE9h03VlpSN0N6HqhUsPLeRh3VqUhep7fvBHx3teXmsI9UEAAQQQQAABh4Bjnl8zxmfU1HlWNr23ZQaR6HmPXuwqnzRdP/21YWUwGybiYzKnHAC688YrHad17M6cPV/vdg0t63/15PMcHzl2b73nIUdKq3YLWpU7y5l1Z6ah17EDtOzV0Igs+24bt1myvY2AHI4AAggggID3BTrXvORSyU7Vz+nT2Bl/XA7hIwQQQAABBBDILwHFfdyDCe6BiDxqrKeDPsZRI66zBqrXu7JWFgUhgAACCCCAAAIIIIAAAggggAACmRPw+utdarkZeeUgiB2C5ciQ2i6vd6XmxlEIIIAAAgjkkUDsrUVsSh41h6oigAACCCCAgAQis/PEvAkUm2JZmRW7dA9gpZiNDEUbHKVkbTcPgj6yiO2G2JS0kLFke1oYOQkCCCCAAAIeF4i9kYhN8XgTqB4CCCCAAAII2AX0ozw8JyaCk3jdp0Q/+hOl28vKo+38CPqYtboMq331LntKWtBZsj0tjJwEAQQQQAABjwtYtxbWmh1Wimrum9f4Pd4LVA8BBBBAAIE0CjhmhjGxG3uiI5pjfvRbdwJWTRKlWxnyayMPgj7qJGtBDQ3Nil29K413ZizZnl+XL7VFAAEEEEAgBQH7rYXW5tAtoD3FutlI4cwcggACCCCAAAK5EuhaWmGFDlQHs3qXluiy6mOt3mVSTObYl7kSpVvnya8NT0/kvKXdoBY1Xd7Qa/HY2AxbC/rHJpKCAAIIIIAAAn4S0E2hn5pDWxBAAAEEEEAAgUQCnh7ps6Wg/L3CY84dd3mi2iu9qDSda3vxepcLNR8hgAACCCCQ7wJ6nvReYaiwoLgkcUu2hPrr9iOZJ0+Jz8EnCCCAAAIIIOBpAftr3XErah4RpTfgELegTCd6OuhT3FQ18Kj+4eoV+qMX7ewWZghW2p/U8XqXHZltBBBAAAEEfCag50lbQuV7NxaFFs/vXPOS1Tq94WXdWixsKKsuPM36iA0EEEAAAQQQyAsBTfziiBuo2rFvbynReq1bnzom+tGnegtMb3jZ3xTLi+YnqqR3gz7FoY2n7H8+VBNqqIlTedMxsd0TJ2trkliyvTVa5EUAAQQQQCAvBarrGjpVv+IY3mvdWlR3vCovW0WlEUAAAQQQCLxAbIggNsVC0lwxcT9V8KiorMIHY3xMS70b9LF6IpsbLNmeTW3KQgABBBBAIFcC7zWP5TFxH73MZVWDt7osCjYQQAABBBDILwG9saVgjVXnqubF2ssvOTKRc8Oih+1RHoV1dIhZvUtjf/QikVkkSof4JuIjjfwI+rT4up1aYu9dq5tbu+F46Nfaw8mPAAIIIIAAAp4VGD9m5MIlK63qNcd3VmlXG3rty0q3NspK+5WVukz+Y2VkAwEEEEAAAQQ8IRAbrLGnhEtX2IM+qrHe4TLvf/Ubd7lymqCP/RBPtKptlciDoI/1ul3bWprU0czpkxQTmRBAAAEEEMhDgQljRuiPVfHquvo3H6/R856z+m+qG3yB4kGKCtkzWDnZQAABBBBAAAEE8lQgD4I+2ZRlTp9salMWAggggAACuRXQS14K+uih364Ob2jQcG4rQ+kIIIAAAggg0BaByItadcsdZ4hNcWTw/S5Bn6gujkwdzRcCCCCAAAIIBEZAE/oo7tNx7dOhDpcGptE0FAEEEEAAAR8K6ClOeI4z6GNm9vFha5NuEkGfKCpe74riYAcBBBBAAAG/C+wtm1S075+h2uXFTVWh0Ei/N5f2IYAAAggg4FsBzQxjb5uZvsee6JjQx57Zx9sEfaI6l9e7ojjYQQABBBBAIAACmrtRDwaHHVgSCl0QgObSRAQQQAABBPwpoOW3NDGz1bbKGRO1XT7pyOpd9YtmmamarTxB2CDoE9XLzTd8USnsIIAAAggggIBfBc7/4I+hqlBVVaR9fQ42FjatDYWOzPTs11bTLgQQQAABBBAIjkBBcJqaTEt1w5dMNvIggAACCCCAQL4LFIc22pugV7ztu2wjgAACCCCAAAI+EGCkT1Qnmtkco5LYQQABBBBAAAE/CmwJ9Tc/9/W2f93gKxZryfaCIX5sKG1CAAEEEEAgEAJ6dUsLeDmaWjV3miMlaLsEfaJ6fEu7QaHQqqgkdhBAAAEEEEDApwIs2e7TjqVZCCCAAAIBFYidqjk2JWg0BH2iepwl26M42EEAAQQQQMDvAizZ7vcepn0IIIAAAkER6Dd2SlFZhdVas1h7+SVHJnJuWPRwAGNABH2sSyKywZLtURzsIIAAAggg4HcBlmz3ew/TPgQQQACBAAkUlUat2q6W21PCpSsI+gToaojbVJZsj8tCIgIIIIAAAj4WYMl2H3cuTUMAAQQQQCAnAs8tWOpe7prqQwtKtJjT/TwtfspInygilmyP4mAHAQQQQAABXwuwZLuvu5fGIYAAAggES0CzOIfrljvaHJviyJCh3ecXvp3MmRX6saI/yeRPIQ9Bnyg0lmyP4mAHAQQQQAAB/wpoyfZGW+v0ineJbZdNBBBAAAEEEMgvAb26FZ7jDPqYmX3yqyHprS1BnyhPlmyP4mAHAQQQQAAB/wqwZLt/+5aWIYAAAggEUaBoYNSEPmb6HntiNif0OWv8ce59UFVzaIxPizmTHDSUqDiCPlEyLNkexcEOAggggAACvhZgyXZfdy+NQwABBBAIlkDX0oqScVOsNlfOmKjt8klHVu+qXzSrYfEsK0NGN86ZcIL7+WfOnq8MQ8v6t5izjUGfAvd6BO1TlmwPWo/TXgQQQACBgAtokK8EOq59OuAONB8BBBBAAAEEfClA0CeqW/U+f9Q+OwgggAACCCDga4HIku0DR2tSv+KmKl83lMYhgAACCCCAQBAFeL0rqtdZsj2Kgx0EEEAAAQQCIMCS7QHoZJqIAAIIIOB/Ab26pQW8HO2smjvNkRK0XYI+UT3Oku1RHOwggAACCCDga4Gx+x7tU9VYVRVppAb7FDatDYVG+LrFNA4BBBBAAAE/C8RO1Ryb4uf2x2tbfgR9wnXOddfitSUNaSzZngZEToEAAggggEA+CESWbD9oX7Q9HypNHRFAAAEEEEAggUC/sVOKyiqsD81i7eWXHJnIuWHRwwGMAeVB0Ee9Ep6TpaAPS7Zb/0PYQAABBBBAwN8CjiXbFy5ZOb5giL+bTOsQQAABBBDwt0BRadSq7WqsPSVcuiKAQR8mco665puXbI9KYQcBBBBAAAEE/CqgJdvVNN3/7Vr/hl/bSLsQQAABBBBAIMgCnh7pY9bSGlyaymO3rqVHhnUl38Es2Z68FTkRQAABBBDwgYAZ5BtZsr3DpT5oDk1AAAEEEEAAAQTsAt4N+mjQ9eIOl5aV9jv9wshTuOx8KczEtD7ZoaYUBBBAAAEEvCCgJdtDVXcfXrJ9pBeqRB0QQAABBBBAIAUBrd6lP44DK2dMdKQEbZfXu6J6XEu2R+2zgwACCCCAAAJ+FzBTPLKCp9/7mfYhgAACCCAQRAHvjvTJSW9ww5cTdgpFAAEEEEAgJwIs2Z4TdgpFAAEEEEAgEwJavatk3BTrzGaMz6ip86yU+kVxhgJZn/p1g6BPVM/yblcUBzsIIIAAAgj4V4Al2/3bt7QMAQQQQAABBA4J8HpX1KWg2Ryj9tlBAAEEEEAAAZ8KaPZAs2RE0cDR28ff/XTHq7awZLtP+5pmIYAAAgggEFgBRvpEdX3zku2ropLYQQABBBBAAAGfCmjJiPM/+GNkyfYOWrK9yKetpFkIIIAAAggEQmBX3Qq9wOVoqj1FGRyfBmGXoE9UL7NkexQHOwgggAACCPhdgCXb/d7DtA8BBBBAICgCeoqjP47Wxq7n5cjg+12CPlFdzJLtURzsIIAAAggg4HcBlmz3ew/TPgQQQACBoAjofe2upRVWa024R7M7Wyka6RMbFbI+9esGc/pE9SxLtkdxsIMAAggggEAABFiyPQCdTBMRQAABBPwvoIiPWb1Lf1vLeJntorLIR/aQkP85DreQkT6HJZr/Zcn2KA52EEAAAQQQ8LUAS7b7untpHAIIIIBA4ASq5k7TWB6FeIpKR9sbXzVnmmMckP1Tf28T9InqX5Zsj+JgBwEEEEAAAf8KsGS7f/uWliGAAAIIIHBEIFznnOjnyGcB2CLoE9XJZjbHqCR2EEAAAQQQQMCPAmbJdj3v0aO/usFXLFyycjxLtvuxo2kTAggggEBABKw5mzWux2py5YyJZjvuNM9WNh9veDHooxFZRnzsvrXv14x59omq4ftWbmrXc3X7CcWhyPZ7HUYqgz2x1/66be1L7YlH71+g3dYm9m7aaIrmbwQQQAABBBDwvQBLtvu+i2kgAggggIDvBfQyV8Pi1rUyUJP7eDHoY82n3ScU6rP/+VBVKBwKdQmFBrR7W4/jtH1UKDI6y56oXWWwJ3Y52KjdXe16mEPM4S0mNp+DvxBAAAEEEEAgKAIs2R6UnqadCCCAAAIpCejdKMf8OCmdJoMHqXqjps4zBZg5fbREg73OaoKZ06d80vQM1sOrp/Zi0McsohGuXmGNzjJ6cSfccU+0f2ptWxs6rbVtbXi1p6gXAggggAACCKRfgCXb02/KGRFAAAEEfCRgnwLZWhLL4+2zR3xUVceuxyuf9up5MehjdUlrx2ilXYcTIoAAAggggIDvBfqNnaLnTM0reF7g+8bSQAQQQAABBForYGbD0RR4rT0w+/k1lifutM3WUKCsVenWex5Kpqw11RuTzJnM2eLm8WLQx5ppKW6NSUQAAQQQQAABBNIiYJZsb6iKnExjfgub1oZCI9JyZk6CAAIIIIAAAjkRsAaR5KR0DxZa4ME6eadKgZreyTvs1AQBBBBAAIEsCGjJdsfL3cVNW7JQLkUggAACCCDgcYG4g2U03sdac8nj9ad6dgEvjvQxI68CPtmSvZPYRgABBBBAAIG0C8RZsr39yJK0F8MJEUAAAQQQyDeBRINl+o27PN+akrP63nnjle5lz5w9X+92DS3rf/Xk89xztvH9L0b6uPPyKQIIIIAAAgj4VuD9wjFqmx5d7lr/hm8bScMQQAABBBBIh4Dm9EkUDErH6TlHpgQI+mRKlvMigAACCCCAgMcFthSUa8l2VbLj2qc9XlWqhwACCCCAQA4FtOgBw3yy76/3n+oXzWpjuV58vauNTeJwBBBAAAEEEEAgSQGWbE8SimwIIIAAAsEUULinqKyCMT456f2GRQ9rPHIo9Om2lM5In7bocSwCCCCAAAII5L2AbmfVhuYl2/O+LTQAAQQQQACB9AqUjJtCxCe9pMmfLS2jqxjpkzw4ORFAAAEEEEDAVwIs2e6r7qQxCCCAAAII+EtA4bbIOlf3PNSWZhH0aYsexyKAAAIIIIBAvgpoyfbGg4322rNku12DbQQQQAABBBDwgQCvd/mgE2kCAggggAACCLRawCzZrsO0HMn28Xc/3fGq99qf2OqzcAACCCCAAAIIIOBhAYI+Hu4cqoYAAggggAACmRRgyfZM6nJuBBBAAAEEEMi9AEGf3PcBNUAAAQQQQACBnAiwZHtO2CkUAQQQQAABBLImQNAna9QUhAACCCCAAAKeE4gs2R4K9TnYWNxU5bnKUSEEEEAAAQQQQKBtAgR92ubH0QgggAACCCCQ5wIs2Z7nHUj1EUAAAQQQQCChAKt3JaThAwQQQAABBBDwtwBLtvu7f2kdAggggAACCBD04RpAAAEEEEAAgSAKsGR7EHudNiOAAAIIIBAwAV7vCliH01wEEEAAAQQQaBZgyXYuBAQQQAABBBDwvQBBH993MQ1EAAEEEEAAgfgCLNke34VUBBBAAAEEEPCLAEEfv/Qk7UAAAQQQQACBVgqwZHsrwciOAAIIIIAAAnkmQNAnzzqM6iKAAAIIIIBAGgVYsj2NmJwKAQQQQAABBLwmQNDHaz1CfRBAAAEEEEAgqwIs2Z5VbgpDAAEEEEAAgSwKsHpXFrEpCgEEEEAAAQS8JMCS7V7qDeqCAAIIIIAAAukXIOiTflPOiAACCCCAAALeF2DJdu/3ETVEAAEEEEAAgTYK8HpXGwE5HAEEEEAAAQTyUoAl2/Oy26g0AggggAACCLRGgKBPa7TIiwACCCCAAAI+EmDJdh91Jk1BAAEEEEAAgTgCBH3ioJCEAAIIIIAAAkEQYMn2IPQybUQAAQQQQCDIAszpE+Tep+0IIIAAAggEXSCyZHvV3X0ONhY3VYVCI4POQfsRQAABBBBAIB0Ca6o3JHma5HMmeUJHNoI+DhB2EUAAAQQQQCBYAlqyvWHxrGEHloRCFwSr5bQWAQQQQAABBDIjMHP2M8mceE31xpnVSeVM5mxx8xD0ictCIgIIIIAAAgj4X4Al2/3fx7QQAQQQQACBYAsQ9Al2/9N6BBBAAAEEgirAku1B7XnajQACCCCAQMYFhpb1dy9DY3xMhuRzup8w0acEfRLJkI4AAggggAACfhYwS7ZrNp+igaPrBl+xcMnK8e1Hlvi5xbQNAQQQQAABBLIkcPXk89xLmjl7vuI+ivi0mPPWex5yP5X7p6ze5e7DpwgggAACCCDgWwGWbPdt19IwBBBAAAEEEGgWIOjDhYAAAggggAACARVgyfaAdjzNRgABBBBAIDACBH0C09U0FAEEEEAAAQRiBCJLtodCh5dsj/mYBAQQQAABBBBAIJ8FCPrkc+9RdwQQQAABBBBos4CWbNc5mpdsb/O5OAECCCCAAAIIIOAlASZy9lJvUBcEEEAAAQQQyKIAS7ZnEZuiEEAAAQQQQCAHAgR9coBOkQgggAACCCCQcwGWbM95F1ABBBBAAAEEEMi0AK93ZVqY8yOAAAIIIICAFwXMku2qmZZs3z7+7qc7XvVe+xO9WFHqhAACCCCAAAIIpCpA0CdVOY5DAAEEEEAAgTwXYMn2PO9Aqo8AAggggAACLQgQ9GkBiI8RQAABBBBAwK8CLNnu156lXQgggAACCCBgBAj6cCUggAACCCCAQHAFWLI9uH1PyxFAAAEEEAiAAEGfAHQyTUQAAQQQQACBxAIs2Z7Yhk8QQAABBBBAIL8FWL0rv/uP2iOAAAIIIIBAygIs2Z4yHQcigAACCCCAQF4IEPTJi26ikggggAACCCCQZgGWbE8zKKdDAAEEEEAAAe8J8HqX9/qEGiGAAAIIIIBA5gVYsj3zxpSAAAIIIIAAAjkWIOiT4w6geAQQQAABBBDIlQBLtudKnnIRQAABBBBAIDsCBH2y40wpCCCAAAIIIOA5AZZs91yXUCEEEEAAAQQQSKsAQZ+0cnIyBBBAAAEEEMgrAZZsz6vuorIIIIAAAggg0DoBgj6t8yI3AggggAACCPhMgCXbfdahNAcBBBBAAAEELAFW77Io2EAAAQQQQACBYAmwZHuw+pvWIoAAAgggEDwBgj7B63NajAACCCCAAAKhEEu2cxUggAACCCCAgO8FeL3L911MAxFAAAEEEEAgjgBLtsdBIQkBBBBAAAEE/CVA0Mdf/UlrEEAAAQQQQCBpAZZsT5qKjAgggAACCCCQlwIEffKy26g0AggggAACCLRdgCXb227IGRBAAAEEEEDAywLM6ePl3qFuCCCAAAIIIJBZgciS7VV39znYWNxUFQqNzGxhnB0BBBBAAAEEgiEwc/Z894auqd6oDPq7xZzu52nxU4I+LRKRAQEEEEAAAQT8LKAl2xsWzxp2YEkodIGf20nbEEAAAQQQQCBbAiamk0xpyedM5myxeQj6xJqQggACCCCAAAKBEGDJ9kB0M41EAAEEEEAgwAIEfQLc+TQdAQQQQACBAAuwZHuAO5+mI4AAAgggkFmBqyd/3L2Afy9cpjE+Q8v6nz3+ePecM2c/457B/VOCPu4+fIoAAggggAAC/hQwS7ZrNp+igaPrBl+xcMnK8e1HlvizrbQKAQQQQAABBLIqMLRsQAvlLVxmMrScs4UTtfAxq3e1AMTHCCCAAAIIIOBXAZZs92vP0i4EEEAAAQQQMAIEfbgSEEAAAQQQQCCgAlqyfXO7Hmp8x7VPB5SAZiOAAAIIIICArwUI+vi6e2kcAggggAACCLgKbBhyrT4/vGS7a1Y+RAABBBBAAAEE8k2AoE++9Rj1RQABBBBAAIG0CmjJdp2vecn2tJ6XkyGAAAIIIIAAArkWIOiT6x6gfAQQQAABBBDIkYCWbB+w9v5ddStUfvNgn7U5qgjFIoAAAggg4FGBcN3ytNQsXedJS2UCdRJW7wpUd9NYBBBAAAEEEDgkYC3ZHq49dDtb3LQFHQQQQAABBBCwC1TNmaZlLvuNu7yodLQ9PflthXvC1SsaFs/S0NqisoqUz5N8ieS0CxD0sWuwjQACCCCAAAJBEbAv2f5eh5HVNQ0fbn8iS7YHpftpJwIIIIBA0gJ6OhKes1yhn/JJ05M+6FDG+kWzFO4xO9poWBxK7TytLZf8lgCvd1kUbCCAAAIIIIBAsASsJdvVbK3kFazG01oEEEAAAQQQCIAAQZ8AdDJNRAABBBBAAIF4AizZHk+FNAQQQACBoAvEnX9H432q5k5rFY3OYw3zsQ6MjBtK0zxB1jnZcBHg9S4XHD5CAAEEEEAAAZ8LaMn2PlV3H16yfaTPW0vzEEAAAQQQSELAZdodva6VxAnI4iEBgj4e6gyqggACCCCAAALZF9C8knoO2bxk+wXZL50SEUAAAQQQyBeByCCdw6sfpFznyHTOqc4JnXKhQT6QoE+Qe5+2I4AAAgggEGgBLdkeWhvatW+IFDTYp7BJS7aPCLQIjUcAAQQQQKBZQNMttz2+47DUOR0p7GZBgKBPFpApAgEEEEAAAQQ8J8CS7Z7rEiqEAAIIIOAZAS3UlZY3uaw5fVivPVd9S9AnV/KUiwACCCCAAAK5FGDJ9lzqUzYCCCCAgOcFSsZNaXsdraBPWs7W9voE8Ays3hXATqfJCCCAAAIIIBARYMl2rgMEEEAAAQQQ8LcAQR9/9y+tQwABBBBAAIGEAizZnpCGDxBAAAEEEEDAFwIEfXzRjTQCAQQQQAABBFIS0JLtOu7wku0pnYKDEEAAAQQQQCA/BarmTkv7fNVekyDo47UeoT4IIIAAAgggkFUBTS2p8pqXbM9quRSGAAIIIIAAAjkUCNelYQX6HNY/yaKZyDlJKLIhgAACCCCAgN8EWLLdbz1KexBAAAEEEEhJYOGby7a8uX1USsd6/CCCPh7vIKqHAAIIIIAAAhkRYMn2jLByUgQQQAABBPJQoLqmYUtBEUGfPOw6qowAAggggAACCMQTKCodPWrqPA3ttj5UirXNBgIIIIAAAggER2D8mGOLBp7YOOeP/msyI33816e0CAEEEEAAAQSSFSDQk6wU+RBAAAEEEPCvQNnA0qLSkko/NpCgjx97lTYhgAACCCCAAAIIIIAAAggggECOBNZUb0iy5ORzJnlCRzaCPg4QdhFAAAEEEEAAAQQQQAABBBBAAIHUBWbOfiaZg9dUb5xZnVTOZM4WNw9LtsdlIREBBBBAAAEEEEAAAQQQQAABBBDIbwGCPvndf9QeAQQQQAABBBBAAAEEEEAAAQQ8InDW+OOSrMnQsv5pz2k/YfmgyPl5vctuwjYCCCCAAAIIIIAAAggggAACCCCQosA5E07QnxQPTuthpiaM9EkrKidDAAEEEEAAAQQQQAABBBBAAAEEvCFA0Mcb/UAtEEAAAQQQQAABBBBAAAEEEEAAgbQKZOP1robFs/QnrdXmZAgggAACCCCAAAIIIIAAAggggAACbgKM9HHT4TMEEEAAAQQQQAABBBBAAAEEEEAgTwWyMdKn39gpJeOmJANUOWNiMtnIgwACCCCAAAIIIIAAAggggAACCCDgLlDw0COPu+fgUwQQQAABBBBAAAEEEEAAAQQQQMCvAg2LHq5f5M9JaQrWVtcS9/HrhUu7EEAAAQQQQAABBBBAAAEEEEDAXSBcu9yvMxFH5vRR3OelBYvdCfgUAQQQQAABBBBAAAEEEEAAAQQQQCCPBA5N5PzigsXEffKo26gqAggggAACCCCAAAIIIIAAAggg4C5wZCJnxX2U9fQJY90P4FMEEAimwN/nze/erSiYbc9Oq7t07sR34OxQUwoCCCCAQBYE3q58N7xrdxYKCnIRmzZv/dT5ZwVZgLYjgECLAkeCPspK3KdFLzIgEFiBVe9Xvf7m8sA2PwsN/943r8lCKRSBAAIIIIBAdgSKunb54U9/lZ2yAlvKsKGDCfoEtvdpOAJJChx6vcvKrbjPunV11i4bCCCAAAIIIIAAAggggAACCCCAAAL5KOAM+qgNf5r9GHGffOxL6owAAggggAACCCCAAAIIIIAAAghYAnGCPvqMuI8FxAYCCCCAAAIIIIAAAggggAACCCCQjwIFn598cdx6v7CQRdzjwpCIAAIIIIAAAggggAACCCCAAAII5IFAweDBpXHjPmurax965PE8aAFVRAABBBBAAAEEEEAAAQQQQAABBBCIEYi83qW4zxnxVmpX3IfJfWLESEAAAQQQQAABBBBAAAEEEEAAAQTyQODQnD6nTxgbN+5TVVObB42giggggAACCCCAAAIIIIAAAggggEA8gcoZE+sXzYr3if/TjkzkHDfuo0T/G9BCBBBAAAEEEEAAAQQQQAABBBDwo0C4brma1bB4VjDjPkeCPlKwx32GlA2MO/bHj9cAbUIAAQQQQAABBBBAAAEEEEAAgUwJVM2dZoIvmSog8XmLSkeXXzJdnwcz7tPeIaO4j/5oKh9N9OP4iF0EEEAAAQQQQAABBBBAAAEEEECgtQLh2uVdqysUf2ntgWnJb+I+VXOmKe6jE5aMm5KW0+bFSaJG+lg1JuJjUbCBAAIIIIAAAggggAACCCCAAAJ5LRDY8T7OkT553YtUHgEEciJQOnBQ6cCBxcV96us31tXW1G/caK9Gz549O3bsZE9xbO/es3vnjh2OxNjdrl27DjvmQ/37D9i4cWP12qpt27bG5jEpxX36DBw0eMCAAdu3b9+4Yf26tVUHDx6Mm7lHj56q/FGlpQf2H1i/vk6VD4d3xs1JIgIIIIAAAgikUcD95sEU1K9fiUuJDQ31Lp+aj9q1a1fSv3/Z4CHdu/dY/f576+tqP/jgg0RH9SvpP+CoUt0/7NixY0PzXYFLZvtJehcXty9sv3lzQ1NT/PsNe2a2EUAghwKO8T5FZRU5rEzWiibokzVqCkLAhwL9Bwy49mvXn3LqBHvbnn/uXw/O/N2mTQ0m8Zrrrj/zzHPsGRzbs2f95U9/fMCRaN/t2LHjV6d+49yPn19QcGhwom7CHv3bw7Nn/Z/jbqyoqNtln/2fSz59mW7yrDO8+85/7v/1r/777korRRtdunS58KJJUz73+U6djgSkdu7c+eDM3z77zNP79u2zZ2YbAQQQQAABBNIlkMzNg8rST+oH/zI7UaH6SX3xJz+W6FOTrodAX//GTaeMG29l023Db2b87zNPP2WlmA1Fbb7wxWt0p2FPr1639je/vm/ZW2/aE2O3R1WMvuueX+rGY/KkC3l0FOtDCgJeE7DHfXbV5eZdsyybEPTJMjjFIeAfgd69i39x32969e7972efWfDqy9u2bunbt+TCiRefdc7Hjh42/MYbvrZ79261dsWypfs/iB9DGTb8mKFHDwvvCrugdOjQ4Rs3feeMM8958YXnXn7xhZ07d+ju7fQzz57yuSsVDPrDA/dbxxYWFn7v+7edeNLJivLMmztn48YN3Xv0OHX8Rz5+/id++vP//fpXv1RbU21lvu76b6me76/676y//lnpOnbIkKFTrvjC1Btu1GM+Ba2snGwggAACCCCAQLoEkrx5UHHduvfQ32ur1ixb+lZs6U1NB2IT7Sl9+/ab8ds/dO/eXSGeV195cdvWbYOHDLlsyhU3fOtmjej5y0N/tDLridFPf/7LQYMG6U5j/j+f3NTQoJRjR1VM+Z/P//iuX3z/lpvffON1K7Njo7i4+Jbv/8j+qMmRgV0EELAENJWyAi7Wbg43rLiPphnKYTWyVjRBn6xRUxACfhO4/lvfVsTnNzPue2Le3MNtq3zl5Re+/b1bFaM574ILH5vzN6X/88l/6M/hDFH//uwXv9T+yy/+Oyo1eufiSyfrbPMem/Pb/xfJrK/ly5aqxN8/+NdLP3O5zqyh2ib9womTFPF55aUX7vrx7db46tdfW7Dq3ZVTv3HTl6/9+m233mxyjj7+REV8li198we33Lx//36TuGb1+4sWLfj5vTM+c9lnNdinpnqdSedvBBBAAAEEEEiXQJI3DyquR8+e+vvll16Y9X9/am3pisJcd8O3FPH55b0/UxzHHP7eqncXLXz1tjt+8tn/+fxrC155/71VJv3iSz6tiM9DD8585K9/tgrSAOHXFy2ccf/Mm26+5Yoplx44ECfG1L59+5u+e2th+0K9aOb+Jpp1WjYQCLKARyI+pgusuE8QeiT+RM5BaDltRACBtghoNpyxp5xaU1395D8es59Hs+fM/Xsk1qNHZPb02O0h5UOPrTjujcWvb9ywIfZTk6J3ryZefKnGV//+t7+259Eh/3g8Emk6+ZRxVvo5Hz9P27+7f4YV8TEfPfuv+RoEXlFRYT2IM3X7++yHrYiPybl71y4TqBp57CjrtGwggAACCCCAQFoEWnXz0KtXLxW6ZfOmFIoeOKhM44LffWflv+ZHvckVDod/dd8vdMJPXXSJddrjjj9R2477GaVopj8NZO7Zq5cm+rEy2zcum/I/x59w0k/uvC21StpPxTYCCGRfwMR9sl9u9ktkpE/2zSkRAT8I6AZID8FefeWl2DmSdzRuVws72ubKidvgT1x4kdKfmDcn7qcm8YSTTtbAaT15i33C9tAfH/j7I3+xJt/RNM/7Pvjg1Zdf3LzJeXeoPDt2NGqott4UM3MAmTHhekAXW3T7wkIlNjU1xX5kT1HESq+wrfxPpV5qG3vK+ONOPGHvnr0rlr9duXyZZn9Uzj59+2rYke4jNU/Q8reX6oliLJT9hGwjgAACCCDge4FW3TxogQiBbE4p6DN4SLmOfXPJYsdzICVqeYft27adfe7HH7j/12YKngNNB/QzWjMx61PHl8tdwfEnnvTZK77w1z8/GJn05yrHcQl39XbbCSeN0SzRuoXQuOMxJ4/t2bPXiuXL3l62tKE+sg5GUVGR0nULoXfYdaP1wr+fNS/LJzwjHyCAAAItCcT57tbSIXyOAAIIhHQj8q3rvxYX4ujhxyhdI6jjfmoSu3Xv/rHzLtiyZfPSN5e4ZBs/4bTIqV5bYPIUFLTTe/iN27frBmhP85d17K5du2684Tpr176heRx146jXvqxZn99asuQLXwypAnr5y55T2+d94lP6W/dejnTH7thx46+6+ppf//Je1fCkk8cqqKRlQSZdOvm/775zy83f1DwCd9/7qy5dunz02gAAAEAASURBVO7du7dbt24XTbp08euvTb/9+1aIynE2dhFAAAEEEAiCQKtuHno3B322bt0qmS5dux51VKkCInW1tbp5aPE5in4Q66gtmzfHVd20uUHjdzR5swn6vP7aQg3YOe30M22vq0eO07ikCaedrsHF1ovk1tl0/u/depveE39k1v9ZiclsaN7Am74zTW+RnzRmrGJGejKkp1aafFAb35j6Fd3h3PGTuz/04ZG6r1DpSr/kM5fdcvONJh6UzPnJgwACCMQKpB70Wbeu7oWFi8vLSssHDRw8OP6gx9jySEEAAX8LaADMV772dT1D03tbLi09/Yyz9eqWbpXc4yBaZlUn2b5tq8Zpf3ryFA3V1ixCutVbvfq93/2/X2lkjUsR5iMNFPrWt7+nkTvP2AZ4V615f+GCVzTH8wWf/NRz/5pvgkFaJWTipE8f86EPP/Xk40neXX3pK197e9lbV1x+yZYtW3Rzds1Xp2qqoO9Mu/2YY46Z9X8Pzf/nEwr66Knmzd/7vl6F063bk/94vMUKkwEBBBBAAIGgCcS9eTAjffbs3q2fthdf8hnrHW299H3P3T9Z9d93XJQUqNGnR5XG+Q1FSzcMGjRYn/bu3dvM36fHQud/4kKt/lldvdZaq0sjdq+5dqqy/flPMx0F6Qbm5lu+f2D/gZ//9E7He+KOnIl2P3rGWVu3bJ567dWaT1Bn0zSIunf60Y/v2rZli6JaP5j2nZ07duhh0he/fK1uHq659rrpP/pBolORjgACCLQokGLQ56UFi19csFhnX1td+2Jo8RkTxp4+YWyLhZEBAQT8KvDNm75b1K1baelAvfekmyfN7rxtW+TRXNwvDdi5aNKnFbt57pmn42awEvuVlGzbulX3PdPvumdTQ/0T/3hM0+4cM2LEGWecreVRf/v/fjXvsUetzPYN3R1qXh4NC9JLWFqcS/dVWv7DyqBbNI27+eSnLtZaXVoMXi/ttysoLC0tVZV+euftL7/0vJXTfUMP4u6afrsZd93YuF2t1gigsaec8q/5/7QqpueD/3vPXb954MGPnUfQx52TTxFAAAEEgiXgfvOgsIs47vjx3Rraq7mcV66sLOraTaNrFQe591e/+cE0LaoV+WUk7pfe4VK61vp8+C9/diyj/pHTzlCcRZ/26RMZDaSvTZsavnX9V7/yteu1VteePbvX19Vp9U+N5Wmor7/humsUlzHZrL8/d+VVx44a/Z0br9cjHyuxVRt6detHP5xm7kz0fEj3DHo4pKbpJFosTO3Vhu4xtITF2FPGabSRRg1rKFCriiAzAgi0VkCLi+mQqjnTWnug9/OnOJFzVXWdvW0KACkMZE9hGwEEAiUwUOteDCo7qnSgWr3v8HpYiQRGVRw3qKxMY210m5Uoj9L1TK9fv/4FhQV3/ORnc/8++9vf/Lru+TTR8s9+fIfeLNNtmR79lQ4cFPcMeqWrbPAQjQ/SPD4aTGQ9HrQyV4w+7pOfikwqpJDNrl3h3bvCe/fu0dM/jaNWnMjK5r6h4I6J+Jhsuq18/73/altLw9oP1DNJ3dJpfoHYatizsY0AAggggECgBNxvHswrWrU1NTd+47q//PlBhXj0VOa+X9x95+3f18/Tr99wk16MSsSlJy7/fOofOsMN3/q23ii3smm6nC9/9To9nVKKff6+s889T2EXJUbuCXbu1N+6eejbr9/ln71CL4JZh2vjlFPHa/HQB//wQOWK1Fd61mtu9mdROu3bb0feK39twasm4mNK1PY776zUdkn/ASaFvxFAIKMCnlpfLI0tTXGkjwb4OCqhuA/veTlM2EUgOAI3fSMyBFo3YRXHHX/9N2+6f+ZDd942LdHrV1pbXZkdb87HWmnczYED+/Xa1H8qVzw+9+/2DLpb+uPvf/fVqTdoba/7f32f/SOz/YcH7tcfbSvuc+3XrteSq7/7zQxr9M3IYyum3/WLxu3bbv/BLYsXLVRByqmIz0dPP+vaqdf/7N5f3XDdV5JZsl33lI6izfgmx6M/nV/jlfoPGKBHi/abOcex7CKAAAIIIBAoAfebBy3cqUUh3ln5H4Vg7CwLX31Z6zZ85KNnKILjMoHgQ3/4/dFHD1e2itHHa0UF/WgePnz4yFGjb/v+d8uHDtMMPlu2HFr5QUEcvUj1zsrKW77zrao1q01ZWv9BS7lr2h0NYf7m9V81ddCP8htvnqZ5+ub8bZa9Sq3dViTLcYjuSZSyqcH5MGzr1si0RC7hLcd52EUAAQRiBVIc6TOkLPI83/H1p9mPaaIfRyK7CCAQHAFFN5YvW3rHD2/t3r37DTfeHHdgix676Q5M0yKueHtZizIaWa08/372mdici19fqMRhw4bFfmRP0btdP51+W/3GjV++9jozQ5BqNfWGbxUUFNz+g2mayNlEfHSIFgh74flnf/bTOzt37vLl5tf47eeJux27ptihbM1RpLiHkIgAAggggAACdoFENw8aSvPWkjccER9zoMIu2tCQXvt5HNt67fq7N92gJ0Ca32fc+I+cdvoZa9as+e5N33jj9UVmDJF5QqOXyK74wtUaenzbrd+zIj46lUbvanjR32fPUinnX3ChUjp37vy9W2/XQON7f/aT2EXBHKW77ya6f7DuSdwP51MEEECgVQIpjvQ5c/zYP8UM9lHBivt8fvLFzOvcqj4gMwL5KKB3oDReevX772muQUf99SJ9XV1NaekgrYsRu3DGueddoLDLPx6fk+iOx342BX10s6WQjT3RbGuuaG0MaH6hTBt6+KYVMTZuWK9wkiNzOBzW3eGFEy8efsyHdSpNBa311jWsOu4ckBo9rtfmTxpzskbl6J0sx6nYRQABBBBAAIGUBVK+eXCUWN+8unlJSWS1B5cvLdTw6N8e1p/27dvrrsMKqegdc21rmQgdq6Wy9Cb4yy8+rzl0Yk+lZba0jsTYcafOfXT2qeNP02oPGmSkd8EcOfs0LxZ24UWTPti7V8EmrRHhyMAuAgggkEOBFIM+CusouKMQT2zVtaTXlYMjM2XwhQACPhY446xzdBuUaNrjfR/sU9ubDjQ5BPSUbOJFl+jG64V/P+v4KO7umjXva15DvVQfG6DRUqs6xMzUqI1BZYN/NP1uLbz16/vujT3Vvn0fKNGEmTRgW9ta8DU2m1J0F6gFNTRjYqdOnQn6xCUiEQEEEEAAgdQEkr950HOjz1z2Ob1q/dQTcRa+HDDgKFXA5UVsrcg5qGyIZu0zeexrbGnWvxNOHKN3xPRMSCfR2GT9vXVr/CmZwzsjT7b0prn+bt8h8nuTRivrjzZiv678wtVK1FMlgj6xOKQggEAOBVIM+qjGieI+mu7noUcev/Iy4j457FaKRiDjAno93jz7il3rSjdqmrRYoZPYBbzGjB2nCRFfeOG5RHdXjnrP/+eTetP+tDPO1M2Z46Nxp05Qyqr/vmvS32veGDPmFMWVHPPmaLKeE086WdnMpIn1GzdodsZhw4+Jzak8WilM8SMN89aTOnNm/kYAAQQQQACBtAgkf/OgccQfP+8CFfrcv552PIPRGqBnnn2uPlr9/qqEtWrX7u5f/FIji6++csrmzYfm7jGZz/14ZMSx1gM1u2urqrQxYsSxZtfxd/nRkbfIzc2Gxvi8+cbrjgxm97bpdw0bdsyXvvC5vXt2H2hyPvGKewiJCCCAQNYEUpzTx9RPcR8t1h5bVxP3iU0nBQEEfCOwsrJS0xif87HzNPmxvVEaR/ONG7+r26nH4y2mPnHSpcr81Lw4gwSVPvToYbfd+VMtxWqdUDPy6H2rM88858yzIrd31pdyXnnV1XrP35qbefv27S++8Jze8LrqS9cqymPl1LaW3tD7XG+9+Ub9xvVK12DvV199SU/t9A6/Pac+Uhjoq1+/QZV/8fnnrDOwgQACCCCAAAJpEUj+5kGPZ5579pkuXbt+6dqv6eUsq3T94J485Yrjjj9Rtwf/qTy0fpZ+pt/0nWlac93KqTsETdun97Yu++wV1rHaOPmUcRqPo2HC1sSC69au0YvhWhZ9/Ec+as+p7V69emvJCG2YRTm1XqemAYr7tX9fZIBz4/bt+tS8fu44FbsIIIBADgWOfA9NrRKnNwd9tHSX43DFfbSI+4gjv3k5PmcXAQTyW0ATHN5x263/O+O33731h2e/9rHFry/SEqd6Sf6CT36qd3GfZUvf1CLrjhZq/YuKiuO0frlW43J8ZHY/fflntWCqBl3r1XprKfRf3vuz26ff9e3v3XrqhI8ocLNn954Rx47SausKzdw1/Uf2OYP+3y/vHTb8w5q7R8ux6yV8LYGhmZu1PMeHPjxCi2f9wjbt4v2/um/kiFEXX/KZ40846emnntiwoU7zOmsSok9dNGnAUaXvr/qv1oaPW0MSEUAAAQQQQCBlgVbdPDw487dDjz76E5+8SI+XFi1csPStJcXFffRq1YdHjGxoqLf/WNcdwlnnfEy1eumFf6/8z6F7jAfu//VxJ5yoG4bjjj/h5ZdeqKut0bDf0888u7a2dtp3b7QmFtT9xvQ7fnDvL39z6w/vWPDqy1rTc+PGDd279Sg/+mit3tWlS9d5j83R3M8pN5kDEUAAgZwLtDXoowYkivsoEtTQs3FEzptIBRBAIDMCWuTihuuuuepLXznl1An6YwrRLMi//uW9/5r/lP39efPRBZ+cqI0n5j1mzaToqNcrL75w6qkTXn7xBSviowy6sbv5xuu/fsONKuKjZxwaVfT++6vu/dlP16x+334GFf3dG6//zOWfU9znS1/5mvlIZT0+91EFcewTNGr7huu+rOXeL508xTzEM5l1Bq3s/sz8p+wVsBfBNgIIIIAAAgi0RSD5mwf9LL79+7doduTJl3/23I+frz8qV8Gavz3y1789/FfFj6xqLH97me4WdoXD1kx/+khvan/7m1+/+svX6v7hs//zeaVoqO9bSxb/6r577E+MlK6HPV++6nNXfOFLZ5197gTbeJ+a6uo//H66RgxZBbGBAAII5KNAu70bDg2MbGPtNa4ndrzPturlIwvfm3jZF0vGTUnm/JUzIr8Tjpo6T3+H65ZXzZlWNHB0+aTpyRxLHgQQyKjAT+797etvxv92oWHV/UpK9DRMD8e2bN5kPT1LoT4aia0R3XEP1JhtDcPRhIu1NTXuE+5o+kato6EBR6rM5k0Njil+7CdXcZoQul+/EtV5U0O9JiFqS+XtZ05h+3vfvOaUk45L4UAOQQABBBBAwIMC769Zd9MP7k5UseRvHvRjvbhPX03ArGBNQ/1GxW5iz+lYn8ueQW9p9enXr31h+7VVq11uCXSICtLNg24hdoV36q5Ab47bz+PN7WFDB//8Rzd7s27UCgEjYH7H17b5Nd9TLCbmYKpUfsn0otLR9oiEp6ralsqkYaSPKT7ReJ/X1+7p/fbaS8e1pZIciwACnhZQCMY9CpN87RNFfHQGDR1yWafDXoSeDSpnMplVnG4f9cd+ONsIIIAAAgggkGmB5G8e9GNdc/zpj0uVYscXW5n1RCd2ZQnrU/uGClJJehHMnsg2AgggkO8CbZrI2dF4xX2GlA10JGp3wYq1GgcUm04KAggggAACCCCAAAIIIIAAAggggECGBNIZ9FEVtVJ73LiP3vxat64uQ23gtAgggAACCCCAAAIIIIAAAggggAACDoE0B3109kRxnz/Nfoy4j0OfXQQQQAABBBBAAAEEEEAAAQQQQCBDAukP+qiiZ44fG7e6LyzkJa+4MCQigAACCCCAAAIIIIAAAggggAACaRbISNBn8ODSz0++OLama6trGewTy0IKAggggAACCCCAAAIIIIAAAgggkHaBtK3e5aiZifvcd49zgWelO3Jmbbdq7rRw7fJ+YyOLxye5hHzW6kZBCCCAAAIIIJCCgBZb1VENix7W3/opb9ZbTeE8KR9iv7soKqvQaq8pn4oDEUAAAQQQyL6AfpLqx6h+hqro7P8YzX57A1hipoI+olR8Z0LFkPk1KyzWMybEf+3LypC5DV3K5jpuWDxLpZi/CQBlDpwzI4AAAgggkCEBR6DHXopuW4smZS/sEnN3EamLubsgAGTvF7YRQAABBDwlYAI9qpL5HdlTdaMyaRfIYNBHdf3ocUO2ruzce+SQcI+B5WWl5YPiLOie9iYlf0JHAIjhP8nTkRMBBBBAAIGcCJiRNTkpOrbQuON6Dt9dRLIrAMTdRawbKQgggAACOREwsR6XQE+4ekXcH205qS2Fpksgs0Ef1XL80V36HTekZNxF6apxhs6jWzT94eYsQ7ycFoH0Cryx9MgQwtaeecTwod26FbX2KPIjgEDOBXSrWjVnWs6r0aoKcHfRKi4yI5BRAW4eMsrLyT0u0GK4x9Rfw1Q93hCql4JAxoM+KdQpy4eMmjpP/wcU1DR3Ziqdh3JZ7gKKywuBLp07n3/2aR6pat/iXkuWVaZQmTHHjzr5BI/+MNu5c1cKLeIQBAIiYA3wKRo4ut+4y63ZBzzbfE2LoLpxd+HZDqJiWRBo2Lx1/NgTslBQkkUUde3yduW7SWa2Zztu1If1x57ine3wrt3eqQw18axA/aLI+AZVz/wM1VieyhkTPVtbKpZ2gaAEfRKNUjv04n3paJPBxH121a3QDWWiQ9LeB5wQgbwQ+MZXP++den4lFJp0xdQU6vPAfXemcBSHIIBADgXsA3ysAbmauMe6hc1h3RIVrXqauwj73YXuMaz6JzqQdAT8JHDqycfrj6dalNrNw//99meeagWVQaBVAtZTE/vPIG2bMFCrTkXmPBUIStDH0T2KcZZPijyCs39pgI/Gs2nouN5yDM+JrPPFkB+7D9sIeErgsos/8chjT7WqSnfcckOr8pMZAQRyLmDdqloPJ60q6We0/thDQtZHOdzQ8GFH6aaeJkRl7rC5u3AQsYtA1gS4ecgaNQV5QcD+I9KxLJf52aRKWj9nvVBh6pAhgaAEfXTFJyOoJ3K6XePOLBkr8iCQW4HLL/2EKpB83Kdi5DH6k9s6UzoCCCQvYL9VTf4xTNdSj76/aQI91oDi2CdPycuQEwEEUhbg5iFlOg7MOwFrPGzc4Q551xwq3BaBgrYcnEfHtupdLd2Z6f5SrdPNWZLRojyioKoIBFPgskmRIBFfCCCQLwKatUdVjdyqXjLdy0NjVMMkSdWKQxP91C7XvXiSR5ENAQRyKMDNQw7xKbotAvod1owt1W+1rXrM0KrfmttSQ47NpkBQgj6tNbXiPpG3vZIbJdTaIsiPAAJtFNDzOo3TTuYkDPNJRok8CHhHQDERs6CsblX9dAOqtpi4D0+VvHOxUZOgCXDzELQeD2Z7zYOT5MfJBlMpOK0m6JOwrxX3MY/vzP+ZhPn4AAEEcidgxmm3WD5P6lokIgMC3hGwP5/0Tq3SVRPFfQ6NJm4eypSu03IeBBBIXoCbh+StyJmPAtaDEy+Pk81H2Pyts7fm9Kneuq+sdwdprli56vVXX335ua3rdr7WY85UPaUf9eHIZBxJfo9OV3/oAaNWs9PDRv3P4f9MulQ5DwLpFWhxUkZlYDaf9JpzNgQyKpDN55OawHLZhj3vFZ5mWjT5wo+UlZZktHU6ue4otE6o7i5UeqtG3We6YpwfgeAIcPMQnL4OWkv9/eAko705e96zWwreOz8dZcycPX9N9cZ0nOnIOc4af9w5E044sp/c1nMLlj6/8G2vjPRZt67uoUcen7N05w+fbPj81777/R/f9/izC95v2GPaohiQpmvVn4cfbd1iPclRuOViGLabDp8h4AEB91iwwj3uGTzQAqqAAAJHBLL5fFJ3xoq8DD+waviBV0wNqtdvOVKVTG71G3e5Tm+eKmWyHM6NAALxBdzvDbh5iK9Gaj4IZPPBST545KaOaY/4qBmK3aTQmKqaSOzJK0GfqpratdW172/as7R695JlKxp37tp/sHOX/qM6lYze29R+X1PhgYORqiruM+mKqdkM/TAMO4Vri0MQyLKAy8w+vNiV5b6gOATaKGBNPNnG8yRz+JZQ//cKI+OIFfc5vjSczCHpynPk7oIlI9JlynkQaKUANw+tBCN7Hghk88FJHnC0soqTJ5574zWTWnlQfmT3yutdLy5YrOE8azfvE1uvXn06de1xMBQqbN/VKDaF2jUdbLf/YEH7dk2F7ZrMIs3uEfo08lvDsPVIUHdpaTwzp0LAmwKRp9/VK/LolUbz3cB8ZzCkTfsaCzr00JM6Xuzy5jVGrRCIK6C7VaVnc+JJ82KXgj4d1z4d6nBp3FplKNG6u9BT2aJJ3F1kiJnTZltA/4sVus3m/+KUWxh786BT7WmsGVCwuaTxjVAoEhHmC4E8EuDFLq911p03XuleJfMW2NCy/ldPPs895633POSewf1TrwR9VMvKd1bp7+KS8h69emtj1KhRV1555ZgxY7S9ZMmSpUuXzpo1S3Ef7Zq4T8Wx2ft1TsOww3OWc1smfL58L2Bu10wz8yjuo28Ijzx2qHN0xxbeXKudT34xqbW9fN+nNBCBvBCwvvlk7TvPO/9d/cZbb7266+D2uvC+3ev7ljy4Y/sn1lWtztpTJXN3kRe9QyURSEbA+l9shuxl7f9yMnWLm8d+86AM5v7hwjP75Ev94zaKxMAK6JGt2p4XIVfv9JGGdBw8556nH7yz8r+rt7zyMz0z7rVz6/C+HZY/+lTWbgayoOGVoM/G+k1qrSI+fY8q18Zdd91lwj2GQNtmNyruM/epipE3mAzZ+Vvv3menIEpBIIcC5kZHFdBGUVlFvoxu04gea1JGE/EZ1q9z98r7wx8uy5cm5LDTKRoB7wiYla0yVJ8FS95ZuGSlTl63fv3St9+ur683BbUPde4eatxUX/f4vHmPhjo9/uxrJ594oj4qK+03+cJDczxnokrmuxN3F5mw5Zw5EdAM5TkpN+VC7TcP5iS6eRgxoKO2864tKSNwoG8EvB+s1BJJmjDXO3fmkYmD5z6lvxs31Ozbvaf3oMi1oGmF9afPnshUwr6J+3gi6KM5emrX13fp3LnvgIj0lClTTIgnom77uvrqq0844YTvfOc7Gu/zwc6GNxbVPP9I6KzLshH30aWp5dt1W8YbXrYOYTMVAfPmVOyR3nwa5p1vyrFisSn6vqw3vPRil/nopnMiYwbzqwmxjcqvlESXt1rhzSs8v3h9X9ss3K2aiI9G96xYsaJ9aG+PToUdOhdF/nTqplc5DuzZ1mFPeEfjVn2qr4qKilDoxOq6+oyu58Xdhe8v7LQ0MF++u2o1Oq1JZ+KY+fJt39w8mG7q3GPQXVMvM9+LzGzraem+AJ4k0RWbL1dFPnaZzFVt/UzxeOU1HMkjN+cKQZipIfbv29OuY48uPcr2FfYKNYU0rfCBPds17k+f6o8eKvsg9OOJoI+5NLv16KUNRXwU3El0sSoYpNe+KisrG8N72u+uXfDs46d89GyPXDeJ6pwv6bqvja1qRu90Y4vzR4qLpL4dV82ZFreZ1pgal8PjHpiWRHuhheOu61zzku7YzNJ1aTl/1k5iBvsU9Rl4Wkkk9KMm2JtmqsFV3cbucCFNeHkfvgWJPVaVoUda7JEguJm71RYpWpshls5EfHSenj17dO3Z337Cws699KdTr4GN2yNfivvo0/FjRtrzpP1y9ev747Hyaaez94s/tmPR1C7jpl+TTCQitqUu9w9ZMI+ts+I+eslLtYqtqmdTrJHC2igZF3kxfEtBsSZ63xJ9b5wFT88SxVYstuuV59DlmtLtLryxyLEpbuzN73Z1LU3nfz2X4mLr5uWU2IbM++e/n33hFdVZq0UdKOzWsZee/Rz6MjcD2vngg10dO3Y0gaF8j/t4IuhT+W5kNp+mpgi0xvJE/kn8pYl+NNinsHPPfXs3b+w0PGsRH7/elhlpa8S7A37yhR/hW7DDxH1X31NmP/FqbB4jqctVby6YAcPmOZgVjzdXsvvhsadNS0q83j+5rPyCUXk4bbl5XnfyuLOm3XKDfodctr7DwiXO7sj0+xpp6RTPniTe1XLkFZhEl7f1vDTu/w56xL2745rrEJ99f7ZmInDXaNWncelMKKdPn+KuRZE7vLgTCPbo2VMfmbjPo0/8u/Soo6xyuVwtCpeN2U+8Ul3X4MgAnQPEsRv3clUe8z/djI+IvX/QL3jm/iHR4Rldieae3811tEK7zR09JTbdyynm5kGvepnf66T9ZzXtLe4fEnaa+/1qotvd3F6uCRuTPx+4s2fihUTf3LbFNuTBP88ePLB/YfsOZsrguDcDB9t3PXDw0CpS2ZxNOBOXpCeCPnqPrm5DfZ+SUrUw7otd9pabDN179Kpq6F69PfLOrcaR6ptIdoYLml/U7fXx37Z+Wsfeq/mvmVlokV3yzcfv6nTSybpKrQtVL7WqDvpl2NyuaVtPxjaur7ZWi7AfntHa1qzfZM5vLzF/rwE9ptP3ZbVIsDVvRkL4+vJH00xbcvt33KulOFRVv6haz3Wty9sM77d/Z1YMTr/VFzdt2FJQ7uiR3LYov0q3X8n5VfOc1Na6XK3SNcxHb3UV9+jaqTni4zKBoOI+7UN7Nm/fq6l/7EGftH9vND8CdHeh/yPWjwOrwnm6YSlxxabWg3a3A4vuq2++yzXfYCPfS+cs1xMjDaixTq5vuQ0b9oQKD80/ZT/cypPRjeyXmPbmWDcPjjP7oGmOFqV9104U93JVifbLVbe7HRPc7iqowcPmJDvIzl69fovczG+p1p1YkudJMpu9uCQP8U42XVdWZUxDdDOglPDObWbAr8vNgEJC+3Y3du7aTVP/ZHk2YavOadnwRNBHER8r6JN8q7Y37ti0eevyhfNrV7wZWvHmsUedEXvs4MGRQFIKX+vW1cUc1Wdr1xE7a5fvnf9Q35HnxnwalZDWcqPO7L6Tcrmbt0S+dHL9TxjQt9uyFe+agtasqzu4f797ofo05XLjObdY2pEMHi9X03+ah2DFTVVaD7hh8aqNTcU9rfdctu5TS5rW1vXc38c06T/PRJbiO1gY3lowWBufOX+coyMy1N7mzo/0/lF9u39oaP/Xmmc51a7VOxkqV0W4f6VWrh7Tqeam8i02LW4FUitXp7LE4p62xcT8KnfQUX27dCowV8s7m1bsP/BOrxHnlI47dDHXbN23c+u+Hetq9xx16HvpppVv1b8+q1O7nlva9xCFLja9NWMmWGlRxpEhUM5qu/X9Wdtjjxvq+LbgwIndzZfryjyiVOiwtf27vbautvnbqWl7v1iC5h9tumJ/9fu/aphPl9DeTr0iceEWJxDUveC2cF1dbe2WLfWnjhkd+73RFGWu9rLeHeKVnFTaobuL5W/1PfzjIKnDmjOl3L86urXU9lolWa7YdZQVAzJnyEK59qpa2x4v1/qfbr8TO6Xnf8K1q/S7nMsvcpEwUO3y4aHQe81BHx0+/qQPydzc16XW6iT717JVido2Ha1yUytUZ2htuVYFtJFyoaZcM8bHfkKzbW9a7KdKaWO5cc+ZTGJuy62qqzcXmKpq3a/2blr3zsaoX8qs78/dm3+xUv/qctWLil20ek/7DuYhkHW37N7q3LbXvW6JPk379RyXXaVXra3p/sFa86NQ1G0pt3rrPtNZplFWL+v2Q9vm/3hR58K43ZFMuaOmzovLFfeEcXPGJiZTrnWU/kfPffIZM+bXRHxavBlo17nX/n07NUhFfzQe0DpVfm14IugzqLS/gj7hnTuLunXT6uzug32UQcQ7Ghv37Nm1bUv9gw8/tqNmp1Je2ffbuPSnTxj7keOGmHHj9gz6pmPftW//9ckFa6tjgz6h7dWr9zbuDC19IBR6oGTU2fZDYrdNubHpLimJynU5JPaj1MpdVrlqXe1Gna16VbcVbxaZbe1u37CyV4+i2FJiU1IrN65z7MldUrxWbri2TiEeU2FdY2a7+GCNUv7+5o599QtCIf2JfNVXRq7b7pse69IzKmVbu7f3tFutj363a93ylZENfVkdkYn2rqut36YLu7n3e3Q/0vuqQHPhkb8yUa51cpeNNpabTNPilt7GcuOeM5lE75erQT3hpshbGw//dVHTgf2Hvm8c3Pj2wd2dVr/Wc/kO00zz3TI6pVLfP/e0O7Ct3QvKo281utg6dOxy3NHFxaFwuC7yNk0yXzn8Ppmr71fW92f56FuB/74/2ycrSaF/d2+vN7cB5vp5cvWjn9raXT/3tWtdrrrGipvC3Q5u1jCfrj0jcaEkJxAsbKers/GVF/+1fcOhn5I61v69Ubv1lQv1t75OGdJ5/NFdXO4uTDb736a9u7fviDSh+e6i+6CKLj1L7Hla3Pbg9w3r5+Cu9eFiPU1t/qahXnjggcpc/T/yfrnbGsOxd2KrDu78+ODd5370FOu6sm5oY1MO3XKEwg/Pev3l1yLPsfXluFxNYjJ/J3NdWR0dru1aHGp4cvFrW7dt79WjW817kXv11L6SKddx5hS+bzjOoF1HuY6mWdew/adVJsqNrVhsihfKtS5XVc+6X+18cOd/D0b9UmZ9f7Z+TZPzwOYmRe6Nm2f2sO6WlawLKRxyPrD3QntjeyHJFMd1lcxRLu2Ny65zVr+x8YWDu7XRqUf/V34f+Y04hXL1e0rt9siT/n9tusP6MWT/TaRxR9j6fSHR//EWy7W+cakg8+XS3sNZWv7Xvdyo385qu5qbgQ6dI694J3kz0HSwQJlX/CePgz7t9m5IGPtoGbilHBq/p2iuZnlweUChc1z6+a+//ubykpIB/QcM0At19913n8uJZ86cqYXb19fVrVu9snePwrM/1N0ls/nokhO6Jf8IbuHq3a+v3dPiOZPJQLkuSji74Lh/xHXl4sN15YLj/hHXlYsP15ULjvtHnrqufv7cVi3CqlU5NEejYyx3bCv0hEkTCO7asbVm9bKeXQrGDE7q+Yen2hvbKJPC9ZxIpsV0+teFiOvKBcf9I64rFx+uKxcc94+4rhL56GZgaXW4Z+nort17J3kzEGra16l9Ow3zueOWGxKd1pF+6z2RFzjuvPFKR7pjd+bs+WuqNw4t63/15PMcHzl2kzyh4yjtmiIiUaucfzU2jzLYGQ6rJlqZy4zliVsrE/HRRxoEq7/3fHAwbjZH4qI1rQjipCviozpQrqMj7Ls42zVatc115cLFdeWC4/4R15WLD9eVC477R566rhTxUW0V8dHf7mOKrQy6I9T29t3Nz6O11dKXp9qbqLJcz4lkWkynf12IuK5ccNw/4rpy8eG6csFx/4jrKpGPbgZ27GkyP9+TvBkIFUTe4NbrXYnO6f10TwR9unUr6l5UtHv37g0bNohMz9YU3Im1UzBIY3yUbrJ16VzQuUO72GyxKQN7teIttoGaujFNX5TrAomzC477R1xXLj5cVy447h9xXbn4cF254Lh/lBfXlXsTWvVpXrSX67lVfWrPTP/aNRzbXFcOkOR3ua5crLiuXHDcP+K6cvHRsB2XT335UdoCHG3R0VipnTvD/11dvWnTpt69e3fq1MkEd7R8uwm/Kdzz0EMPaRCQStm7d6+yHTiwv1fPXr17dOk+aOiOmhVK12vwieow8bLTE30Um/6pY/b95alD7+c7PjUF6W3JvY2R6W+00bFH3CkjDx2XrnId1Whxl3JdiFz61+WouB+1ynnc1ofmLN1pv0qty8m6ij5obNClxXXl0G6Vc6761wflVowf1m+wedHe0QNxdh3tjb10E6XoXPb/BdptS7lxapZ0EuW6UDn61yVnix+16Kz5m82CIzrVuKGdn1yd1FtULZY7ouLofqNOdGQ74Z3nX1u2uvOexvade+i+wv35nhl0HN7R2K5D9/59inSz4Thb3N0W22s/ynK2/r8keXdhP4nZTq3c2PO0NoVyXcSs/nXJ0+JH5toY1Lu9pkqwMmvmBG0nSklLuaYs+tcyj93AOdZEKbG/lMWmDOpdpZxagU5LfMY9iT0RZ7tG3G3rFwrrJ4jJpp+DRUmvMHBO132PvLzafn7r1xN7Yux2bP/2HjmkX/O0evbM5ruWUuzfuLSbxv6NW669DuZ+QxXQzUDl6o27wo1di5K9GdDrXaGCyOtd9hPm17Yngj6jPnyMhksN6N9v/caGmpqaYcOGCVFxHxP6cYBu3bpVKcW9e3fuWHjCSccdP+b4NfPfUcrQCec7cmr3zPFjWzWhtw7R9IknnXflSwsWV8XM5XyooPOuqFk4a1/jxuJjT+hZNjq20LSXG7eIuInpbW/cIuImUm5cFitRk5ZpVqkbzuq9+aQvWteVuZxKx3+sU48BJuea+f8b6tnenmKdwWzg7ACJ3XX5/xubOVFKeVmpJoRL9Gnc9ICXG/mW2K69/VtiopQOPfoPGn/oe7WcywcNbNW36HQ5U27cy9hKzJqzvjeaG8HyS6Y3LHq4LLT8+9de+s6B4db3SatKyW+4XFcTano+v+z3XffuVtBHT5Lcgz5Lly5Vobt27+neq+SEk47XzYZ7HVzKTXSg5fz872823/wbKp/X3UWHHu2t/yaJjrXS21Juhpytujk21F4tflpVU5uP5aotrf0RnJb21lc+W9EhPKLiJGtyzOb/NZFfmK0U1c38PzIpaSk3V+2lXAm4f3m5f/c2bqjb8Y79B71JUYusX9P0/2jHvGuV0m/c5UWl8X+NsguovTu7j1RKW75v6PAU/v/mRbn6FtFjR+TX+aHnXRH5PSIUMr9HtLa95VpQeMRiHd5aZ8ev4YnKtYI+9m9cKi6b/atvnv1CkatONwPV25/asesDVSDJm4F2CvqEOipkoUPy9MsTQZ+KY4955LFQ6YCSfQcOahTPzp07u3WLzKcd+6UXu5Shb9++Q0r76tPTxp38qfFlDR0naLt80kWx+VNO0a98saODqjq+rgeSRfp7+C49ru43dljJuHQWqtrGLTflViR/IOUmb5VCTn1/UVxZAeZRtuuqsiHyDmP5JydYP/Pqy3cpT/mkr6RQhPshre1fTcGuEzq+L7sXEffT1pYb9yQpJKrcMVrCtnpF25vQqtJz2N7Y71etqnlqma32hj96dNWcaeWXXGRdzM3fLXfZv0maPP3GXtT2b5tWualVO+WjKDdlukQH6oLR7676waqIjzXeJ3POutlQTXbv3df18ASCieI+1gSCe/bsGTywv242Ei3nnKhpyaervYM3Tog0f++TRWdIQ/9x0vDfpMUKZM7ZpWgFefUn+9+v8rfccF3ku6v7gAj9JuMYNJHb9mb/52962yvPJO8f0luuy38cx0deLrf+uB7Nt7KHfj8SZtXeJ/8/e3cCH0V5P348kARyATkIhJCFgBeWcHgEBE/Ak1oVD5D+PP4t1hPF2yq2tVpta2v7s/Vsf/HXqr9SqYLVikdVrEcQoogcAh4ksEnIAYRALgiB/3cZHIbdzWY3uzvzzMzHF6Wzzz7zzPO8n2cmky/PzCP1Hznj4G9MdftvifUbBr/WBX6Ui5Ukmn/dsMVxtUuE+Mjvp8cd61vdaOSPuvl7RPfaq/06Y+zfwB4MndK944YuM+i3+pDTIg990lN3dRx4m3CXNwO9evUKWqaNEtUI+hx9hEyXksk+2Sm78oqKJLIjcZ+8vAPTH3RNSWxubi4sLOy1Z2vbjsrvTSyaXNCYnj81fVrXcWK9kGg2JCbdvGCVdmPq928s0RTLvm4Q0KMP2s2E3mS5sdCWX5UMeh79W0s2tEX3tEMrUqVIHRzQhEibbG1++Tk6cvYrUgd9eGvXSbnz0wOIeh5rq8rRVRMw/mCV4HhcrzlypzFgwIC6urrkxsa+/frJCwSDrtWqv0BwR2OjcE0949T4RXy07tAQZFtOHO4uVBui1tbHeOXULrByXdWqpF1dZVvOGtPuhLvU0H/+7v/N/8Eu86uWwRekWDBXamXT+lvuqV/DQwxXPY/ltXVABeQSIT86ZR6Ndt8l2w5oVLybIDcDWuQhqUfPPft6dnkzkNRjr1RpxgVT430zENeGKxH08TlOm7p67aO7GytlOy9vqMR9PB6PvL5Hbs4kRe7SZIKPbMiTX7u3b5RsMh/r1PS99WUr0z1FMtzlKxP+0370ylVMjmXaQU1oF4cwTUC/mdCPqE93NHMk60cP3JAa6lWSDUVqFVjPECkOaEKI1in+lXavrFdSbkH06E/hNPvd/esNYSN+AtoPVvlF0ZyrzdjRo996++3G/dEciftoT5EHfYGgRHy0bOedMzl+zddK5u4i3sIOKF8Ppmht0a+u8tGccydMQ/0WQmoodbbdr/f6TzGb1j/Mbop3NvVvd+MtYGb5vrCvx/d2JH45DZ9dizwk7o/mSNwnxM2ARHy0bLaO+IiMKkEfibdJ/OyJ3y+VgE5alkem+Xi9Xr3ntNCPPPO1p6lm3+4dyal9zzm2IH1wgSXjmzNK7xc2IhWQwaM95xW4oyLjSqqhPW0hNZQNRWoVyBVmigOaEGZLFcnW2fCWiQyK1JBqqClg2m+G+YMGFRUVrV69WgI6PRP2ZPTLkVs97W7PKKNHfCSzMT2u23a/3sYVh8L3/1Lne07cj0Ke/FJq5GiTDrRKar+I+lVY8Y/G+iteVcWr19n9gFLDVXHD8KuHavhWWk4t8vDCy4uMcZ/AmwE94iNhikgPoVp+VYI+4iLxs2/e+O2ba3eKfuP2bfJ+n17JSWl9suSrttaWnj0S5NG73n37J/Ttb/fpVaoNAupjpoBpv9t0u1EyI0P+dU7uLG36i7r85JNHjbQmMLuk28OgezuqP7y71y72coyAJ1/W3PSt6iVxn4bG5p2N23L69kpM6ZeYkimJHW3bZYpx064eu9ra5KNEfI4/5hhPvrxokv8QsFhAfrTZ4vc67aeAzPeR3/ltUWG/fjXWn59ofjjhf7TLcA2/ReR0noA2c0eL+0jwYXNNTUpquhZ5aNnZ0NLUOLhgaMI+JzzYpfWdQkEfqdAFYzLkz6pBU/933oKtlRvbmuoTk3slp/nut44YXpiwr8MXlps2Vf523sijRQioI+CAGx0HNEGd8UBNEHCMwPRzT/JW100/90Rp0Suvv/vyK6/s2vpVQmOlzCDek5C6r7U2PWdwes6gIw4b/d0zThtx5HAiPo7pehpimoD8/LX1j2C719+0juZACNhdQOI+8ufvLy2S0E/Dlk0d7b71vPT/Bg8ucFLkQa2gj6asBd5WrVr+xmsLmvb40o4bU3TOlFPkVduEe/SByAYCCCCAAAIIRCqgx3FumHVp6r7tm5fWfL2l/Zt6eXI8YUhuSvEJRaecdyU3G5Gqkh8BBBBAAAE7CmiRh7/Ur6vfuq2x1Te1p19qz8y0xAfumeOkmwEVgz5iLfqyFvv3+y9rSBsx5PSbZW1CO44h6owAAggggAACygrMmHpiRdsiQ/XSc4tHDmA2sUGETQQQQAABBJwtIJGHj/71zJD0XcZmOiniI+1SNOijixdkJTsp4lPurdngrdFbxwYC6gtMmThW/Ur61ZATzQ+EjwiEL2DHUz781gXNqb+9Pui3qiVyfVOtR6hPOAIOuLBw6oXT0eRRSmC4J2+YJ8+EKlUsnBvmUcLPGWaBscq2a0dtrIpSsxzVgz5qqnWvVvLTomT+W93bl70QsEqgorJ21vSzrDp6N47LidYNNHZBQBcw7R5RP6IKGzZasufdJZ+Xex1+b6rCkKAOsRVwwIWFe/jYDglKM0HAdw9vStCnuWpVmM0JP2eYBZItTAGCPmFCxTjbMM/AwoKBMS407OLkEqDfMk6aMDrs/WKfcfGSlXqhitSErtF6xNg1eh/ZbkOd3rS2Jsbe5ESTYcw1MPBcNg6SwG+dnSL3oDa9DeV09jududJqp6p+OlsLYrzSOuwaYuGpZ1RVp38tBJGhpeCAV6Rr9F/34ncCyoK5zdVdR3wqFhyYClR44YPxq0w0Jff+9Ocy2adPQVGmZ5R3ybxoijLu+07pCuPHwG29j7rMGbhvRCkEfSLiillmifhYONNVRpU+wiyshmgaL9MW1kTmhug1sbZrSua/qQ8yC0GMXaPXx44b1vam8USbPGGMOTNsg3aTPrzlLsTCccWJFtg7CnZNYCVJUVaA01m6hiut3/hU50pr7Bq/Str6o7U/SY2q1t5aKHjLyl2fdmYZu8aEcy09f1T4R4koc/jFRp+zcEj++tW1qf18i4bLf+OGpmgbUf6t3+aFLkd+Mdd/Nw+ds9vf9uz2nuyIAAIIIIAAAgg4QEBe6yNPeDmgITQBAQQQQAABBCIVGB+jKE+kxzUtPzN9TKPmQAgggAACCCCgooBNH+9SkZI6IYAAAgggYDcBWTxKZvcMGFm4PSG7uDXDk5UckxbIxMDQ5egTfMLPGbrAzr4l6NOZDOkIIIAAAggg4BYB4j5u6WnaiQACCCCAQIDAhOGphScfLw+grXmsJODLbiZ0uRiOPIsncR+J+HSZ895Hnu1mJfbvxuNd0eixLwIIIIAAAgjYW0Ce7ZI/9m4DtUcAAQQQQAABBDoRIOjTCQzJCCCAAAIIIOAOgbT8Inc0lFYigAACCCCAgJ0E6pbOW/PYeVHWmMe7ogRkdwQQQAABBBCwsYB9l2y3MTpVRwABBBBAAAGzBAj6mCXNcRBAAAEEEEBASQF5vIt3+ijZM1QKAQQQQAABVwsMGL9/ddEP26NR4PGuaPTYFwEEEEAAAQScIMCS7U7oRdqAAAIIIICA4wQOxH2iaBczfaLAY1cEEEAAAQQQsL8A03zs34e0AAEEEEAAAQSCCygd9PE2tDfsbi0MXnNSEUAAAQQQQACB2AgQ94mNI6UggAACCCCAgGIC6j7e9bfXShesaCpdtemB3z6xaVO1Ym5UBwEEEEAAAQScIMCS7U7oRdqAAAIIIIAAAp0IKBr0eb+0bKP3YKDnvSVlndSfZAQQQAABBBBAICoBlmyPio+dEUAAAQQQQEBhAUUf7/pP6SFRno3eKoUNqRoCCCCAAAII2FWAJdvt2nPUGwEEEEAAAQTCEFB0pk8YNScLAggggAACCCAQAwF5wisGpVAEAggggAACCCCgngBBH/X6hBohgAACCCCAgLkCLNlurjdHQwABBBBAAAGTBBR9vMuk1lt3mIrK2ndKV1h1fDm6fmgLq6HXQduwsCZGEGu7ptyrYtf49ZSNPlrbm8ZxtcFbI39UoONEk15Q80RTpGtUGKXm18GmS3cpMma40gaOWLpGTIw/BAOJbJ2iSP9ae2uh4E9SrkXaaWXsGlufaFQ+hgIEfWKIGUFRcjYqckIuXrIygnrHLas6IOrURJGuKSwYGLduj3vB9KYfsTog6tREkRNNHRC/MeOej3aM+zB6/cYnIH4g6lxYhnny/Opm34/qqCoy4KUrFakJXWPf00qFmi/Z0DrvqRd79/1gUHXrhOGpKlQphnUg6BNDzC6Kkh94kyaM7iITXyOgmMBwu92ocaIpNoKojs0EnPS7WZj02gt97BL0mTxhzIYCJaYNhslLNgRsdyMRtMu4hw/KQqLKAs449cwRXlLeumxj24CRvqPJRkFW0v5Ncw5uxlEI+pihrB9jysSx+jYbCCAQJwFOtDjBUiwCCFguIFE5FwbmLGenAghwa8EYQMDBAqWrNhlbt7S87WzjZ/tvE/Sxfx/SAgQQQAABBBDoroBd5vh0t33shwACCCCAAAIRCFQ17okgtx2ysnqXHXqJOiKAAAIIIIBAPAVYtT2eupSNAAIIIIBAwprHzmuuXgWE+QIEfcw354gIIIAAAgggoJZAWn6RWhWiNggggAACCDhOoNm72nFtskGDCPrYoJOoIgIIIIAAAgjEVaClmtvQuAJTOAIIIIAAAghYI0DQxxp3jooAAggggAAC6gjwZh91+oKaIIAAAggggEAMBQj6xBCTohBAAAEEEEDAZgLyNh9e6GOzPqO6CCCAAAIIIBC2AKt3hU1FRgQQQAABBBBwnIDM8SHo47hepUEIIIAAAsoJjJz9inJ1ckeFVAz6bNpU7Yc/1DPYL4WPCCCAAAIIIIBATAR4tismjBSCAAIIIIAAArpAyfw39e2gG+XeWkmXv7vMGXT38BNVDPqEX3tyIoAAAggggAACUQpoM30I/UTJyO4IIIAAAgggoAtoMR39Y4iN8HOGKCTEV7zTJwQOXyGAAAIIIICA8wUI9zi/j2khAggggAACbhVgpo9be552I4AAAggggMC3AsR9vpXg/xFAAAEEEEAgBgKzpp8ZupR3l3wuc3yGeQZOnjAmdM6S+W+FzhD6W4I+oX34FgEEEEAAAQQQQAABBBBAAAEEEIhAYJgnr4vcSz7XMnSds4uCuviax7u6AOJrBBBAAAEEEHCwgLzQJ7d4poMbSNMQQAABBBBAwM0CzPRxc+/TdgQQQAABBNwuIA928WyX2wcB7UcAAQQQQMC5AirO9BkyJN9vjfZCT75zu4CWIYAAAggggAACCCCAAAIIIIAAArEXUDHoI608bUKx3lYJAJ0y8eBHPZ0NBBBAAAEEEEAgegGe8IrekBIQQAABBBBAQE0BRR/vksk+d1978bzflo4oGn7SjPPVtKNWCCCAAAIIIOAAAR7vckAn0gQEEEAAAQQQCCqgaNBHq+uE4anpWclB600iAggggAACCCAQKwHiPrGSpBwEEEAAAQQQUEpA0ce7lDKiMggggAACCCDgVAF5tsupTaNdCCCAAAIIIIAAQR/GAAIIIIAAAgi4WoAl213d/TQeAQQQQAABRwsQ9HF099I4BBBAAAEEEAgpIA921ZfNC5mFLxFAAAEEEEDAsQKFQw5ZK3xwP6XfgdONbiDo0w00dkEAAQQQQAABBBBAAAEEEEAAAdsLjB+aYmzD4EynBX2c1h5jb7GNAAIIIIAAAgh0KSCv9UnLL2K+T5dQZEAAAQQQQMB5AgVZyReOzdh9ZOH2hOzi1gyP49aSIujjvEFLixBAAAEEEEAgAgGW7ooAi6wIIIAAAgg4TkACPYUnH5+eP2rNYyWOa1wCj3c5r09pEQIIIIAAAghEJkDcJzIvciOAAAIIIICATQQI+tiko6gmAggggAACCMRBQJ7tYtX2OLhSJAIIIIAAAggoIUDQR4luoBIIIIAAAgggYJWAvNDHqkNzXAQQQAABBBBAIK4CvNMnrrwUjgACCCCAAAJKC8iDXTzbpXQPUTkEEEAAAQQQiEKAmT5R4LErAggggAACCNhfgMe77N+HtAABBBBAAAEEggsQ9AnuQioCCCCAAAIIuEcgt3imexpLSxFAAAEEEEDAPQJKP97lbWgfMdg9fUFLEUAAAQQQQMACAR7vsgCdQyKAAAIIIICAKQKKBn3eLy17641/1a1p6r1h/SUDy06ZWGyKBgdBAAEEEEAAATcKEPdxY6/TZgQQQAABBFwgoOjjXf8pLdPxjdt6IhsIIIAAAggggED0AizZHr0hJSCAAAIIIICAsgIqBn1kmo+f16ZN1X4pfEQAAQQQQAABBBBAAAEEEEAAAQQQCCGg6ONdfjWuqKwaMiTfL5GPCCCAAAIIIIBAlAI82BUlILsjgAACCCCAQKBAubcmMDFoSvg5g+7eZaI9gj5dNoMMCCCAAAIIIIBA9wS0JduJ/nRPj70QQAABBBBAIFCgZP5bgYmBKeXe2hJvWDkD9w0zRcXHu8KsOtkQQAABBBBAAIGYCKTlF8WkHApBAAEEEEAAAQSUEmCmj1LdQWUQQAABBBBAwGwB5viYLc7xEEAAAQQQUElgyYbW0tdKaxo/GFTdOmF4akyqNswzMHQ5MsdHyxB+ztAFdvatikGfCq//a5sLCwZ31gDSEUAAAQQQQACBKAWI+0QJyO4IIIAAAgjYVGBJeeuyjW0DMqp79x0oG1Xb94yMRUtmTT8rdDEl89+UuI9EfLrMee8jz4YuKvS3PN4V2odvEUAAAQQQQMDJAizZ7uTepW0IIIAAAsoIVCyc21y9SpnqdFqRqsY9nX5nzy9UnOljT0lqjQACCCCAAAIIIIAAAggggAACQQRkUm3zglXyby2u7ZMIAABAAElEQVTyHr0B42cGyWFRUnVAlGfTpmonrR5O0MeikcVhEUAAAQQQQEABAR7sUqATqAICCCCAgFsE+LFrfk8nTbt8dvyO2rajsnnr5vR/v5DS96NwjrK1fLNka+39XGtbW0LHrramnYnJu5K/XPThx8vTUlPCKcGqPDlZmf/zh19YdXSOiwACCCCAAALRCMg/PHIbGg0g+yKAAAIIIBCmgG/KT/Wq9PxRYeYnW5QCvNMnSsADu2dn94tNQZSCAAIIIIAAAqYLsGS76eQcEAEEEEDA+QKdvcSn2bva+Y1XpoUEfZTpCiqCAAIIIIAAAhYJtFRz92kRPYdFAAEEEHCuQNDpPDK7Vql3+jiX/0DLCPo4votpIAIIIIAAAgh0IcCzXV0A8TUCCCCAAAIxEmB2bYwgwy2GFzmHK0U+BBBAAAEEEHCegPx7ozSKoI/zepYWIYAAAgioJpBbPDPdUxR0+o9qVXVSfZjp46TepC0IIIAAAgggEJkA4Z7IvMiNAAIIIIBAFAJEfKLA6+auBH26CcduCCCAAAIIIOAMAeI+zuhHWoEAAggggAACgQIEfQJNSEEAAQQQQAABFwnIE17aQ14uajNNRQABBBBAAAF3CPBOH3f0M61EAAEEEEAAgU4EZKYPQZ9ObEhGAAEEEEAgNgIjZ78Sm4IoJUIBZvpECEZ2BBBAAAEEEHCcAE94Oa5LaRACCCCAAAII+ARUDPq0trXROQgggAACCCCAAAIIIIAAAggggAAC0QioGPRJTUnxa1Jaqn+KXwY+IoAAAggggAAC3RCQB7tkBdlu7MguCCCAAAIIIICA+gJB3umT0adPakrq1q31e/fuC9GA1LS0jPSM1rbWpp07Q2TTv+rZs8fgwZ6BgwZlZ+ds2VK/ubp6c3WV/q1xQ0I8xsk+uf1zcnMHdHTs2bZtm54tJ6d/z56hIlZNzU2tLS16fjYQQAABBBBAAIFAAXmwi2e7AllIQQABBBBAAAFnCPgHfYpGjf7Jzx/KyMiYPu27zc3NnTUyMTHxnnt/fuzxxS/Me/7Z//2fzrLp6cMPO/z6G28++jtFeopslC1b9uen/lhV6TUmynbKoTN9/uuyK6+ffdOX69fdcuO1es7H//RMnz599Y+BGz+5547ln5QFppOCAAIIIIAAAggggAACCCCAAAIIuEHgYNAnNTV1yhlnX3P9jaFn0GgoF8/4vkR8wgQqHHbE7/7wpGSe93/Pflq2rLFxu0z2OfHkU793/rSjv/PkDVf/QCb+GIuSmT5HDC/ctqWmLWHbyaedft0NNxq/1bbfe/cdqXBguqQcXzw+MyurpZlpPkF5SEQAAQQQQACBQwTkCa+0/KL6snmHpPIBAQQQQAABBBCwv8CBoM/0mZdNu+iSvn37lX74/qgxx/Tp0ydE00aNGXv5lT8s3/DNsOGHhcimf3Xb3b9ISkr68e03r171uZZYXVUp21+sXvXje3/2w6uvffihB/TM+kZmv7TElEH3P1JSUb4h8EBPPf6ontO4Ic+mnXzqpNqamq++XGdM39W+x/gx5ts7draUe2tiXiwFImC5wDBPnuV1iLQCnIyRipEfAV3Ajqe8Xvlub4TzeBcXlm7zsqPLBZxxVeEK4PJhbMfmO+PUs6O8gnU+EPS56JJLpXJPP/HHV/+54Ll5L4aoaHZOzt1z71uzZtX8ec/f/+DDIXJqX/XunTZi5NgNX3+lR3z0XT54f/H1O24eO/Y4PcW4kdiz1wO//0uPnom/evDnT5c8a/wqxPYpp07u3bu3tKKjo0PP5t1c39wS3xXBGna0lsx/Sz8iGwg4RmCYZ+Cs6WfZqzmcjPbqL2qrlMCs6We68zYxdNznndIVi5esVKqnqAwCNhL4xW1X2Ki2QavKrUVQFhJVFrDjPbzKnrau24Ggz+OP/u6Tso9bunrzcXJy8l13/1Qa/PBD9xd4hoTV8h4JHXs7kpKTAzNLafv27tu7t6NHjx779vm/NHrmlbPGjjv11qsvati2K3DfoCnyrujzp10s4Z733n3bmMEY8UlP8y0EJs+XTZw4sbKycsWKz4qLx5144klZ2VnLP/30448/rq31TdiRZ8dOOGGC5OnVu/ea1av/+c9/7toVKmzUr0+6nFfGgwbdLvfWaunhZA5aQkwS9WpIadREI9VNAPEDicmQM7MQ47/F0ZuBvamIiSLVEB9qEjhIzDxhVTiWPNsVOuLjV0nGjN+YAcQPRD4qYqJINQREfjQ7KZpsIax+v6rOMFOnJhb2y/5BfuC3PHVAjKNFasV/bhY4EPR5/z/vhqMw87IrR44affedt2zdsiXMoM+utpbPykrHTTxNHtGSJ8KMRykaPaZfZuai1/4ZGPE55rjj/+uKHz3zx/s/WfrRoMOON+4VYntk0egCj+e9995paDi4zpcxv0R8PINyJWXE0SMf+uWv3n7rjbPPPP37l/+/pqamtLS0adMulI2bZ1+zo7HxgV8+fORRR+/cuUMeeZP0H8764T133lZfd/BkNhYr20ccNrTL2RDyA6/Ee2A2UGHBwCkTx/oVYtpH479YdlntuNbq3kcOzOGSy7SFNVGna0rmv6lfoC0EkU7XuyauAyDehatzok2eMMbC+129NznRtCGn4ImmTtfE+6xUs/zCCx+sWDA3zLpZezorMnrV+blpvKWxtmu40vqdQcau8fvK1h+tvVwbVa0d8Ipci2Qs6aced33amWXsGlufa2ZWPr9f0vpDjzdkSP6hCfb+FGrVc7+WHXv8uBkzL3vur8+s+nyF31ehP77w3J9k9fTrZ88ZXODRcx52+BFXXX399oaGRa++oidqG7JA+133/OyzT5eWPP5bv69Cf/ze+RdKhkWvvBw6m/6tvP1n8ulnzr521owLz734/HPk6TZZtuz+h3593wMPVVdVXXrxeTMvPv/Si857641F+fkFV197g74jGwgggAACCCDgDAGZ5hN+xMcZTaYVCCCAAAIIIKALeDIPTIXRUsYN9T0b5KT/DmleiIblDhh41z0/lUXQX3zhbyGyBf1qxWfLrrv6B3N/ev+fnnmucfv2LVvrBwzIk3dFf75i+dy7btu+vcG4V3Jyirzdub29/Vf339vR0d4zIfgSXcZdtO3+/XMnnnSKd9PGL9asDvw2aEqvXr3u/9ncjRXl8u2uXbteefml4nEnaKuS/eSeO9vafM9zyWSfp5/4Q/G48VK4hIRkKlDQokhEAAEEEEAAAQQQQAABBBBAAAF7CRRkJc+ZlPVNbuH2hOzi1gxPVpBX03SjRTLrKvRe2hMe8neXOUOX0+W3YQV9UlJS7r73vvbdux55+CHjC5K7LF3LkNwr7eLpMwuHDZfHuJpbmlqbW1qamyWAIs9YnXv+tL//37N79hxcWmv2HT89asR37rjlxh07toZZvpbtjLOnyruB/vXKy4EPi3VWzpfr12oRHz3DypUrJOjzcelHWsRHS5ftdevWTph40oCBeU1NX+uZ2UAAAQQQQAABBwiwZLsDOpEmIIAAAgggEI3AlJOPT88fteaxkmgKMe6rv7XDmBh0O/ycQXfvMjGsoM/l/2/WkUeNuP3m2X6zcrosXTL06JHwwK8fK55wyr/ffP2vz/xZf9uOTB360TXXz/yvK3Jy+j/6uwOrgE06Y+qMH9xS8qcn134R7mwdrQ4SlvreedNkftD774X1ciJtr6rKSr8m7GjcLilb6uv90hsafBEoee+PXzofEUAAAQQQQMDuAhG9yNnujaX+CCCAAAIIIOAqga6DPhNOPPmCCy/581OPr1u7phs0p045RyI+yz4ulciOcQ6OvBT5N7/6Rf/c3DPPnrroX6989eW6vLxBP3n46SXvLXp5wfxID3Rc8Xh5J7S8fGfHjsbw9+1s1pKxnuGXRk4EEEAAAQQQsKkAcR+bdhzVRgABBBBAQDWBWdPP3OD1rQkew/+Ge/K6UZosDSQvgO866HPN9TfKa5gTExOnXTTdeJghQwvl48iRo7T0pR+XVlf5T5yRDMUnni5/v77o1cBIikzM+fcbi+RhrrHHHitBnxnfvzwto2/FN2vPn3aJ7LJ3T9ue5toeiSlp2b7XP0t4SDvQ119/Gfgm6fOmXSR5JHgkf/MfAggggAACCCAQpoA82yU5CfqEyUU2BBBAAAEEEAgtIIv2Wrhur1/dZNHwroM+vZJ7paal/fBH1/rtrH2UZdflj2xXVVUGDfr0y8yWbxu3B5+As73Rl96nT1/5OynJV5mZs26TvwP/y87Oueqa6yV94Uvz/YI+QwuHFRWNlvXgJXIUuCMpCCCAAAIIIIBACIG0/CKCPiF8+AoBBBBAAAEE7CvQddDn+qt/0LNnj8AWjiwaI8tsvfLygn/8/Xn5trW1NTCPpHy19vPTz7308COOWL/ui8AMRx45QhI3fO17O/LTT/7xkZ/8SDayhx4nf7e3Ne2sXZ/Uu0//oaNL/vo3ien89J47JH337t3yt/G/qeeeLx9l7S1jItsIIIAAAggggECXAhLuIeLTpRIZEEAAAQQQQMCmAl0HfTp7efOOnb5JOq2tLdu2bTM2/rIrf+jxDJF3AG3Z4nsd8ofvvXn1rfdf8YMfLf/0k83VVcacRxw5YtrF06WE1as+l/SmnTu3bqnzZejjK3Bv+46GLXXJqW29s3wHkmfB/A7ky+mbJdTnjLPOkQXXP/rgfS2FvxFAAAEEEEAAgfAF5Akv4j7hc5ETAQQQQAABBGwk0HXQJ6LGFHiGyIJcssvXX3/1j7//n2x88+XaJ3734I133Pfkn//y+muvrl/7RcP2bbJi16jRYyVYI4usP/zLB7TwkN+BWlrb/FKCfjzplNN69+4tK7U3NzcFzUAiAggggAACCCAQWiC3eGZ92bzQefgWAQQQQAABBBCwnUCMgz51tTWy2np+fsHyT5bpFi+/9Pym6q1XXXPdeRdcmCB/vv1v+Sdlz/zPU/Lc1rcJB/5/W8P2rQ3bEzp2tTW15/To8PvW+FFiRudPu1hS3lj0qjGdbQQQQAABBBBAIEwBpvmECUU2BBBAAAEEELCdQJCgz2WX+lbC6vK/zz9b/t0zT/PLJi/cuf3m2cnJyfI0lvGrL9asuvWm6+VRrOyc/rK2+ratWxu2bW1ubjbm0beNc3y2N7XUb9kaeCAts6wIdu1VV+o7hr8hy88HLfPN11+TP4HlPP7o7+VPYDopCCCAAAIIIOAAAeI+DuhEmoAAAggggAACgQJBgj6BmSJN8Yv46Lvv3P+f/jHoxq49e1v3HfJgl0z8SUvtzqL0QcsnEQEEEEAAAQQQ0AVYsl2nYAMBBBBAAAEEnCfQ03lNokUIIIAAAggggAACCCCAAAIIIIAAAnGZ6QMrAggggAACCCBgCwEe7LJFN1FJBBBAAAEETBNY89h58TvW27tPqN9XEL/yA0t2XdBnV/ueQIXoU3bsbCn31oQuZ4MhQ0VlbZf5Q5cWq28VqYY0x8Ka0DWxGk6qlaPOiWYcY9YqcaL5+VsIok5N1BmffiamfYzoCS91uCwcvUYErrSBA5WuCTRxUoqF/WtkNJ6GxnTztxUB4VpkftdzxO4JmBzxkUr2mHrGqd2razh7te2obN5alZ4zOKVvWKGsreVL5Z0+zYmDfIX7Vu+qT0zu1Td7SEF+VO/0WfeNN5zaRpMnMzNzypQp0ZTAvgioKTBpwugpE8eqWbegtZI7j5L5bwX9ikQEEOhSYNb0M4d5ovqZ2+Uh1MnQXL2qYsFcqY8EfdLyi2TJdlm4fcD4mYE1fKd0xeIlKwPTSUEAgXAEHHBhufeRZ8NpKXkQUErgF7ddoUJ99FkzI2e/okJ9AutQsXDuutXLvXkX1DR2DKpeWJCVdPZPXg/MFqsU/XoyzDNw1vSzYlVsiHJcMdNnQE5mc+shL4cOIdK9r/r1SZc+696+7IWAygLD7fbrn/y+KoEq+dcelVWpGwLKCrgn4mPsgi6f8NKuhFxYjGhsIxCmQGHBQAdcWLi1CLO7yaaOgJx66lRG/ZosWNE0YGR1774Dl21sq9qedLb6NY6khq4I+mRn9pE/kbBEnPeIw4aaE6WLuGbsgID7BOw1Ncl9/UOLEVBRIHTcR35ldcBvrSq6UycEbCLArYVNOopqItAdgSXlrcbdqhr3bNpUPWRIvjHR1tus3mXr7qPyCCCAAAIIIBCVgDzbpb3TJ6pS2BkBBBBAAAEE7ClQ3RiX1/6qg0HQR52+oCYIIIAAAgggYLZA6Dk+ZteG4yGAAAIIIIAAAjEVsPLxrk9WrPZry97du/d2JOzaWyfpPRL2JnR0JPTctW1nVU3dFr+cIw4flpGR7pfY2UdZsau5+ZApW53l7Ha6t7pe3vLY7d3ZEQFlBew4n1ne5azOkhbK9iwVQyCogB1P+aANiSgxnLgPF5aISMmMgFHAARcWrgDGDmXbFgIOOO9s4WyLSloZ9MnPG1Bd44vvGP/bt8/4ybedmOQ/HUl2DD/iIyWUb9rsX2isP+9obmNdj1ijUp4SAvLiUnu9r4rVu5QYN1TCtgLyxmIXvrymyyXbWb3LtiOaiish4IALCwuDKjGSqEQkAra7h4+kceSNTCBp4XOPRbZHJLnrls7bvwDqjKALoEpJ0y6fbSxPlmzf2dbR3nuAL/HbJdvzBg/Lzso0Zou0zvqiaFKIvHvfWJTJ23pgSJb6svCF6nIJKPceWNtIERC6RhuKanaNyadJDA+nzolmbU30Kw8nmsonmjpX4xieg3YpSmb6yGLt4cz3kRZZezor+GNCHRBra8KV1u98N45Vv6/s/tHCy7VR1doBb6yJhSAylvRTTx0QRWqi/7pn9zOO+kcvYOVMH6n9jAumvvDyooia8cA9cyLKb8wsZ6CF89xkAoJ+VZKIj4U1kX+x1K8CFlZDukYHoWu0gVoy/019xCrSNXp97Lihzok2ecIYC2dPcKL5jV4FTzR1roF+Vu75KP9GFWZjrT2dFRm9at7SWNs1XGn9ziDj3abfV7b+aO3l2qhq7YBX5FokY0k/9bjr084sY9fY+lyj8jEU8H9yKoZFh1PUpRdNlbhPODm1PEVHHyF/ws9PTgQQQAABBBBAAAEEEEAAAQQQQMCdAhYHfSJFnzEtgghRpIWTHwEEEEAAAQTcJiAv9JFnu9zWatqLAAIIIIAAAi4RsD7oE/5kH6b5uGRQ0kwEEEAAAQRME5BX+bRU+y8natrRORACCCCAAAIuEWiuXuWSlqrWTOuDPiIicZ9wXJjmE44SeRBAAAEEEEAgIoEwX+EcUZlkRgABBBBAAAGjQMWCucR9jCCmbSsR9JHWdvlmH8nA23xMGxYcCAEEEEAAAfcIyBNe2qrt7mkyLUUAAQQQQMB8gWYvU2vNV09QJegTerKPhHtCZ7BAjkMigAACCCCAgCMEmOnjiG6kEQgggAACCCAQRECVoI9ULcRkHx7sCtJ1JCGAAAIIIIBAjASI+8QIkmIQQAABBBBAQC0BhYI+MpfnrKP7BPIUDingwa5AFlIQQAABBBBAIHoBHuyK3pASEEAAAQQQ6FKAH7hdEsUpQ1Kcyu1esSMG9uqV1KP90J3vuHHWoQl8QgABBBBAAAEEYiYgS7bXl82LWXEUhAACCCCAAAIBAoXTHgxIc3VCubf23keeNYFAoZk+0toReb3OG9UvJytTb/mIoblM89E12EAAAQQQQACB2ArIg11EfGJLSmkIIIAAAggg0JnApAmjO/sqTulqzfSRRl4wJuOTtszsrMymHXU7ErY9euXYOLWcYhFAAAEEEEAAAQQQQAABBBBAAAHTBKZMHCt/TDucHEitmT5ay7U3OqelpsisHzMtOBYCCCCAAAIIuFBA3jIgT3i5sOE0GQEEEEAAAQQcL6Bi0Edbnf2o4R6Z9eP4DqCBCCCAAAIIIGCtgDzh1VK92to6cHQEEEAAAQQQQCAeAso93qU1Uib7FGYnJKxZFY82UyYCCCCAAAIIIGAUYMl2owbbCCCAAAIIIOAYARVn+giuTPYZdZTHMco0BAEEEEAAAQTUFJBnu1hEVs2uoVYIIIAAAgiYIDB+aIrfUYYMyfdLsfVHRWf6xM+03FsTv8JDl7zBcOiKyloLa2KspyLVkCpZWBO6xjgknLStzolmHGPWCnOi+flbCKJOTdQZn34mpn1Myy8Kf6aPcFkoJsu76izvlK7Qt03ekKurfkTZVqQm1naNDiIbioCo0zVGHAdsK9K/1g54Ra5FxuGkzoBXp2uMPmyHECjISjZ+Oy4gBmT81o7b7gr6yOWpxPuWCv2kTk1K5gNyyIigaw7hSEgoLBjol2Kjj+r05uIlK+WP5XTqgKhTE66Blg9Lyysg4Z4uIz7DPXn6KaxvWF5zRWoip7P8sVxDKgCIXy+o0zV+FbP1R3VUFRnwnHqB41mdrgmsGymdCcyZlPVNbuH2hOzi1gzPoTGgznaxUborgj6TJow2/pOUjbqHqiJguYD8qmN5HSKqwDBPHqd8RGJkRsAoIGeQ8aNLtuXxrtBxH+3C4hINmolAbAXkRsIBFxa5tYgtC6UhEG8B293Dxxuky/KnnHx8ev6oNY+VdJnTdhlcEfSZMnGs7TqGCiOAQLcFOOW7TceOCLhWQJZsry+bF6L5XFhC4PAVAo4X4Arg+C6mgQg4WMAVQR8H9x9NQwABBBBAAIEoBUJP84mycHZHAAEEEEAAAQQsFFB09S4LRTg0AggggAACCLhNgLiP23qc9iKAAAIIIOASAYI+LulomokAAggggAACQQRYsj0ICkkIIIAAAggg4BQBgj5O6UnagQACCCCAAALdEpAl27u1HzshgAACCCCAAAKqC/BOH9V7iPohgAACCCCAQPwE5MEunu2KHy8lI4AAAggggIC1AorO9Nm0qfqdDz6xloajI4AAAggggIAbBOQJLzc0kzYigAACCCCAgAsFVAz6PPvCP/86/+VlayoeXdxQ2dDuwl6hyQgggAACCCBgpoAs2W7m4TgWAggggAACCCBgjoByj3ct2dC6ua1Kb/zSjW0n6R/YQAABBBBAAAEEYi3A412xFqU8BBBAAAEEEFBFQLmZPlXb9xhtKjZVy6NexhS2EUAAAQQQQACB2AoQ94mtJ6UhgAACCCCAgCIC6gV9Gg8J+gjTkCH5imBRDQQQQAABBBBwmABLtjusQ2kOAggggAACCBgFlAv6GCvHNgIIIIAAAggggAACCCCAAAIIIIBA9wSUe6dP95rBXggggAACCCCAQDcEeLCrG2jsggACCCCAAAJ2ESDoY5eeop4IIIAAAgggEBcBbcl2oj9xwaVQBBBAAAEElBfwNrSXvlZa0/jBoOrWgqykkcpXOKIK8nhXRFxkRgABBBBAAAGnCUi4Jy2/yGmtoj0IIIAAAgggEJ7AghVNG72+9aOWbWxbWt4W3k62yUXQxzZdRUURQAABBBBAIE4CLdWr41QyxSKAAAIIIICAygJLyluN1atq3OOwBcQJ+hj7l20EEEAAAQQQcKMAz3a5sddpMwIIIIAAAsEEKiqrgiXbNY2gj117jnojgAACCCCAQPQCLNkevSElIIAAAggggICyAgR9lO0aKoYAAggggAACcRdgjk/ciTkAAggggAACCFgnQNDHOnuOjAACCCCAAAIKCBD3UaATqAICCCCAAAIIxEWAoE9cWCkUAQQQQAABBOwiwBNedukp6okAAggggAACkQoQ9IlUjPwIIIAAAggg4CgBZvo4qjtpDAIIIIAAAggYBAj6GDDYRAABBBBAAAFXChD3cWW302gEEEAAAQScL0DQx/l9TAsRQAABBBBAAAEEEEAAAQQQQMCFAgR9XNjpNBkBBBBAAAEEDgjIC31yi2fCgQACCCCAAAIIOFIgSalWeRva/epTOCTfL4WPCCCAAAIIIIBArAR4sCtWkpSDAAIIIIAAAgoKMNNHwU6hSggggAACCCBgngBxH/OsORICCCCAAAIImCtA0Mdcb46GAAIIIIAAAooJsGS7Yh1CdRBAAAEEEEAgZgIEfWJGSUEIIIAAAgggYEcBZvrYsdeoMwIIIICAvQSaq1fZq8KOqS1BH8d0JQ1BAAEEEEAAgW4KEPfpJhy7IYAAAgggEJ5AxYK5xH3Co4pxLrWCPp6s5MH9Dnm3dP6hH2PceopDAAEEEEAAAXcLyLNd7gag9QgggAACCJgk0OxdbdKROIxBQK2gj1Rs/LAUvXoSAJowLFX/yAYCCCCAAAIIIBBzAZZsjzkpBSKAAAIIIICAIgKHTKtRoU4y2efs2de/X1qW1WNbz08/U6FK1AEBBBBAAAEEnCogD3bxbJdTO5d2IYAAAggggIByM320LjllYvHwofl0DwIIIIAAAggggAACCCCAAAII2F3At1amp8jurbBj/ZWb6WNHROqMAAIIIIAAAvYVkNvQtPyi+rJ59m0CNUcAAQQQQEBxgcJpDypeQ6dWj6CPU3uWdiGAAAIIIIBAWAI83hUWE5kQQAABBBBAwIYCij7eZUNJqowAAggggAACdhUg7mPXnqPeCCCAAAIIRCfgyXT4VBiCPtENEPZGAAEEEEAAATsL+F4xwKrtdu5B6o4AAggggEA0AgVZybJuuF6CbMsrhvWPDtg42DYHNIYmIIAAAggggAACkQrIC32Y6RMpGvkRQAABBBBwjMDFx/b5Jrdwe0J2cWuGrCfumHZpDSHo47AOpTkIIIAAAgggEIGAhHuI+ETgRVYEEEAAAQScKDDl5OPT80eteazEeY3j8S7n9SktQgABBBBAAIEIBHi8KwIssiKAAAIIIICArQQI+tiqu6gsAggggAACCMRBILd4ZhxKpUgEEEAAAQQQQMBiAR7vsrgDODwCCCCAAAIIWCvA413W+nN0BBBAAAEEEIifADN94mdLyQgggAACCCBgDwHiPvboJ2qJAAIIIIAAAhEKEPSJEIzsCCCAAAIIIOAgAZZsd1Bn0hQEEEAAAQQQ8Bcg6OMvwmcEEEAAAQQQcJWALNnuqvbSWAQQQAABBBBwj4CK7/TZtKlaOiBHxaq5Z2DQUgQQQAABBFwhwJLtruhmGokAAggggIBbBZSLrCzZ0Lp5/svSHbt21BY2tZ4+2K09Q7sRQAABBBBAwBQBecKLd/qYIs1BEEAAAQQQQMBsAeUe71q2sU03MG7riWwggAACCCCAAAKxFWDJ9th6UhoCCCCAAAIIKCKg1kwfmebj51LZ0F7ol8RHBBBAAAEEEEAgdgJM84mdJSUhgAACCCCAgFoCys308ePxbt/jl8JHBBBAAAEEEEAgtgLEfWLrSWkIIIAAAgggoIiA6kEfRZioBgIIIIAAAgg4UoAl2x3ZrTQKAQQQQAABBDQBgj6MBAQQQAABBBBAAAEEEEAAAQQQcLWAtoy48wjUeqeP83xpEQIIIIAAAgioLMCDXSr3DnVDAAEEEEDABAFvQ3vpa6U1jR2Dqn1vGR5pwiFNPAQzfUzE5lAIIIAAAgggoKSAPOSlZL2oFAIIIIAAAgjEXWDBiqaN3mo5jCwg7rw1xAn6xH0AcQAEEEAAAQQQUFwgLb9I8RpSPQQQQAABBBCIh8CScv81xB32nJdaQZ+qgLW6PJk8gBaPgU2ZCCCAAAIIIHBQoKV69cEPbCGAAAIIIICAiwUqKquc1Hq1gj5OkqUtCCCAAAIIIGAXAd7sY5eeop4IIIAAAgggEJGAW+bRlHtrInIhs2sFhnnyrG27amPVcpBudIdqht1oQpx2sbw36Zo49WwMi7V8kMSwLWEWpb3Nx0ZBH86jMHvWqmyWn0SqjRDLQWIyElRTjUmjYlKI5f1L13TWj5Z3TWcVI938QeuKoE/J/DfLvbUMLwTCEZg1/UwLL5HvlK5YvGRlOPU0Lc8wz8BZ088y7XAxOVDJ/LdiUo7zCrG2N+UnHF2j/qCy9hoYbx9vdd2S5V/qR8lOqBiUkCDhHv0tzkuWf7Kr3qNnKBjUf+JxI/SPKmwo+GNCBRal6mDtlVYoFLzS/uK2K5Tqo25URkHVbrQiHrsw4OOhGpMyLe+amLTCkYWYfz2xTdCnuXpVYJen54e11oYx4iOjP7Ac01L0mihSDWk4NdF6X++aDd6auAZ9go5kqYM2mCsqD0Yn1eka006QmBzIGDtXx1CdmsQEOUQhQUd44LVaHRBqovWmfg0M0bkO+Gr+vz4ytqJ3x2faR32aT9be2rLqej2Pt7reMyjbkz9AT7F8Q8EfE5xE2qiI90kU5tVVzR+CUqu43lyZfGJaOOaNw8zCagi4XhN9w9gLQYerZAi8HzDuFeW2IiDSCkVqErRrokR25O76cG1trNMbuN0rb/or1j/Gb8Oc0WKPoE/d0nn1ZfOCWo+c/UrQ9KCJYmrhnAXfv3J7D0xAKCwYOGXi2KCVNCHR+O+EFoJIS+995Fmtvep0TVz95ZpSsWBu0EMUXvig3w9CRbomaG3tkqjOiTZ5whgL73f1Ey3eHVexcK7+y7PxWDKNonDag8YUa7vGOP1TkRPNJddA4xiwfPvwjg8P7/jKrxo5+3YUt79UlnyRX7qaHy0cvWre0jj4Stu9O2Frr7TGu001z6Du1cray7VR1doBb/xJ6icZYrgG3u767RvNR3UGvLJdEw2vg/eV386aK32rd+2sXL2z8kBD65b+rfnk4/1+O4s5gmnXE3u8yDndUyS/M2h/jNb6fGxjItsIqCzgN5K1MexLDG/amspNo24IyKLX2gjXKLThLdsshs3YUE3Ak5+b7jlGH6LG6qUNHi3fGlPYRsByAe6ELe8CKhC+gAxXyRx4P+BL4XY3fEdymiWQWzwz8FDpBY4arvaY6SMXiPRpvie5ZKJE8wLfc17GCT6+RO/qAeOD9FZg/5GCgCUC+ijVRrLUYc1j58nfueMvLcw/MANC8qRX/8ucmYSWIHBQpwrow1u/DmtTfiTWY5zg01R14FEapzrQLrsIZO+tKBh09MTjTvIN3f03FXrN5c5PhvHA6rrmyrJtPQv1dDYQsErAd28gt8GH3gnLL8/Gq6t+EbaqkhwXAU1AH4rab2r6NZbhyghRUEAfrvJzP/2jsoSNZcZKDj7BF1vQ8xi/suO26jN9mqpWyS8PIWSlJ2RGVmcPf4XYka8QMFNAG6UyXEMcVPKMStqY2+PbaYUhsvIVAioJSNhdLsIynTtEpeTbnp88OTn59RB5+AoBEwTkqa5xexbnb3ouxLF6e9+RPPKcV4g8fIWACQJy5ZR7g3DuhFuq5fUT/IeAxQLh/FIWzi2xxc3g8O4QCGcohpPHFlqqB31sgUglEQgtoMd6mNQaGopvbSoQzi8b4eSxafOpNgIIIGC5QND3qVleKyrgKgH9dtdVraaxCNhCwB6Pd+kXEfn3ZI01MMUW3FTS5QL6uNUd9CGtp7CBgE0FJKzjN8IDU2zaNKrtSAEZroFXYAatI/vaAY3Sr676oA1McUAzaYIzBAIHp57ijAbSCocJBB2fsnpXc3WKY1pqg6CP/NuF3yP3oi9TrRzTBzTEPQKB41Yeiqk/5AFS92DQUqcJBF6rA1Oc1mbaY1uBzgZnZ+m2bSgVd4JA4LAMTHFCO2mDUwQCb3cDU5zSVtphewFtcGqrdxkbI6t3VdQvNKbYepvHu2zdfVQeAQQQQAABBBBAAAEEEEAAAQQQCC6g+kwfT1aycYUCmXylReOMq3dpqyAFbx+pCKgkEDhuCy98UH/Rj7bgkUr1pS4IRCCgLXuk7aAN5sCUCIojKwLxFNBuLfSbCv1Q2qANTNczsIGA+QKBd8LGFKkPd8LmdwpH7EzAODj1a2ngDXBnu5OOgMkC2uBc+btb/VbvOvLih0ZOLHbMb2dqzfQZP+yQB+fGDT3ko8kjgMMhgAACCCCAAAIIIIAAAggggAAC9hVQK+gj83oCKdPyiwIT9RQJIevbbCCgpoA+lyd09eQRfclQv68gdDa+RUA1gdBXaa22Wp66vf1Vqzz1cZvAth6+a2w4g7ah50C34dBe1QTSPb574NDDVbsTlukVqlWe+iAQQiDMe+MQJfAVAgiEL6Dc411zJmVtPba4sGBwTtLWigWfyc+wAeNnSnvkR5rx6nDgJ1z+KEk0zhgMv+XkRMBMAX2U+o/k/QvSaWNb8pTMfzPBW2tmxTgWAtELyFVafjMxXqK1MvWFkOQryVO7L3P1R/XRH44SEIhGYFvPwmVJk45KOmZAsFJk0ErytoSBb/T6QbDvSUPAVAHjXa7//cP+f/WUDMY8plaOgyFwqIBxKHY2XGUP/Zb40L355AoBv4FhbZv1oSi18mT6R0XWr1l+ysTiwmkPKlXnbov5N6/bBcVwR/GV0pqrt+pl1i2VFY7m6R9lQ38JvN5bxm/ZRkBNAblq6ENXq6G+epfx5T5qVp5aIRBCQG715Fu/a7W+voz2hH/G4GMSEt4KUQhfIWCOgMR9lny6tn7Znw/v+MrviDJo33/8srLki/zS+YiAtQKdXV2lVtwJW9s1HD1QwG+4Sgb97pfb3UAuV6XISFBwDEitmhra/Tqiesnfm787UQus+31lx49qPd7VmaA2uzXwW+ayBpqQggACCKgmEPrZBNVqS31cIqA95xXYWJ7qCjQhxXIB7oQt7wIqEL5AiOGq/RNR+EWR03kCzfufcnBeuxRvkYozfQLJjNMFA78lBQG7CDCS7dJT1LN7AvIMl/ZAbvd2Zy8E4i3gyc/1Vh94xlB7zmvcnsVbe/SVqT2Hd3woE3++Tjzi68STjNXw5Ad9DsyYhW0E4i7A/UPciTlA7AQYrrGzpCQzBGS+ZMMzdyasWDJg5OTefQd6l/geMJp01cMyks04vCnHsEfQxxQKDoIAAggggAACThaYfu5JpZ+u01uYvTetY+ninH07JOIzeNDAhMqv5O9cz9F6Bs+gbH2bDQQQQAABBBBAwI4Crgv6lHtrrOqnDYZDV1TWWlgTo4Ai1ZAqWVgTY9cYcazdthDE2obH8OjqnGhqjrEYUkdalDpdo86JZmFNXDU+Jx43Qh+uzdXtFfs/yByf3EHH11cmDBnkGWDIoOdUc0ORMaPO6eyqkRzOmFSna8KprY3yWHjqGZUY8EYN2VZnwNM1fl2jf5R3s3T29J+ex5KNgqzkwf2SjO/10d4ybEJlzLmeuCvoU+6tLfEq8RpRdWpSMh8QE07n7hxCka4pLLDxosXqnGiLl6yUP90ZBw7dR52uUeREUwfEoSOu62Zp63Z1nU+lHIxev97gSusHwoXFDyQmH9VRZcD7dShd4wei4EdZDEvBWmlVuvjYPt/kFm5PyB5UnTJheKo59TRt0Loi6DNpwmgJ/ZrTcxzF7gJTJo61sAmTJ4x5N+FzCysQeOjhnrzARJVThnnyOOU76yBrQ3h0TWf9olS6dJNS9TGtMrJul2nHiuZA1p7F0dTcPfta20dqXmkdcGHh1qKzU9jaAS+1omuU7ZrOKqZs+pSTj5f3+KypL4l3Dc0ftK4I+lj7a3y8Bw3lO0lA7opmufU3rhj2I6d8DDFjWxRdE1tPSouJgLYSqF2CPpxEMel0ZxfCIIlH/6IaD9WYlEnXxISRQswUMH/QuiLoY2YXciwEEEAAAQQQsKmAPORVt9S3bAf/IYAAAggggEBsBZT9CWuXf/jpdncQ9Ok2HTsigAACCCCAgO0FjLd6sm38aPu20QAEEEAAAQSUEagv459VrOkMVwR95J3YvETdmvHFUe0vYP78w+jNOOWjN6QE1wrY8ZSPSWfJQ14S7pG/0/KLYlJgnAopr9xY7q2KU+EUi0CcBCZPmBinkk0rllPPNGoOFCsBdc47PdaTWzwzVq2LbTkyz9fMf/Ix/1cVVwR9FFneIrZDk9IQMEdAXoI+a/pZ5hwrJkeRyyinfEwkKcSdAvLudge8crUbfSexHrnhk78HjFf0llRr1Ksb3yzvyO9GA9kFAQsFxudPsvuF5Q8fPpuQwKln4SDi0BELNG/MVuQeXg/6KPsTtmLh3Ih9o9jB/F9VXBH0MfaIvCvb+NHkbX3N5mGegRa+615+jZf14bS2KwIilVGkJnSNNjD0sWryORLbw6nTm9bWxNibnGgyxrgGBp5oxkES+K0bUuy4ZDuns9/pzJVWO1X109laEOOV1mHXEAtPPaOqOv1rIYgMLQUHvCJdo/+657AT0GHNMef0UTHos2lTtfRlThyqJmeghRPXZQKCflWSiI+FNXmndIV+FbCwGn6XaQtrok7XlMx/U7+QWQhi7Bq9PnbcUOdEmzxhjIX/yKlfebgGasNYwRNNna6x45kekzqbOa87JhWWQiz8MaHOz03jLQ1XWhkVanZNrMa8CuVYe7lWZ8Ar+JOUuz7tBDF2jQqnDHUIIWDa9SQOkZUQzerqqyUbWpdtbPO0vSwZ8/ol2v7x367ay/cIIIAAAgggYK2AvZZst9aKoyOAAAIIIICA7QR6Klvjjd5qb0O7stWjYggggAACCCCAAAIIIIAAAggggIDKAmoFfWSajxFrafkhH41fsY0AAggggAACCEQvIA922fHZrugbTgkIIIAAAggg4AYBhYI+2qt83IBOGxFAAAEEEEBAKQHtIS+lqkRlEEAAAQQQQACB6AUUCvpE3xhKQAABBBBAAAEEuiEgi7V3Yy92QQABBBBAAAEEFBcg6KN4B1E9BBBAAAEEEIi7gB2XbI87CgdAAAEEEEAAAfsLqLV6l/09aQECCCCAAAII2E+A1/rYr8+oMQIIIIAAAjESkCWkSl8rrWn8wLukYdzQlJExKlaRYpjpo0hHUA0EEEAAAQQQsEBA3ubDC30scOeQCCCAAAIIKCNQ2bBHVg/XqiOrSznsdcMEfZQZaFQEAQQQQAABBBBAAAEEEEAAAQTMFfBbRvy9JWXmHj++R+Pxrvj6UjoCCCCAAAIIqCzAg10q9w51QwABBBBAIN4ClQ3t8T6EteUz08daf46OAAIIIIAAAtYL8ISX9X1ADRBAAAEEEEAgDgIEfeKASpEIIIAAAgggYCsBlmy3VXdRWQQQQAABBBAIV4CgT7hS5EMAAQQQQAABpwqwZLtTe5Z2IYAAAggg4HIBgj4uHwA0HwEEEEAAAQQSeLMPgwABBBBAAAEEHCmgUNCnorLKj3hwJu+Z9iPhIwIIIIAAAgjEUoAl22OpSVkIIIAAAgggoJiA66Iq5d4aq7pgg+HQFZW1FtbEKKBINaRKFtaErjEOCSdtq3OiGceYtcKcaH7+FoKoUxN1xqefCR9DC1g4eo1jhittYDfRNYEmTkqxsH+NjMbT0Jhu/rYiIFyLzO/6SI9YsXBu7vhL0/NHRbqjg/Obc/q4K+hT7q0t8b6lwqBRpyYl8wE5ZETQNYdwJCQUFgz0S7HRR3V6c/GSlfLHcjp1QNSpCddAy4el5RWw74NdjF6/wcOV1g9EnSutX8Vs/VEdVUUGvPQm1yK/Ia1O1/hVzPKP8gO3ecEqqUZu8cwB42daXh/LK2Da9cQVQZ9JE0ZL6NfyTqUCCNhRYLgnz17VHubJ45S3V5dRW6UE5AxSqj6mVUYe8rJF9GfyhDEbCmq4qzFtYHCg6AXkX48ccGHh1iL6kUAJJgvIzwuTjxj+4Vy+eIL51xNXBH2mTBwb/hAkJwII2F2AU97uPUj9ETBfQJZst0XQR355dsDvz+b3L0dEIEoBbi2iBGR3BIwCvik/1atc+5yX+dcThV7kbBwHbCOAAAIIIIAAAqYJuPxfHU1z5kAIIIAAAq4SkOBO0PY2e1cHTScxHgIEfeKhSpkIIIAAAgggYCcBW0zzsRModUUAAQQQQCAhIeh0Hnmkmnf6mDk6CPqYqc2xEEAAAQQQQEAtAZZsV6s/qA0CCCCAgNMF5JFqpzdRrfYp9E6fwoLBatlQGwQQQAABBBBAAAEEEEAAAQQQ6K5ASWnj+to2be/0AYW90rOS161MeM76ZW31Bm3+5rONm5sy6sv2JaU2b2uS9PXP/WPxBx/rGdTfmDju2B9dcUln9VQo6BNYxQnDUwMTSUEAAQQQQAABBGIlwINdsZKkHAQQQAABBAIF+qb03Llrr6TnDBvfnpDQvishYdfOwGwWpjTv2tO+Z1/r7vaEjp6yITVpaW3b3qhWJUP79M/JDJFBoce7hgzJHzc0Ra/ruJGF+jYbCCCAAAIIIIBA/ATkIa/4FU7JCCCAAAIIIICAVQJqzfSRqT3yp895FwhHTtLWigULrXLhuAgggAACCCDgHgG7LNnunh6hpQgggAACCCAQEwG1gj5ak2TKj2w0V2+NSQspBAEEEEAAAQQQCC3Aku2hffgWAQQQQAABBGwqoNDjXTYVpNoIIIAAAgggYHcB3uxj9x6k/ggggAACCCAQVICgT1AWEhFAAAEEEEDAFQIs2e6KbqaRCCCAAAIIuFWAoI9be552I4AAAggggAACCCCAAAIIIGCKQNuOSlOOE/FBeiX6R0XSUg8uMBVxcertoOI7fdRTokYIIIAAAggg4EwBHuxyZr/SKgQQQAABxQSat1ZJjVL6FihWL191eif1MNYqOyvUCujGnLbY9o9p2aLSVBIBBBBAAAEEEIihAEu2xxCTohBAAAEEELCXQE5GUla/1JysTIn+5GQk2qvyXdaWoE+XRGRAAAEEEEAAAYcLyJLtDm8hzUMAAQQQQACBzgVkdo/8kehP7ySnBUmc1p7OO5FvEEAAAQQQQACB4AIs2R7chVQEEEAAAQQQsLkA7/SxeQdSfQQQQAABBBCIWoA3+0RNSAEIIIAAAgiEEkhO7ev3Qp/8wQX5gwdnZ+fU1dVWV1XW1dZ2tn9KSsrAvEFDhhRKhqoqb1Wld9euXZ1lDkzPzskZXDAkLy+vsbGxtmbzpo0V+/btC8wmKXmDCoYMGz589OSdO3fWbK6WWu3evTtoztTUVKl/3qB82ZCcVVWVDdu2Bc1peSJBH8u7gAoggAACCCCAgGUC2tt8CPpY1gEcGAEEEEDAHQJ9847WGzowL+/a628ad8JEPUU2Fr/z77+U/GnLlnpjomyPLBp1x90/yc0doKdXer1PPPb7zz9brqd0tpGenjHj+5ddePGMHj0Ovqp5/bovnnr8j1+uX2vcq1+//lddf+vpZ55tTPRu2vjk448GHmjiSadcfd1sY5UkivTygn+88Lfnd+7cYSxBhW2CPir0AnVAAAEEEEAAAQQQQAABBBBAwPkCWVnZv3v0ycysrHfffqv0ow+2N2zr33/AueddMGnKGcMPO/y2Ode3trbqCiefMunH9/6sra31z089/tWX63omJn1nZNGMmZc99Ovf/fj2OatWfq7nDNxITEy8+yf3HXPs8RLleWXhgtramj59+54w4cQzz576q9/+943XXSUzhrS90tL7/PaPfy7wDH339X+8Mv+Zlh79JVokB5p52ZVyoJ/cc+fyT5bp5Z9x1jk333bX9oaGx/77t19+9eWutjaJYV0w7ZJpF00fcfR37rnz1s4mB+klmLxB0MdkcA6HAAIIIIAAAgoJMMdHoc6gKggggAACLhC46dY7JOLz5GOP/uuVhd82d82HH7x3x933nnralLPOOVemzGjpffr0vW72nPb29jk3XFPp3aQlrvr8s0/Klj762NN33fPTH14xM0SE5dzzpknE58P33/v1Qz/fu/fA81zLPi79av3a2Tff/qNrb7zv3ju1Mi+/6iaJ+Dz7l5InHpwtKTnDxsvfMhVo2dIljz1Vcvud91w+86KOjg5JzOjT5/obb2ncvv3G62Zt+/Z5Lqnbp2XLbphzy9Tvni+hqzdff00rVpG/eZGzIh1BNRBAAAEEEEDAMgGWbLeMngMjgAACCLhJoG/ffsXjTpDns1579WVju+XxqIUv+mI9Mr9GT598+pn9MjMlBqRHfLSvvvnqy88+/SQrO2fAwDw9c+DGlDPPksQ/PfWYHvHR8rz97zclkFRUVKQ/83XM+JPlK78qSYq800fmIkkd5N092r5Dhxb26tXrrTcX6REfLV3+fvmlF+XvUaPH6imKbCg308fb0L61tOyUicWKAFENBBBAAAEEEHC8gCzZzpQfx/cyDUQAAQQQsFxAoicyg+ajD98PfJXyzh2NUr1evXvrlRw2/DDZ/rRsqZ6ib8g7lo9NKM4bNMgvHqRnSEtLa9+9+6MP/rN1yxY9UduQiI+8eUce4EpOTtYmCu3d0yH1SUoMEh5JSkyUvfbu3avtq20kJQXJ2bOnb0qNnlPLH/i3PN029tjj5N3Pa79YM2rMMccdX9yvX+bqVZ+v/HxFfZ3vVdbp6emSLnOUJLokVu+9+7bxebfAArtMCVLXLveJX4YXl++satzjSS37T2nZBScexjSk+FFTMgIIIIAAAgjoAizZrlOwgQACCCCAQPwEJIpx603XBy1/+OFHSPrSJR/p38pLeSrKN9Rs3qyn6BvDhw+X7dpgX2l5Wlpabptzg57fuCGLecmSYfLYl/5oWOl/Xj92wuSTTjntm8/eMOaUeUnyzubaGt/yXFr6hm++lhcMyfuen//rM21tbcbMk6ecKR/Lln5sTAzclmXIbr9r7ttvvXHsccXfv/z/NTU1SXxKXjMkGzfPvmZHY+MDv3z4yKOOlrCUHF3SL7xkxj133qbFgwJLCydFobjK+6VlEvHRK/3eR2X6NhsIIIAAAggggED8BJjmEz9bSkYAAQQQQKBLAZnUc831N8q7cj4pO/jK5EcefuiGa35YX1/nt/vQwmEjvlMkURKJxvh91eXH7OzsW++4W+bjyCNaeuZ/v7Zg08ZyWefrhBNP1RNz+ve/4aZb5ONzfy3RE2Wp+Of+8kxGRp9Z11wnQRktvWfPHieefOrU752/ft3aFZ99qmcOsXHyqZPk4bXZ186aceG5F59/ztNP/DEjI+P+h3593wMPyfLvl1583syLz7/0ovPeemNRfn7B1dcGj16FKN/4lUIzfSq81caa1e5o97a2jxhsTGMbAQQQQAABBBCIpQBLtsdSk7IQQAABBBCIROCW23+cnpGRnz9Y4jgy9Ube7rx9e0PoAiQ4cttd98izVE/+8b/lQa3QmfVvL7jwkqO/MzJ3wEBZIEwW7ZJoy8aKcv3b2prqG6+54sZb5/73X95obW2u2exb56t//9z6uro5N1xdvuEbPadsyDuGvv5q/b33/eKcqedJhpaW5vzBBfIo1kv/+Pv/Pfu/EhUyZu5sW/Lf/7O5Wh1kl1defkledXTs8b633MhiYdocIpns8/QTfygeN15mG0mrJcjVWWmh0xWa6RO6onyLAAIIIIAAAggggAACCCCAAAKOERhcIP95BuX75nq07zn43E9nDZTF0X/120cPO+yI/7z3znuL3+4sW2C6PNLlGTJ0cIFH3uMjoSL9Fc56zrPO/q6EXeRjS9OO5qam1pYWydY/N/fS718uL3LWs8mGRI5mzLxcVhaTDBLxaWn2ZZb0U06bLPEZY84Q2/KYmzHqJDlXrlwhf39c+pHxqTHZXrduraSHfmV1iAPJVwrN9NnoPfCYXOga8y0CCCCAAAIIIBArAR7sipUk5SCAAAIIIBCpwO03+5ZIlxBM0egxN91y+1Mlz/7ivrmrV60MWs6EE0++7Y67U9PSFr40/y8lfwqap7PEZ/78lPyRbyXuc+31N8lC7H968jGZX6Plv/Lqm6+7+cfr1q658fLTv1y3RluyXd70fMGFF8trd2QW0i03XadFdiQA9Ps/PNG3X+afn3r8jUWv6gGaEUePvPHm2358788Sf5kYTjSqqrLSr6o7GrdLypb6er/0hoatkiLv/fFLD/+jKjN9Vq/9Sv58uqn53fU7X1i4aPEHS9du8H66KayZUeG3lpwIIIAAAggggECgAEu2B5qQggACCCCAgDkCsnLWqs9XPPCze/v06TPntjsDp+GkpqZee8Oce3/2wJ6Ojp//9O7/efqJPWFMCwpaeXm261cP3ldXW/uja28YMHCg5Omfmzdrzn1bdIB1/QAAQABJREFU6mvvu/duifjoezU3N/3fc395cf48mSJ09jnnaumXzPi+LBUvESN5yEuP+MhXEjD62dy7JDB07eybJFqkF9LZRkdHR9CvAhc1C5otokTrgz4S6/nJQ4/KnzXrvmpsPbAQWt2Wreu/9r65dueLH/sHwCJqHpkRQAABBBBAAIEuBWTJ9i7zkAEBBBBAAAEEohSQV+qMHntMRp8+geVs2lhRXV0p7y3Oys42fisvVP7N7x/73vnT1q/74oarf7Ds4yXGbzvblgfB5EDyd2CG5ubmsmUfy1uBDj/iKPm2aMwxvXr1fu1fry7/fGX19vadbYeEY2SZLclTPN735JdvY9wE+TvoXJ4tW+o/KVsqj30NGTp0f15V/rI46PP3lxZJuEfiPgk9EjMzcwqGjzlyzGlDCg8fMDC/b9YAQXp9eeW0y2dLNlXAqAcCCCCAAAIIOE6AJdsd16U0CAEEEEBARYFTJ0355cO/P+aY44NWrn2378XMezsOzAWRbXmBzm9+90dZ20vWsbrnzlu3bt0SdMfAxALPEDnQxTNmBn4lKe3tu+VvbbpN376+V/bU1tZoOXe27W1pbdO25e/mpp3yt75QV7/MfrLyV0tzs57BuNHQ4HsLtbya2pho+baVQR8J5bzwsi+a07Gv566OHn0zs9L6ZGkiKalpmdm5GUNPTEzLlRTJRtzH8rFCBRBAAAEEEHCqAG/2cWrP0i4EEEAAAaUEVu1/XbE+ccZYN5ngM2RoYcO2rfoCXrIU+q13/Hhg3qAX5j3/6O8eNj5OZdwx6PbXX66X9OOOG5eSkuKXITEx8ZhjfVEn7VXK33y9TrbHjD1Wz7atwfd6He2/wuGHycZX+0vzbaxfL1OE5MVAB742/J88lSYLhEmCd9NGQ7L1m1YGffSIz559vmqMHDny17/+9dv7/5ONmTN9MbmkjDwJCcmGZPZNCOI/BBBAAAEEEEAgdgLyNh9e6BM7TkpCAAEEEEAglMDaNWtqNldPOeOsk0+ZZMwn78GR9yBL3OSf375cWb49ddLpo8ccI499zZ/3vDFz4LbMxLn9rrnXXH9TUtKBtaoaGxtlhS8JGP3gqmslyqPvItuyIFfhsOGfLf+krnazpK/9Yl3lpoqzzp565pln69m0jczMrOtmz5Htjz78j5bywfuLZUPe2Rz44p7vfu+CI4486puvvqyvq9UyK/L3ARHza6PN3JGAjhbxkSjPcccdp1dDtrWP8+bN0zIk9tgrL3guOtonzn8IIIAAAggggAACCCCAAAIIIGAvAXk78gP33fvfjz0tC11N/viMsmVLZX30Ao/nnO9+T16Q/PmK5QtfnK+36JRTfYGhpOSkuT99QE80brz4j3mff7ZcUk6YeOKkKWfIxvvvvbv2i9Vanif+8PvDDj/q3PMuKBo1Wl7NIwtjyZubTzrltCOPGrG9oeF3v/nl3r37JGfbruZrfjDjlbdKH3viqe+de/a7by1qaGofNnRo4fDhsnpXamraKy8v+GTZUq3Mf7/5uqzsPvGkU/78v8+/vPBFmdTT1taalzdI1muX+FRra8tDv7hPK1bLr8Lf1gR99Ae7tICOTOrRQjx+IrNmzRo7duxdd90l2RJ79pCZPvKn6Ogj/LLxEQEEEEAAAQQQ6J4AD3Z1z429EEAAAQQQ6J5ARfmGOfJC5quukeCJ/NEKaWpqevwPv//3m4uMy3IdfuQI+VZe7Sx/gh5r8bv/1tJXrfy8vr5OXrUj04L0nFLmj2+76ZJL/0viPlddc72WLstj/XPhS/Oe/+vOnTv0nKtWfnr6aSfecvuPzzv/grOmXqCnV3q9z/zPg8s+LtVTZPdfP3S/hHiu/OGPrvzBVXq6vOjn1X8ufGHecw3btumJimz02FWzKn5VqVs6r75sXm7xzAHjD3l/khb00ab5SMRHgjsh6jBnzpw1a9Yk9dgrk31mXDD10oumhsjMVwgggAACCCCAQDgCzdWrKhbM1XLKE14S/Qm8YwmnHPIggAACCCCAQGcC9/1w0rtfNsm3OcPG++WRZ7JyBwyQqTTyEuVtW7d0toq5316dfZQHu6SEoEuey4rvOf1zZSaRHGXrlnq/dwNtqVqzua4hJSM3IbF3Qtv2vPz8I4vGpaUkb6mvk2fEOjucPIkmD39JsampKfV1dfIeIr9iO9sxHulXXHr+tO/6JjoF/c+amT5r1vvezrN3Xw/5W+byBK2ZnnjFFVfIZB/JnNgjQdtR/4oNBBBAAAEEEEAgegFZsp0pP9EzUgICCCCAAALhC+zY0Sh/ws8fOqdxipBfztbW1krvJvnjlx74sW1XU0X5l40tewvy8wK/NaZIdKmhYZv8MSaque17R7L5/2mvZN6b4Av6BH2wy1glLYOWmXc5G2XYRgABBBBAAIGYCLBke0wYKQQBBBBAAAEEVBOwJuijmgL1QQABBBBAAAE3CzDNx829T9sRQAABBBBwsIA1QR/tZcw9E3zvyv70009D+2oZtMy8xTm0Fd8igAACCCCAQEQCLNkeEReZEUAAAQQQQMBeAtYEfUYe5VuBq2cPX9Dn2WefDU22YsUKPbO2Y+j8fIsAAggggAACCCCAAAIIIIAAAgggYE3Qp+g7vqCPrMIuf8vKXCEm+5SUlMybN8+XucdeegsBBBBAAAEEEIitgDzYxbNdsSWlNAQQQAABBGwk0CvRPyrS2tZmo/p3WVX/5nW5Q0wyyFNavge19nXIQuxSoCzOJcGdwJIlGKRFfLRsrNceSEQKAggggAACCEQvIA95RV8IJSCAAAIIIIAAAqoJWLNkuyjMmDZ19dpHtfk7e/b11II7sny7tlaXhHvksS+ZBCQ5JeKjZbv0oqmq8VEfBBBAAAEEEHCAAEu2O6ATaQICCCCAAAIIBApYFvSRmT4yc+eFlxcZ4z5a6MdYyz1NNb379pcUyWxMZxsBBBBAAAEEEIiVAEu2x0qSchBAAAEEEEBAKQHLgj6ioM3c0eI+Evqp37YzKTEhrU+WfNXW2tLW2tx7d01Pef6sb38e7FJq0FAZBBBAAAEEHCbAa30c1qE0BwEEEEAAgaACn6xY7Z/e3tTS2pHQ0rBP1prq6JBv97XUNe5o8s+WkDDi8GEZGemB6YqnWBn0ERqJ+8ifv7+0aH/op6Nyg68DUvoVyN9ZGT07du04cnjBjXfPYaV2xYcR1UMAAQQQQMCmAtrbfAj62LT7qDYCCCCAAAIRCeTnDaiuqYtoFy2z7GjHiI9U3uKgj8anTfnZsm3b//7pi8ZW36udDx829IjBaSck7z7uuO8Uyiuf+Q8BBBBAAAEEEEAAAQQQQAABBGwlcPzQlDOO9s2OGXnNLxWp+GXX3GGsSVPdl96abSkZmft69N61s0q+6t0nd/gwjzGPbD//9G/8UtT5uH37jhCVUSLoI/XT4j6Tds1fsqH1zJv/NGRIfnP1qooFc0NUna8QQAABBBBAAIEoBZjjEyUguyOAAAIIIBBCYFhOsvZtZt8+IbKZ+dVlF58nTxrpR0zs2aNHjwT5X49E34b81zOxR3LSIaGSB+6Zo0799ZrrG6HrZs2S7XrlAjcmDE+ViE9gOikIIIAAAggggECcBFiyPU6wFIsAAggggIBqAjLjJKJ1ouRtM7Z+4YxyQR/VBgT1QQABBBBAAAHHC8iS7Y5vIw1EAAEEEEAAgW4IzJhm75XECfp0o9PZBQEEEEAAAQQcJcCS7Y7qThqDAAIIIIBASIHwJ/vYfZqPMBD0CTkW+BIBBBBAAAEEXCDAm31c0Mk0EQEEEEAAgYMC2muFtc+9k/a/y+fbL3OyMr/dTLD7NB9pCEEfvTfZQAABBBBAAAHXCcjbfHihj+t6nQYjgAACCCCQkKC/2ScjJXhgRDLY+m0+WicHbxsDAAEEEEAAAQQQQAABBBBAAAEEEHCqgD7Zp3dSz6x+qTLBR6b85GQkZu+f6SPhHj2DrQUI+ti6+6g8AggggAACCEQlIA928WxXVILsjAACCCCAgG0F9Mk+EuiRPzkZSRIA0lrjgAe7tIYQ9LHt8KTiCCCAAAIIIBALAZ7wioUiZSCAAAIIIBBKoG7pvFBfW/SdzOU559iCwIM74P3NeqMI+ugUbCCAAAIIIICAGwVkpg9Ltrux42kzAggggICJAvVl89SM+xw9uE8gg2Om+UjTCPoE9i8pCCCAAAIIIOAuAZZsd1d/01oEEEAAAQS+FRjp6XfW0YfEfZw0zUdamfRtSx3+/+XeGoe3kOYhEB+BYZ68+BQcx1I53+OIS9GOFrDj+R6rDrHRa324xMWq0ynHHAHHXFg49cwZMBwlVgKOOfViBRK6nAvGZCz78GCWB+6Zc/BDHLZMvp64IuhTMv/Ncm9tHDqLIhFwvsAwz8BZ08+yVztL5r9lrwpTWwTUEZg1/Uy33SZq67XbJejzTumKxUtWqjNgqAkC4Qj84rYrwsmmcp57H3lW5epRNwQCBex4Dx/YCjNTzj994qv/WS1H9Jv1E/M6mH89cUXQxxjxkdEf824Lv0C9JopUQ2pOTbTuo2v8hrEO4peu/kdj4Jzh7Te85aMiJopUQx0QpWqiDRv+VlOgovLgP2Ipch4pUg2lTiJFTBSphnSN/Gh2UjTZQljj7ZmF1djfp1yLDvkpoWDXGKt0SF2t+5BbPHPA+JnWHb+LI8+YeqIEfQ7LTZFZP11kjd3X5pzIygV9vA3tW0vLTplYHDvJgyWJqYVzFuQHXon3wASEwoKBUyaOPVgzc7eM/05oIYg0Wg9z0jXaEDDOSlOka8wdmzE+mjon2uQJYyy83+VE8xtYCp5o6lwD/azc8NEuc3wC+8LCHxNq3tJwpZVBombXBI5e+6ZYe7k23sNbO+AV/EnKXZ92Whm7RrUTTeWIj2Yly7cnf/a1aW6mXU/UCvos2dC6bGObJ7XsP6VlYzyph5nmzYEQQAABBBBAwMUC8pCXfaM/Lu43mo4AAggggEDMBGT59jWbn4pZccoUpNDqXe+XlknER5dZtqZC32YDAQQQQAABBBCInwBLtsfPlpIRQAABBBBAwEIBhYI+gQryqFdgIikIIIAAAggggEBsBViyPbaelIYAAggggAACiggoFPSp8FYrgkI1EEAAAQQQQMBVAjzb5aruprEIIIAAAgi4R0ChoI970GkpAggggAACCCgiIG/z0VZtV6Q+VAMBBBBAAAEEEIihgEJBn0JPvl/DKhv2+KXwEQEEEEAAAQQQQAABBBBAAAEEEEAgHAG1Vu8Kp8bkQQABBBBAAAEEYiXAg12xkqQcBBBAAAEE7Cvwt9dKaxo/8C5pGDc0ZaR9mxGs5grN9AlWPdIQQAABBBBAAIH4CvCEV3x9KR0BBBBAAAG1BZZsaN347SuGZUnxTZsc9bphgj5qjz5qhwACCCCAAAJxFpDJPizZHmdjikcAAQQQQEBdAQn0GCv33pIy40e7bxP0sXsPUn8EEEAAAQQQiFaAJdujFWR/BBBAAAEEnCKw0VvllKb42kHQx0m9SVsQQAABBBBAoDsCvNmnO2rsgwACCCCAAALKCxD0Ub6LqCACCCCAAAIIxE2AF/rEjZaCEUAAAQQQQMB6AYI+1vcBNUAAAQQQQAABBBBAAAEEEEAAAQRiLsCS7TEnpUAEEEAAAQQQsI0AD3bZpquoKAIIIIAAAghELsBMn8jN2AMBBBBAAAEEHCTAE14O6kyaggACCCCAAAKHCDDT5xAOPiCAAAIIIICA2wRksk9u8UzbTfkp99ZY1VMbDIeuqKy1sCZGAWOtjOnmb1sIYkRQp2vM74K4HtHC/jW2y9jXxnTztxUBUWfAq9M15g8GjhipgDmnj7uCPuXe2nsfeTbSnohH/sVLVsqfeJQcaZmKgNA1gR2nSNcEVsxGKeqcaCXz31LBjRMtsBcUOdHU6ZpAIpek2HHJdnUuLCVeJS5xilzz5XRWBESdmjjpMqKOqiIDXjqXa5HfCFena/wqxkfVBEy7nrgi6DNpwmg591TrY+qDgC0EJk8YY4t66pUc5snjlNc12EAgIoFhnoFyBkW0i2My22WaT2HBQMeY0xD3CDjgwiK3FjKRxD1dRksdIMDPC2U70fzriSuCPlMmjpU/yvY6FUMAgdgKcMrH1pPSEHC2gLzQRxpol6AP9zPOHo20TlkBTj1lu4aK2UiguXpVer7vZ67L/zP/euKKoI/LRxXNRwABBBBAAAEEEEAAAQQQQMBCgYoFc+UfWtLyiwaMn2lhNVx4aII+Lux0mowAAggggAACBwTsMseHDkMAAQQQQMDuAvIzV/7Ie/QKpz1o97bYqP6uCPrIO7F5ibqNBiVVVUrA/PmH0TefUz56Q0pwrYAdT/noOyucJ7y4sETvTAnuFBjuyXPAO324Arhz9Nq61e78gW6LLjP/eqJQ0KewYHCcOkmRV8rHqXUUi0BcBeS1hbOmnxXXQ8S8cE75mJNSoHsEnPHrWaT9Jf/qGHrJ9ndKV7AiRKSq5EdAE5BzZ9b0M+0e9+HWgvFsOwFF7uHlPT6BdPJjt27pPNc+5GX+9UShoM+QIfl+A6IgK/bVk3dl+x3FzI/6LaOskGLhC9XlEiDrw2kNVwREKqNITegabWDoY9XMEyQmx5LYuV6OOr1pbU2MvcmJJsODa6B+jugbxkGiJ7pqI/wl2609nRUcveqAWFsT40nElVauHsax6rCLiYX9a1S1dsAba2IhiAwt/dRTB0SRmui/7ll7Anb25uZ0T5G1FVPk6OacPrGPqkTDN25oyrKNbVoJ40YWeuo/i6a0wH3lDLRwnpv8LqpflSTiY2FN5F8s9auAhdWQDtJB6BptuJbMf1Mft4p0jV4fO26oc6LJyvcW/iMnJ5rf6FXwRFPnGuhn5Z6P8q+OYTbW2tNZkdGr5i2NtV3DldbvDDLebfp9ZeuP1l6ujarWDnhFrkUylvRTj7s+7cwydo2y55rMru0sGGR+nSsWzg3/HiC21TPteqJW0GfC8FT5s/XYYnnUKydpa8WChbFlpTQEEEAAAQQQQMAoEM4LfYz52UYAAQQQQACB7gloP3PVmeYjT59ZFfHpHmD39lIr6KO14ZSJxbLRXL21e01iLwQQQAABBBBAAAEEEEAAAQQQUEfAN8HHU6TOHB8/me07mtt21PX0S3XERxWDPo6ApREIIIAAAgggYAMBN/wTnw26gSoigAACCDhdQPE3N2+qqm1LaCl0Yi84MpLlxI6iTQgggAACCCAQHwHfvz0OHhWfsikVAQQQQAABBGwgkNk3Y8jgATaoaORVJOgTuRl7IIAAAggggIBTBCTcI//2mJbPMiJO6VHagQACCCCAQIQCg/slScRnaMGBoM+p+184E2EZ6mYn6KNu31AzBBBAAAEEEEAAAQQQQAABBBCIq8D4YSlxLd/awnmnj7X+HB0BBBBAAAEEEEAAAQQQQAABBCwT8GQlzzhuYsO+7MVf/EMCQNrSUpbVJtYHJugTa1HKQwABBBBAAAEEEEAAAQQQQAAB+wgMH5ovK4vlLO9jnyqHW1Me7wpXinwIIIAAAggggAACCCCAAAIIIICAjQQI+tios6gqAggggAACCCCAAAIIIIAAAgggEK4AQZ9wpciHAAIIIIAAAggggAACCCCAAAII2EiAoI+NOouqIoAAAggggAACCCCAAAIIIIAAAuEKEPQJV4p8CCCAAAIIIIAAAggggMD/Z+8+4KMo0weOh5ICgVBCEkgjCChKwIKARAXsHQQUwVNP5ez1xHIKnnqKd+p5np6elfPO/92h6IFib4BUIdKr0kI2CSmEQEijBP7P8sIwzJbsJltmZn/55AOz777zzvt+Z3Yz++xbEEAAgUYIlC6a0oi92KXpAgR9mm5ICQgggAACCCCAAAIIIIAAAggg4FGgLHcKcR+POsF8woxBn/z8ojkLcoPZaspGAAEEEEAAAQQQQAABBBBAAAEEbC7Q0lTtW7i5tnDn/uZ1H0utvvmqZGxy4Gu3xVEc+EJ9K3Gz7tB5BSVhrIm+viaphlQpjDXh1OgvCTttm+eFpr/GwivMC83gH0YQ89TEPNenwcScD83DFcarV4/AO63rhcqpcTWxU0oYz6+eUf8y1KeHftskILwXhf7U2+yI1Y7V8hviRoXm5dNsT/Gq4DVMum9JJ66k/mOTB4715SjvPHDB4q11GYOcmfdUlmRVLTj/7AFZIyb5sq+XPBNffM/LszyFAAJeBM4Z1Pe8nFO8ZDDbU/LWOXnqN2arFfVBwCoC40Zf2C2js1Vq28R6Vhetyps2IT6tj9xpeL9j4Y2lidTsHuECNnhj4dNEhF/DFm3+M+NvMEPN17w6TKuG75EBbZegbqg7AddD9L57hmtioFJC/35irp4+EvHRU0qvH/3DRm/Lp1YJ/TZ6d3ZEIJIFjrPaxz/5vMpLPpKvWNreRIHIifj4C8Ubi79i5EdACWSlp9jgjYV3AK5nywmcO+hks9U5a+Sk+NQ+ZqtV6OsT+vcTcwV9DOKFuwIT9LFWPwUDAg8RQMBfAV7y/oqRHwEEvAvIR1YbfGr13kaeRQABLwLcWnjB4SkEfBQg4qOgQv9+YsaJnH28aMiGAAIIIIAAAggggAACCCCAAAIIIOBJgKCPJxnSEUAAAQQQQAABBBBAAAEEEEAAAQsLmHp4l4VdqToCCCCAAAIIIIAAAggggAACCFhBQK0kLjPMDOga19sKFfa9jvT08d2KnAgggAACCCCAAAIIIIAAAgggYCsBifjIolJqTmHZeO+DT+zUPII+djqbtAUBBBBAAAEEEEAAAQQQQAABBBovsNVR2PidzbcnQR/znRNqhAACCCCAAAIIIIAAAggggAACIRGQ3j0hOU54DkLQJzzuHBUBBBBAAAEEEEAAAQQQQAABBBAIqgBBn6DyUjgCCCCAAAIIIIAAAggggAACCJhXIK2dcYWr/Pwi81bXz5oZ2+bn7mRHAAEEEEAAAQQQQAABBBBAAAEEzCuQN32C75UrXTMz/7u8Ax2iDbu0Ts2Oz8iOT+1jSDf5Q4I+Jj9BVA8BBBBAAAEEEEAAAQQQQAABBBopUF20qrpwle8776ksqSqsrq4xBn0OFTKWoI/vkuREAAEEEEAAAQQQQAABBBBAAAEEgiggYZqk/mPLcqfIMeLT+iQNHKMOVu1YrRINx07ufW7a+TlZXVMN2aSQ5IFjDZnN/5CePuY/R9QQAQQQQAABBBBAAAEEEEAAAQQaKaCCNRLikd46rR3ZWuymLNdNgbEJKe3S+sSnOoM+0ktIBYYsGvGRJjCRs5tzTBICCCCAAAIIIIAAAggggAACCNhGQAI9EriR5kgQp3SRs9dPgz8S8cmb5pwMyLoRH6k8PX0aPNFkQAABBBBAAAEEEEAAAQQQQAABawto/X1U5x2ZldlLe+wR8ZEGmivoIyulFe7ar3cvqNiXpX/MNgIIIIAAAggggAACCCCAAAIIIOC/gD7uU1PkcR2uXYWrdi95TYq3dB8fxcPwLv8vE/ZAAAEEEEAAAQQQQAABBBBAAAELCmjjvDwt6SWrdxV+91dpmQ0iPtIKgj4WvEipMgIIIIAAAggggAACCCCAAAIINEpAi/u43bt0zUxJt0fERxpC0MftWSYRAQQQQAABBBBAAAEEEEAAAQTsKeA97pM8wJKrs7s9VQR93LKQiAACCCCAAAIIIIAAAggggAACthXwNJFz2/TsTieeb5tmmyvoM7BbnF52QNe49A7R+hS2EUAAAQQQQAABBBBAAAEEEEAAgSAJtM/wOMFzkI4Y1GLNFfTJ6BAtC3gFtcEUjgACCCCAAAIIIIAAAggggAACCESCgOkiLFed1rb8tP5Z6WmJLcvzpi2LhHNAGxFAAAEEEEAAAQQQQAABBBBAIFwCsQkpMQlJuwtWh6sCwTuuuXr6qHYOzumfmZkavDZTMgIIIIAAAggggAACCCCAAAIIIKAE2mX0ttmoLu3MmjHoo1WODQQQQAABBBBAAAEEEEAAAQQQQACBxgkQ9GmcG3shgAACCCCAAAIIIIAAAggggAACphYg6GPq00PlEEAAAQQQQAABBBBAAAEEEEAglAJ2mnCGoE8orxyOhQACCCCAAAIIIIAAAggggAACJhIY2C1OX5shOf31D62+bbrVu6wOSv0RQAABBBBAAAEEEEAAAQQQQMAqAhkdoh8dedWSvLpZaz+UAJAsLWWVmvtST4I+viiRBwEEEEAAAQQQQAABBBBAAAEEbCsgsZ7EpW3t1zyGd9nvnNIiBBBAAAEEEEAAAQQQQAABBBBAIIqgDxcBAggggAACCCCAAAIIIIAAAgggYEMBgj42PKk0CQEEEEAAAQQQQAABBBBAAAEEECDowzWAAAIIIIAAAggggAACCCCAAAII2FCAoI8NTypNQgABBBBAAAEEEEAAAQQQQAABBAj6cA0ggAACCCCAAAIIIIAAAggggAACNhQw45Lt+flFIp1oxqrZ8AqgSQgggAACCCCAAAIIIIAAAgggYEuBlneMfzJ4Dasq21BVUtZm8Wdtpv7sy1GKV5eVV+/fO+N+Z+b9NTF7S7qk7O8470nnQ3P/xMTEvPzHx8xdR2qHAAIIIIAAAggggAACCCCAAAIRJNCyuHR78JpbV1ldXb2/bld11UGfjiIRn6Kd++IO1jirVL+nrmpfdKs9e4NZw0C1vWf3roEqinIQQAABBBBAAAEEEEAAAQQQsJNA6aIp8RnZ8al97NQoS7TFXHP67K6rN6jtrT9gSOEhAggggAACCCCAAAIIIIAAAghYSKAsd0q1Y7WFKmybqpor6OPKunffQddEUhBAAAEEEEAAAQQQQAABBBBAAAEEvAuYPejjvfY8iwACCCCAAAIIIIAAAggggAACCCDgVoCgj1sWEhFAAAEEEEAAAQQQQAABBBBAAAFrC7AuurXPH7VHAAEEEEAAAQQQQAABBBBAwOQCWSMnmXkW581bi5bN3TxvVsWArnFt84syM1NN7ul79ejp47sVORFAAAEEEEAAAQQQQAABBBBAwG8BM0d8HBX7PvhywVZHobRq8da62Qtz/W6eiXcg6GPik0PVEEAAAQQQQAABBBBAAAEEEEAgmAIFFfv1xUv0Jz+/SJ9i6W2CPpY+fVQeAQQQQAABBBBAAAEEEEAAAQQaL1C485igT+MLMuWeBH1MeVqoFAIIIIAAAggggAACCCCAAAIIINA0AYI+TfNjbwQQQAABBBBAAAEEEEAAAQQQQMCUAm5W72rTtm2ruFbl5WUHDhyUOrdr1y4mJtZL5Wvraqt27/aUoU2bhE6dusS1S3aboaamprq6yvBUQkK747p1z8xMq9tdXlFetudAy9raWkMe7WGHjh3TM7p27ty5tLSkwJFfvn279hQbCCCAAAIIIIAAAggggAACCCCAQMQKGIM+2X36Pv7Us23atBk94rLq6mpxufWue4cOPc8L0NQp//nXu297ynDtzXfdfM/vPT375t//NuPj/2nPNm8RPfZXv3rsqRck0qQlbt9e9u7bb86e9Z2Wojbi4+NvuOmWy4ddqaUfPHjwk+kfTfnPe16CUFpmNhBAAAEEEEAAgfyirYs/m3fcfkcrLBBAAAEEEEAgUgXyC0vrimrb27H5R4M+rVq1Ou+Ci2+7857mzY8Z87V6xfL9e/e5bXv3Hj27Hde9usYZG/L0k5TiXN/+i2n/qnXJFt2m85Ytm/Q73nnP+DvG/6GkpPilv/x5w89rm+2vOWPQ2b+567cPPTpRAjo/zP5eyxwXF/fCS692zeqWu3jxt19/XlpSkpycMmzkqCtHXi1VevzRh+rr67XMbCCAAAIIIIAAAp4EHEVlsfUlPTw9TToCCCCAAAII2F1gZ2VVXVQzOwd9Ro+9bsSoq2Vc1YJ5c/qcfGrbtm21c/rl55/Kr/ZQv/HCX16Rh3N/mKlP1LbrKguqyws7JTuDPs/9/oE9e2q0p9RGh/QTm0cnaIk9ep5w+wNPFeTnjRw5YufOiqj6PXVVZcuWLl6/YdPLr7113/iHf1w4b8+ePSr/ZcOulIjPN1998erLL6r4zoZf1i+YP2fCE08PyjnrvAsukqe0ktlAAAEEEEAAAQTcCmSmdu028MySxRuiCja4zUAiAggggAACCNheIDMtpVW7zrtWr7JfSw/39Bl19Rhpmwy2+vSTaf835SNf2ikxl5Oy+/6Uu7ikuNiQ/8C+yoqCdSqxU0rq7l0VrhEfwy7y8OwhQ5s1azbpyUecER/dz5bNm5YtXXJ6/wGdu6Ruzdsiz0RHR//q+pskAPTeu+/oe/RIbyAZayZBn1NO60fQR0fIJgIIIIAAAgh4FMhITY7tklFW4DEDTyCAAAIIIICAvQXaJ8THtm2961AjS9fMzP8u70CHaHs0+XDQ57WX//JT7o8yrbLvrbr08uGS+bMZ0wy7VBav21dbqSUmdU4vLXZEtzrco0f/VFV5YVSU/B7+iY89uGb5oh8XzI+KOlyrI89EVewol+3o6BiVkpjYKTY2du3qlRUVO7Q8aqN8e5lsZGZmGdINDzt06CiBoeJtRevWrpGeTf1O79+uXfvVq1asXLG8rLREMsuEQZJ+6mmnx8TE/PLzutkzv/MymbShcB4igAACCCCAAAIIIIAAAggggICZBeJT+yT1H1tTtDpq6QJ9PfdUllQVVlfX2CvoM8fDEC19y/XbssLXBRddsmNH+fKlS/TpMqRLwjoS4lHBneiWse07dPpl7aqEzidKLx4J1nRovX9HiUM67Oypq9EHgKSQpx4ct2f/gfKq+rh26foyW7RocUKvE3fv3p13ZAKghHbt87ZsXrFiuT6b2k5NS5ON/Pw816f0KSmduzz4yITvvvnqtH79r73+xqqqqtatW1948aWycf/dt1Xu2vX0H58//gQ5aKUMeZP0kVdf89jD41U8SF8O2wgggAACCCBgFQFHUalj29Gvi2q2rehyqOoLlqyP2eacyDl/m2PjkvX65uT066V/yDYCCCCAAAII2EkgeeDYvOkTDC1K7n1u2vk5WV2dM9XY4MfYp8bHJg0ecq70tflgyr/37Ts6x7OaxEcrQUI/nTqlyMPS0mIJoDz06ITU1MPRnAMHDkyZ/Oe3XnlOQj9afrcbMbFtrr9xXGbXLDnW/v37VR7penPXbTe7zX/J5cMkfc2qlW6fNSSePeQc6UN09+3jZASZNOeiSy6Xeaz/8OxzO3fsKCos/P2ER2QVsLZtE26+5XaJ+9x6+12T/uBxGTJDyTxEAAEEEEAAAbMJTP1MehMf/el4oEyCPrJ6V27Zuh6HJnIu3FaysfTw+HSVL6NLRxn8dXQfthBAAAEEEEDA7gKxCSnt0vrEp0Zw0Kd582bDR1wlE+h8/81X+tMt0zarh6oLj/Tu6ZTURlIGnDH4wstGzZk984P//rtgw0+ZmRljbrz/V7c8fEr/wbeOubC+/mjYSCvtzLPOvnrUVR07tj8p++RmzZs/8fCdX09/V3tWv5HYbaD2cOg55w8Zep4jf+vM777REr1syNCtPzwxQc0TJDMEyeLx/Qeccdrp/WWXxx97uK6uTjaks8+bf3+l/4CBOWcNlpXspSuQlwJ5CgHvAtVFq/KmGQPJapeskZOke6H33XkWAZMLlC6aUpY7xbWS0m9WvkVxTScFgTAK9Kif16N+g1Qg8WDlxXsP32OolI0tzgpjxTg0Aq4Cnt5dJWfvu2e45icFgTAKcLsbRnwO7bvAi29NV5m1ewCZx0fb3bFwytraT3fbbE4frXm+bPTO7puekbFg/tzthybQUbtINx/9vrIylzzs0DHR+W+npKd+/9iyJT/Jtsz4M39m5YwP//vKux/3PnXQ1Tc/+PWXH2s7FuetUdsyqOq4nj07duggI7l2VlQ0j5E+195+ZOyYxKF+c9uddXW1L/zpGdf5d/bsO9xLSJVSt3evbKxft/aXDc4bPu1n6dIlEvSZN2fOrt1Hgzt79lWtXbvmzLMGJ7RPLK/YqWXWb1TurtniME5orc/AtiUEumV0Dlc9qx2rVdDHbBdSGE2aci7MxtiUtgRw32CfTeeIaK8/nBevPOF/MthXSPhb2IQacPU2AS+ydg3G6yg+I7ss11dGs12rwQDx1SKg+cwGG9DGNb4wM5xfTo3b82eGU+O2YiSGXqAxw7suHzZCKvrZjMOxMdmW5bq0bj7yMD4xTa3FvnnjLw+Mu2xXzYHi8lp926qrK//0+N3/99mSkdfc8O13RyNqWp4vv/jsy0//J0u2Z3U97v7fPf3EMy+ed/4lzz/3x311FWpdMOngIwdVR2kd03z8hKfPGHRmWVnpExMeUT13tKJkY8fO3aXlxwRrOnRyjuL/+ZcNW/K36XNu2eqQhxs35xnSCwqd2apq9xrStX0rKmsnT/Wpe5G2CxvmFBg3+sLgvUVKWEf7Rm7Nq86hiNLBRzmoiM/3C5bPWujT4MSQ6XXLSBk3+qKQHS4gB5r44nsBKcd+hQTvbMrXenINZ404fD3L0OjqwlXSwUc+qAijurwlz+Spy+ynarMWBfU90CRWHQ/kndD/kpx+I1x7T8hF23vgWJn657sZ/9nRPEursAnfnLW6sWE2gcC+06p3V+cb7KEewaoPRXya8/1WPSXN1zYUhQnvSJ8Zf4PZTpO/9eHWwpOY/oLXLld1u6suV9lRHsq2bKj7AU9FNS6dU+PJTX9qPOUhffytEtkY4ZzT59iJnGVOn5N+fduPKzc7ispGX36m1Qd6+x306dQp6cyzh8gy7atXrtCukr2HluvS5m+OSzg8d09FRVnBxuUSA9JStF02/Ly2snJnekamjLHae6jfjTwV27J5bMsDWh7ZKC/Je+kP9yYlJZ899Px58+b/8P0n2rMq4tOje+aEJ55J7pw5b87s1155qbJyl5ZB29BHfOJbx0l6XKxaCOygeqjljIl2grRs0cKQLimH9oo2pGs7tmsbL68r7aGnjS0O59Jg8uNLZpUzGP9q1aAmGq9mstlRHIygjwrxaBEf7biyof39kzyHOhpdpZ41z0Wir635t/Xf9pjH0Dw1CcYZVJ+c3Q5R1C5vlSe7RdfV9c4htOYBoSbqktDeA4NxhZiqTDWqq9axL6pfL0+9J2Id3w/YP6u8WUJu9CjXynPNGK4ZQAwgrtdMo1PUO6cK8Whvp1ppKkV9rlZ55Clz/hGUWgXj5kqjCPFGGK95/Xt1GKtx6Eo7/KFGXyU1iUGDt7uyu9s8TTyPJgGRVpikJvpT00RbW+5+ZFSXBH3c/MicPpJ63P4FvffO6xjVIyrKSrP7yd+FFdui9a3yO+hz/kWXyFiqTz+ZVl9fry9IttVUPhLiMaR7elhU4Oh1Uh8ZySXDxNq2bdute4/i1nXLVyyrPrJDbMtmbeNaSLFzf5gtky737tNXH/SRXNLn6Pa77j144MDzE+/4YfG6I/t5/F9CNhldkuTp5MT28m98q8MPtR06tHNOQtSubWuVTUtv1cqpJnsZ0rUMPbt3bbA3hPzBm+w43BsoKz3lvJxTtN1DvKH/xrLBage1blpsXt4cw1gT/akJRnvVlxs+lpzUrKDsoDNsGkYQObp2anystjmzmeeFdu6gk8N4vxvss6lGdWlDFN1eDCpPcvPtUYf+dIT31Eye+rV2J2SSF5q93wPdXhLhTex00M1XRD5WKbwvZ5Ncvfq/m+F9OetvacJ7aoL9Tuv9+pTOla4ZzHNqXOtm3ZTwvl2b54LXvxeps+nX7a5kdo1jNvGqMM8FH973ItdT00RYe+/u/VJsVTBPmr9w6YodSxt/2xBiQAlUSbXLWvTUT1DoX9AnLi5u2PCREu6ZPfM7fe331uzWP9S2L7p05HFZGdOm/2+XFsjRnouKSsvoKtMn79xZIWnNmjX/4/MvbSvYMuKck1K7Ze2o2BnTYu+eQ2OynB2I9u+TPPX1x8zLc821199w47hduyoevvXKFUsX62d01h2ETQQQQAABBBBAAAEEEEAAAQQQQMBvAUdB2Y7m8X7vFqYdYg+tRtrhQMmgAc5JltWPf0Gffv0Htmvffvbs7ysqdhwpwfm/6uOjUmJaJWhPtW4df9UN95Ru3/n5V99riWqj34AcWQ1dxoiphdhlWJasm97tuO6ZXY+TAFHHDu1lyp49h7JK4b17OKfgWf3jF2pCH9nultxSIj47K7bfOPyM4m2Fqkz+RcDkAmqQl76Snhbz0udhGwFLCMi6XYalu1xTLNEQKhkJAtItwvUNWRrORRsJZ99ybXS9XF1TLNcoKmxjAdd3V9cUGzefpllLwNNnMbV6V8ah1bsG9TspPu1Uq7SrZPGGqIINsjJp1MKHtTr7F/QZNsI5uP2LGR9r++s32id0fOCJF+oOxE1+6+8qlLNg/qxb7n74ptvvX7VuU/7WPC1zRmbWxOfekUXf//mPt7REGTJ2728fevrl9x6f+ER19dHFs3IGnzvyursqtpfM/+Fw96KYmLjHnn1TdnzpqfuI+GiAbCCAAAIIIIAAAggggAACCCCAQKAEMtJS41MtM6dPbJeMsgJj0/0I+nTN6pad3deRv3XtGveL8p5z8eUXDrtWjjBn9sx1a515SrYVPH7v2OfenP762//8ef3aBfPnlWxZ2eOEXsOuuSUmJvad1/+6bu0arUZff/n5ST0zzr98zNvv/vvzTz/O27S+dYuzTx0wZMhFIw8cOPCnZ34f1TopvlmsLBPWvecJqZndJWY0bOxdV4y96+A+Z4SoRVwHrajKqsoXnn1ae8gGAiYR0NbqkvqouLK2vJGklC163+2YfJNUnmog4F3A9WJ2TfFeAs8iEDIBmfU2aeAYmYjK0D1NXbSu6SGrGAdCwFVAXa4qXV2c+hRJ9/RNtWtRpCAQbAH9xam9l7reAAe7GpSPgI8C6uKUT2Guq3elnZ8TXzxHPp1NnfHdjuYbfSww7Nl61P/UQyYvTutTlz5Yq4wfQZ9LLnOuMP3ZjI8l2qLtrzbUul1LFs0rLc6vrd2r79QzZ9bX991yze33Tzwpu+8JvU5S+bf8svqFJ+/Zsm2XWoFLK+0Pv7tjzYpFN9/71LXX36gl/rRw5ltvv1tY4JDMsuZWdVRhz1695VmZT7rfwBwtm36jYke5/iHbCJhEwHXKOlk7Rkssi3rfJPWkGgg0TsD1YnZNaVzJ7IVAwAXUxVmWayzYU7oxH48RCKGA9l4qx1QXrT4lhBXhUAg0LKC/OLlcG/YiR1gFDv/Rj3p/YLe4acuPDjaS1bv6DLoob/qcsNau8QdfUVy3saxG299N0Oe6MW4WKJUd3njtZfnV9tRvtElMqyiozN+6ecTQ7Baxrdum9NI/u2b10oceuLdjx45JyZ1rK7ZsWb9q505nUKZD+tG5hVT+vXvqpvzzjdkL13TsmNihXXzp1hWF+fl7D0QldD4m54z//Xf+0k1qF5n6R03049dEzuvXrbnswqGqBP2/0ttIfvUpavu1l1+SX9d0UhAIoADdfAKISVHmFCg90MmcFaNWkSbQOjU70ppMe60oIN8MucYlDQ3xa8kkw748RCDgAj7ezeoDQwGvAwUi0AgBNX2PtuOQnP7a9uhh51vqih2xPvfrjcucEZ+M1CT511FU5iboozWvERv19fvqa9yvZ7bj0E9l8Tr9rM9uD7F3797i4m1FjsPRHNfYkH4v6f4ji8TrZ4/WP8s2AmYQkLcJ/TgXT1WS7oUz5/9Ult/CUwbSETCnQNaISd4XvJRqS55VP365en6ZOZtArSJHQFYw3dEs/YSWp3oZnb8jKmVji56SLXJYaKk5BXy5f/AljzlbR61sJuDjpejLLbHNZOzRnAbv9HxpZkAK8eVAvuRRf+idA4iO/Nx3ToeFm2sLd+6XXj+DDwV9FkdfUt2yU0JUSvyRPJb4v1f/iz5fNl2qOvrysxxFpQEL+hhGadVVFsQlBOZWSQaOSeFSoEzlI9uacvmWRbItKdIJKFDH0gpnA4GACyQPHKvKzJs+QV+4Ng5fIj7yx7L0YJHMhaXPwDYClhCQq1fqWbpoSk2Rc0I39UWfthCS3OHJS6CNc+GDbyzRHCppb4EdzbMWLlkX45jRqmCeoaVy0eZvc2xumeNocZbhKR4iEBYBdf8g765yccocDaoO8h6rlkNS767aPUZYashBEdAEtEvRcLurrd4lt7taHm0vNkwuIJEaNfGovAVJP1nvZ1Aye2mOfPDxpRAvJQTwKfkSSEqb+tm8Afu+1HqoDTqulTqEXLTbskY7iuKjmmcF8KDhKipgPX2ku43EZVQz1EaDsZi9tZVR8uvDj3Tkkal8XLsIuab4UBhZEAibgLwPau8phkrIXHfqY7MhnYcIWEhAIj6ernALtYKqRohATeHKw3d2xzZY0h3RPY9N4xECYRZQ47xc32AlEuT9A1iY683hI1LAy+1uRHpYu9Eq4qzaIG9B8msIQPvbPFWI3DFKH3B/9w1GfukF03uv+0BVtWNZlF2+AQpY0EdCPHtrdmtRGIn7NDjkSgsSNXj+pLOP90FeDZZABgTMICBhnd53z3AbAifiY4YTRB2aKKDGebkWwuXtakJK2AVyo0f1qJ/Xo35DebOETS36da9fkniwUjp7q6/+wl49KoCAXkDeRdUSM/pEthEwp4CXy5X7AXOeMi+1khCP67OuAWgtj9YhUUtRG152MeQM2cPxt46QoU+HDndm/aKXpYZq7KEahyFvuTKq67RDT2dYZ712T3oBC/rIAdR0ztqRZH5l/YAsLb1xG4YRZI0rhL0QMIMAf/DMcBaoQ5AEuLyDBEuxAREY1O/Egm3btaLio06NytsgsZ696UkVjpTE+sq0Lil7WjpnPVQ/6V062eBW70hr+N/aAry7Wvv8RVjtuVztccLdflEtTZPITtLAMc6NQ6P7vTdWCtGms9BySoRF+hCFvaOi9ic+71DN9KsqS9OsNY+PZut2I5BBH9UfR62lpQ6mOv5ID6C4o7PxuK0GiQgggAACCCCAQHAFcvods7podVG7vLypcsge+9a1Pu30stwNmV0yTh/IbD7BPQuUjgACCCBgCQFPMR2J+Hh6yrVdzuhJWh/Xnj4SYXHNTEqQBAIZ9JEqStxHP7mPqrSEftS8y4Y2SD+gmNZt9Ym+D/jS78U2AggggAACCCDQaAHXm9FGF8WOCCCAAAII2FhAIji+R3yUg0z/bPg76xxI5UMvIRszhrhpAQ76SO3V/M2+hG9kOJhh0JYve4UYiMMhgAACCCCAgO0FDPejtm8vDUQAAQQQQMAvATVfjxrY5d+Ozk49Y9VyH6oQuvn4Bdj0zIEP+kidJO4jv2qd9cZVsaa2rmb3zmaN25m9EEAAAQQQQAAB3wTUDShBH9+0yIUAAgggEIkCapLjxnXPcY7wOtSvR+bx0c+bE4mOYWpzUII+qi1alx9tOmdtbS+VYemafEOrD+zdKynripfUH6hvFnUgqn5PXNzB5sWrDdnkYa8e3dq0sdPkSq5NJAUBBBBAAAEEQiHg2vM8FEflGAgggAACCFhEICCTLgekEIuAmauaQQz6aA2ViXtUAEhLURt7ikuLitUyaUefqd8fVX+wXnu8v/5AjPbgyEZq5+TGRXyqa+rWb3IcKSaQ/xeUVEx88T3fS5y1cKX8+p4/eDn9qnbwqrHFUWKSmgSvjf6WDIi/Yq75zfNCmzz1G9fqRXKKeU6NSV5ovAeG8eUgfXz86uZjnpezSa5e87yczXNqwng96w9tnlOjr5XVt83zds0Fb7iWzHPBc2oMp4aHYRdo+caLTwavEiVLp5cvm5546mUpp41we5Sb7nlMn16Rv7Skcn+7NonOxAN79tXsaN6y5fG9jtfnke13//asIcX7wzm5q+f/tNZ7nqY/W19f36JFi6aXQwlhFOiWkXJezilhrMC5g06e7DBXdCArPSWMII04dLeMznIe5Z6sEfvafpfwnk05NbYXtnoD5bUTmadJRnh5j/scl9FZPk5Y/fxS/9AIhP2d1mx/BO3xxnLOoL68Cbh9BYmM2/SQJXJqPFGH/dR4qhjpoRdomZLcKXhHbdahTYu2LZM6tEn2cJQbRl/5wcdfaBWIbtGsebOo6JaHQif1LWSIV4vmUbExx/T1efqx+/yt89WXDZVf7ShsIGBaAfm49cz4G0xbPatUbNzoi6xS1UirJ5d3pJ1xC7VXZisoy53iqcK8OXuSId2EAvwRDMZJkS8Fw/u9YDAaZY8yOTX2OI+0IqgCoRje5aUBY0ZdKs/q4z5eMstT2Sf2lF/veXgWAQQQQAABBBDwXcB7Nx/fyyEnAggggAACCCBgNoHmZquQ9/pcM8IZJOIHAQQQQAABBBAIoABxnwBiUhQCCCCAAAIImEcgzD19BML3zj6N7uazxVFsHnFqgoC1BKw4wQcveWtdY9TWVAJWfMk3EdDHJdvljWUztxNNtGb3iBSQKbFs8MbCO0BEXrzWbjQDEv09f5u3Fi2bu3nerIoBXePa5hdlZqb6W4Jp84c/6CM0EvfxZYRXo7v5MIO6aa8/KmZ+AZl/0XKzA/CSN/91RQ1NKzBu9IU2+HjmL2+DS7Z/v2A5c7j6q0p+BJSAvHZs8MbCrQXXs+UE8gpKLHcPH17kD75cEJvgXMFm8da6mIW5N2QOD299Anh0UwR9pD3XXNlA3EcyBGQ2H/kEG0A+f4vSVhQySTWk/tREnUROjeFi1kAM6eZ/qO/mw+VtuLzloUlMTFIN84CYqibqsomcf2Vgl19ju+TqDePyTHITr70/h3dlFi0KZh6Q8NZEA5HXDqdGEPTXqs3eT8J4fvWq4b3g9TUJI4hcWtpLzzwgJqmJ9sfCZi/AIDVn4ebaqDZHy97qKMy3UWcfswR9vHf2kXCPGgV29Dw0aktegWGMd8pnUW01brlfDGOPO/03lmEEkXM48cX31Jnk1CiHyVO/1t6gTXJqGvVSM8tO5nmhnTvo5DD2nuCFZrgiTfhCM897oMEqQh42uGS73iG8L2e5erXKhPFGQm5ptA9aYX+n1f5uhvfUaCDycubUyFUqd5vaqdEuWhtshPf86lXDe8Gb5L1Irijtpcd7kXp96U+NDV5xYWxCXkGhbUZ4mWgiZ+nL4/ak1tTWNXpgl9sCSUQAAQQQQAABBPQCsmS7/iHbCCCAAAIIIICAPQRMFPSRvjwXndg2tmUzg+wJPboFZGCXoVgeIoAAAggggAACIiDDu2qKVkOBAAIIIIAAAgjYT8BEQR/B7ZUS40p8xYVDXRNJQQABBBBAAAEEAiXg17Q+gToo5SCAAAIIIIAAAsEWMFnQp3NMr86t9W3uEB8rPX30KWwjgAACCCCAAAKBEpAJfdSq7YEqkHIQQAABBBBAAAHzCJgr6CMufVOP6ezTv2c4F9syz3miJggggAACCCAQJAFZsj1IJVMsAggggAACCCAQXgHTBX2Eo3evngqla2J0eHU4OgIIIIAAAgjYW0AGdpXlTrF3G2kdAggggAACCESsgBmDPmra5qTEhO6d4iL2xNBwBBBAAAEEEAiNAMO7QuPMURBAAAEEEEAg9AJmDPqIgnT2OaF7Zug5OCICCCCAAAIIRKAAS7ZH4EmnyQgggAACCESCQEtzNlI6++ypLCktNGftqBUCCCCAAAII2EeApbvscy5pCQIIIIAAAggcK2DSnj7HVpJHCCCAAAIIIIBAEAWI+wQRl6IRQAABBBBAIHwCBH3CZ8+REUAAAQQQQCDcAizZHu4zwPERQAABBBBAIIgCBH2CiEvRCCCAAAIIIGB+gaSBY8xfSWqIAAIIIIAAAgg0QsCkc/o0oiXsggACCCCAAAII+CsgA7uqp63ydy/yI4AAAggggAAClhAwXU+fgd2My7RnZqZagpJKIoAAAggggAACCCCAAAIIIIAAAuYRMF3QJ6ND9JCc/hpQTh8Wbtcw2EAAAQQQQACBwAvItD4s2R54VkpEAAEEEEAAARMImF6/yiYAAEAASURBVHF41+Cc/vK7auHXzZOXxae1CqzSFkdxYAv0vbTNukPnFZSEsSb6OpukGlKlMNaEU6O/JOy0bZ4Xmv4aC68wLzSDfxhBzFMT81yfBpOQPfRr6S7zcIXx6tUj8E7reqFyalxN7JQSxvOrZ9S/DPXpod82CQjvRaE/9RzRKgJmDPoou+O6puYtCTDjFkfJZMc3AS60UcWZpyaTpwJyzCnk1BzDERWVlZ5iSLHQQ/OczVkLV8pv2OnMA2KemvAeGPbL0iQV8D3uY5KXs7hx9RouHpOcGvO8v5mnJoYzZemH5lE1yQXPe5Hr9WyeU+NaN1IiU8C8QZ8Ano9zBvWV0G8AC6QoBCJH4LiMztZqbLeMzrzkrXXKqK2pBOQVZKr6hKAyMrarwYiPeifkXiIEp4ND2E9Avj2ywRsLtxb2uzJt3yJLf3Fr+7MT4gZGRNDnvJxTQszK4RBAIIwCvOTDiM+hEbCigEzoU5Y7xUvN5SOrDT61emkgTyGAgHcBbi28+/AsAgiYWSAigj5mPgHUDQEEEEAAAQTCKOBcsr2QJdvDeAY4NAIIIIAAAmEWSO/QMm/fMXXISk875rGVH5hu9S4rY1J3BBBAAAEEEEAAAQQQQAABBBCwkoCsIZ6SEK3VWNYTz8xM1R5afYOgj9XPIPVHAAEEEEAAgSYJsGR7k/jYGQEEEEAAAesL3HztcIn1pLVrOfKUNrKYuPUbdLQFDO86asEWAggggAACCESgAMO7IvCk02QEEEAAAQQMAhLrSVza1pBog4f09LHBSaQJCCCAAAIIINAkAeI+TeJjZwQQQAABBBAwqwBBH7OeGeqFAAIIIIAAAsEXkLFdwT8IR0AAAQQQQAABBMIjQNAnPO4cFQEEEEAAAQRMIiBLtpukJlQDAQQQQAABBBAIrABz+gTWk9IQQAABBBBAwEoCLNlupbNFXRFAAAEEEEDATwF6+vgJRnYEEEAAAQQQQAABBBBAAAEEEEDACgIEfaxwlqgjAggggAACCARNgCXbg0ZLwQgggAACCCAQZgHzDu/avLWIiFSYrw4OjwACCCCAQAQIsHRXBJxkmogAAggggECECpgx6DNnQe4PC3L3VJaUrqk458zarAg9NTQbAQQQQAABBEIkQNwnRNAcBgEEEEAAAQRCK2DGzjQS8dEQFqzKz88v0h6ygQACCCCAAAIIBFCAJdsDiElRCCCAAAIIIGA2AdMFfRZurjUY5RUUGlJ4iAACCCCAAAIIBEqAJdsDJUk5CCCAAAIIIGA2ATMO7zKbEfVBAAEEEEAAAbsKMLDLrmeWdiGAAAIIIICACJiupw9nBQEEEEAAAQQQCKUAcZ9QanMsBBBAAAEEEAiGQHXRqtJFU1xLpqePqwkpCCCAAAIIIBBBAmpaH0I/EXTKaSoCCCCAAAI2EpBwT9mi99WdTPLAsYaWmS7ok96h5bZj65jnKBp8bAqPEEAAAQQQQACBQAnITRLTOQcKk3IQQAABBBCwosDmrUXL5m6eN6tiQNe48gW5g3P6W6IV+nCPpwozvMuTDOkIIIAAAgggECkCdPOJlDNNOxFAAAEEEHAn8MGXC7Y6nEtILd5ap19P3F1es6TJYK68aRPUPYyXVSlM19PHLH7UAwEEEEAAAQQQQAABBBBAAAEE7C7gXEO8zTGNzM8vysxMPSbJTA/0HXykt3LSwDHxqX3Kct1M6CO1JuhjplNHXRBAAAEEEEAgtAJyq9Q6NdvTfVJo68LREEAAAQQQQMAUAnkFheYM+rgN93gnI+jj3YdnEUAAAQQQQMDOAgzssvPZpW0IIIAAAgjYSCBv+uHBXKpNcg9TPW1Vg+0j6NMgERkQQAABBBBAwM4CxH3sfHZpGwIIIIAAAtYUUOuvq9W4ZLvRvZIJ+ljz/FNrBBBAAAEEEAiQAEu2BwiSYhBAAAEEEEAgMALOYVxH5uipKVqtvqDSpu9xe4w1rw5zm07Qxy0LiQgggAACCCAQKQJyIyVrXtDfJ1LON+1EAAEEEEDAOgJa6Cdr5CSZrbkRFWfJ9kagsQsCCCCAAAII2EpAu6OyVatoDAIIIIAAAghYU6DasTpQFaenT6AkKQcBBBBAAAEEEEAAAQQQQAABBBBovIAM7MqbNkHtrx+BXrbo/erUxkSCCPo0/mSwJwIIIIAAAghYXUB/O2X1tlB/BBBAAAEEELCugH45dtUK/dhz2dY/9L2ZBH18tyInAggggAACCPgnILcvsoN8NyX/yp2KTJ2jFqHwr5Rg5pZaqbhPMA9C2QgggAACCCCAgEcBfbhHbktap2Z7zOr5CU9j1Qn6eDbjGQQQQAABBBDwX0DduMh+rt9Hye1IfEZ246Yh9L8ivu7hWk9f9yQfAggggAACCCDQNAH9cuxN+XqMoE/TzgN7I4AAAggggEBDAvrvqTzlNVvER+rJCC9PJ4t0BBBAAAEEEAiegP7GSe5GkgaOCcZtEj19gncGKRkBBBBAAIEIEtC+p1Ldkj193WRCETXujP4+Jjw1VAkBBBBAAAFbCujDPdJA6eAjXaFlQ9ID3l6CPgEnpUAEEEAAAQQiS0B/46K6JTtTcq2EUFPUmOUwrNRC6ooAAggggAAC5hDQvifTqiNflQXvxomgj+bMBgIIIIAAAgj4LZA3fYLqI6PvliydkyX6Y63OPn63nB0QQAABBBBAAIEmCKgB5k0o4JhdPfVZNl3QJ6NDdGlS2lZHoVb9rIxUbZsNBBBAAAEEEDCPgHxVpe4wXOcdlFW61EJda14dplU4sDc3WrFN2VBV8nSf1JSS2RcBBBBAAAEEEPAiIKt0BXBVU/0dl/6gzfUPTLI9dFB/rSZd2rUcnHP0oZbOBgIIIIAAAgiEV0DrnJw1cpKPtyzEVsJ7yjg6AggggAACCESagOl6+sgJyMxMffzBO7/56rMD0Yt7ZXePtFNCexFAAAEEELCEgBq95Zx6MLWPjxU2YU8f4lA+njuyIYAAAggggIAVBcwY9FGOZ/btmrcx2oqm1BkBBBBAAAHbC0g3H2mj66guizZcolFEfyx67qg2AggggAACFhU4NH+z84YqqD9mHN4V1AZTOAIIIIAAAgg0UUAb2OXjqK4mHi4Eu8ug+hAchUMggAACCCCAAAIhFjBvT58QQ3A4BBBAAAEEEPBF4NBy7Ie7+fiS3xJ5WLLdEqeJSiKAAAIIIGAngcD2mLbSRM52Oou0BQEEEEAAAZsJlC16X1oU2NuUsBMxtivsp4AKIIAAAgggEC6B9A527g3D8K5wXVccFwEEEEAAAesJqDXaZQYc2wzskraYcHpp610Z1BgBBBBAAAHLCmR0iE5JOGZCYTutIW7ngJZlLzkqjgACCCCAgKkFmAHH1KeHyiGAAAIIIICAnwI3Xzt8SV7drLUfDuwWd/GDd/q5dyOzy+hytTJGI/f3bTeCPr45kQsBBBBAAAEEoqLU3DfxGfaZ9piBXVzXCCCAAAIIICAC0rsncWnbUFLITUgI7kMI+oTynHIsBBBAAAEErC2gbk3iU/tYuxnH1l4N7wrBXdexh+URAggggAACCES0gNyBBLD3tCwA71aToI9bFhIRQAABBBBAwCgg63YZk+zyWG65CPrY5WTSDgQQQAABBKwhILcfAZwkkaCPNc46tUQAAQQQQMC0AtWO1VI3WbfLtDVsXMUI9zTOjb0QQAABBBBAwPwC9PQx/zmihggggAACCCAQXAHiPsH1pXQEEEAAAQQQcBGQqRJD0I2aoI8LPAkIIGBxgS2OYou3oEnV75bRWb9/CP6Q6A/Htl0FpI+Pvs9wo68ria3IKhUNzgMdyjmDmNDHrhct7UIAAQQQQMDkAnJfVD0t6GPnCfqY/DKgeggg4LfA5Knf+L2PjXYYN/pCLe4jn671H9Rt1EqaEk4BuajKchtfAV92zxo5KZRxn8Y3hj0RQAABBBBAAIHGCqhvnhq7t5v93E4Lbd6gz+atRYs2156f5qYlJCGAAAKeBPTdfLplpHjK5lf6FkeJyh+oAqW0gJepFbjZUawFfQ6vrp1m3oWWGFPj16UYOZmlY1HIgj5chJFzXdFSBBBAAAEEzCCgJm+Wjs+hudsxadDnvQ8++WXN0tKtdSsqfn6oX1FmZqoZzg11QAABCwlIgGbc6IsCUuHJU79WIZWs9JTzck4JSJkTX3xPlROoSn6/YPmshSvd1i1p4JjQ/EVxe3QviTJEKAQ9Wr1UgKdMKCBfeYU+CsMILxNeCVQJAQQQQAABGwsEcNGuBpXMGPSZsyB3q6NQq/rshbk3ZA7XHrKBAAIIIGBLgYB3cLWlUlgaZYjCBOlMqaMYjhWy9rJke8ioORACCCCAAAIIhFLAjEGfHxYcM1WAPgAUShqOhQACCCAQMgGJI2SNmBSyw3EgvwTypk+QWIzMs6NN5xyMkxXGKajCFWny6yyQGQEEEEAAAQQQaISAGYM+XTPSDIGe/HxGeDXi5LILAggggAACARMoW/S+Co64nSMwYIcJU0Ehjvs4xzY6VoeprUE8bCg7qwexGRSNAAIIIICAjQTMGPSxES9NQQABBBBAwPICMi2UzL6kwiJJ/cfa7IN96Cf0kYhP3rQJlr8s3DUgZHNSujs4aQgggAACCCDgRqC5mzSSEEAAAQQQQACBIwIyEXjvu2dIuEdGeNks4qOaGK6+S0GaHenIeQvp/4djZ3bsvhRSRw6GAAIIIBBWAUfFvrAePygHj5SePvpVnIMCSaEI2FRAW/zbpu2jWQgg4KuALcM90njpwRTisV2aeLiOq1UggBt2akujWbjbdEtnmxsJzq/b80uiaQVs89ILmfDmrUXL5m6et7wqrV3L8gW5g3P6h+zQwT5QRAR9vKxkHGxfykfA6gLnDOobqEXKrU5B/RFAwK4C0ksljDEL6ULlL2xZ7hRtl0bsru0rG1pRgtC4Hk81RavDqKdvS3i3udv04v/M+Bu8PGuJpya++J4l6kklEdAEumWkjBt9kfaQjQYFtuQXbXXUSrbCXftlaams9LTMzNQG97JEhogI+sxauFI7GXL1a9uh39jiKFEHNUk1pDLURJ0RTo3h5aCB5BUcvmgNGXiIAAII2ElAQida+COU7ZJQi79dqGRKoLIjy5w2Ynd96/RFScTH35qoomTZNYI+QsHdpv7Skm3tRuLQdrGdOh2E8eZZrxrGahjOr0lqYpJqCI5JaqK/WqRW/HgXkFFdi0vzYhOOxgryCgoJ+nhHM+mz8goMY7xTOoVOdnyjaLLSU8LYe0L/ZVQYQYRC+9qEU6MujMlTv9beoE1yakz6YqZaCCCAQOAEiFkEzpKSnJ/3wvgX3Jx3m3a6LMJ7fvX38OcOOjmMoTQT3rKa5+OVeU6NnV56oW9LnqNocOiPGpwjMpFzcFwpFQEEEEAAAQSsI0DcxzrnipoigAACCCCAgB8CETG8yw8PsiKAgF0EpM+UfA0VkNZo3a+k937Ax7sFqpIBaSmFIBCBAjJCSlpN0CcCTz1NRgABBBBAIBIECPpEwlmmjQhEkIC+q7MWrAlg+wNeZsALDGBjKQqBCBGQ6WwI+kTIuaaZCCCAAAIIRJoAQZ9IO+O0FwH7C8gqIZG8rqo+7GX/k00LEWiygIR7iPg0WZECEEAAAQQQQMCkAgR9THpiqBYCCDRFgMBHU/TYF4FIE5ARXsR9Iu2k014EEEAAAQQiRICJnCPkRNNMBBBAAAEEEPAoIEu2e3yOJxBAAAEEEEAAAcsK0NPHsqeOiiOAAAIIIIBAIATo5hMIRcpAAAEEEEAAATMK0NPHjGeFOiGAAAIIIIBAKAWI+4RSm2MhgAACCCCAQMgECPqEjJoDIYAAAggggIDpBGRCH7Vqu+lqRoUQQAABBBBAAIEmCxD0aTIhBSCAAAIIIICAlQVkyXYrV5+6I4AAAggggAACHgWY08cjDU8ggAACCCCAgO0FZGAXY7tsf5ZpIAIIIIAAAhErYMaePlkZqYbzkVdQaEjhIQIIIIAAAgggEBABhncFhJFCEEAAAQQQQMCEAmYM+piQiSohgAACCCCAgI0FWLLdxieXpiGAAAIIIBDJAmYM+mSlpxlOyeCc/oYUHiKAAAIIIIAAAgERkOFdNUWrA1IUhSCAAAIIIIAAAqYSMGPQJzMzdYguyqPfNpUdlUEAAQQQQAABewgwrY89ziOtQAABBBBAAAGDgEkncpauPf2y4uZOXtwr+4QsXQDIUHseIoAAAggggAACTRFQE/qEMehTumiKX/U3dEryd3f9sfRFyXbjitIXoi+cbQQQQAABBBAwg4BJgz6KJqNDdGCNtjhKJr74XmDLbFxpsxaulN/G7RvYvUwCwqlxPa0mOTWuFSMFAQQQsJlA0sAx1dNWhaVREmxqSrypiburJkvYS5XTlJqERc+cB+WWxpznJVC1Ms/5nTz1m0A1qonlmOSW1Twfr8xzapp4ZtndNgKmDvoESvmcQX1NEmEJVIsoB4GQCWSlp4TsWBwIAQQQCL2AM95xbMSnumhV2aL3Q1aTxs0hHZ+RXe0IwDxEUk58ap/G9fFRRNLTh2iRUHC36ekl0y0jpVtGZ0/PWiWd82uVM0U9NQG5aLVtNiJcICKCPuflnCK/EX6maT4CCCCAAAII+CIgwZQQRDFU/xr5N3ngWF9q5ZpHgjWuiY1LaXQd5HASMAoBV+PaFcq9uNsMpXboj8X5Db05R0QAgUAJRETQJ1BYlIMAAghYUUD6LJRFha7bghWJqHOEC0jkpXVqdlnu4bl11CQ1KigTPBkVKJF/86ZPCNRRpBWq506gCqQcBBBAAAEEIkHAObFM6TENzcpIPeaxlR8Q9LHy2aPuCCDgTmDy1K/dJUdEmgzHOy6js9aRXj4BykdKvoSPiHNPI5sgEN7XSACPfqiosQHsAdQEVHZFAAEEEEDASgIpCdE7dfWVpaV0j6y9GSlBny2OYmufKGqPQJgEtPBBmI7v92HlxS6TLPq9m112UG3Xzpp851+Wa5e20Q4EgingGnlRKTLhjryOgnnkgJUtffpcWxGw0imoIQFuNT0JaX+SPGWwRDrn1xKnySSVtMc1bxLMEFRDJvJTR7lgSP/cLfu7FMXJw4Fndg/BoYN0CK1FjqJSx7YdcpSICPqYZEr5IJ1UikUgqAIy/+K40RcF9RBBKlxqfu6gkwNS+MyFK1QwRabEk340ASlTW9lh3OgLA1KgVkl9aaGcjFZ/XLYRsJCADOOS2noKl1hotFR1aiimIrLQmQ1xVd2+CYe4DqY93DPjbzBt3XysmPZX28f8ZItkARtc8BF1+vKmHR5kvXDJ2h3Nsy4+rpWz+Uteq+6aasWeszLRngxX798sITd61NTP5qtTGRFBH/1VK58D9Q9DvK11QDBJNaT51ERdA5waw2tBAzGkW+thwL5pWbhCa3jAyjxSYqAKzPLcxcm0XRVkulxtFpUjHvyPQBgEwrhkexhayyGDI6D/u2mSmyuTVEO8pZtMoP7YBefs+VdqGGFNeJmJXRhBDl1dh/t3m6Qah6pkqwvev5eH1XJrnWKk4hnpSfFRSVF5h9sgt6lWDPpoZyAjNUnbjqygj7wXhLHPgvzBm+z4RtHLvBthXFDs+wXLtTXswwgiFFonLE6NujBkMhrtz7lJTo32ZsGGdQXM3FWB0WfWva5sU3Pp42NYst02TaMhYRHglkax6+82w3IignTQ8J5fvap0Zw5jKM2Et6zm+XgVpGuPYoMt0CVvapdgHyNU5ScerEzMe147WnNtiw0EEEAAAQQQQAABBBBAAAEEEEAAAdsIRFZPH9ucNhqCAAIIIIAAAoESMCzZHqhiKQcBBBBAAAEErCJQm37Wzpap0t/HKhX2Uk+5sdkYfaKWgaCPRsEGAggggAACCESigKdZnCPRgjYjgAACCCAQkQKriqN3NI+3xwivFcV1G1vEa6eRoI9GwQYCCCCAAAIIRKgAcZ8IPfE0GwEEEEAgggVkqmZZ8KSmyLn8pUzkfEKXE6MWOjmyRk6y6CzOyQPH7mjeceOyGmnFoH7Ozj4Ll6wz9Zw+jop9TnJ+EEAAAQQQQACB4AioJduDUzalIoAAAggggICpBSRKouo36LSTc/r1UtsWjfioyvfqf5HakOZkdOko2yYN+sxZkPvHNz6atrzqxRk/y7aqNP8igAACCCCAAAIBF5Bv+QJeJgUigAACCCCAAAJmEDDp8K4fdIEe2c5KT8vMTDWDF3VAAAEEEEAAATsJOJdsL1xlpxbRFgQQQAABBBDwV8BRWJRxZJ/qogZuDMLYFajBukkjOh7Ik38lp2NbtGyYMeiTn18kNdP/zF6Ye0PmcH0K2wgggAACCCCAAAIIIIAAAggggEDTBeoXvZZ3pJS8aROObHr8v/fdMzw+F8wnfKnbgEMVyJs2a3+zhKjoUWYM+gSTiLIRQCCCBL5fsDwgrd3iKFHl5BWUBKpMrWKBKlDqppXJBgII+CXAku1+cZEZAQQQQAABBKwikJGaRNDHKieLeiKAgH8CEqnRgjX+7ek5dzDKnLVwpecD8gwCCIRCgOFdoVDmGAgggAACCJhYQFbsqnasLsudInX0PtmfyhPepqjvqxqsQ+9D01QT9GkQigwIIIAAAgggYHMB4j42P8E0DwEEEEAAgYYEZCUvFdDRlvRy3aN0UcNRIde9Apgi4R65aUkaOMb3eYUI+gTQn6IQQMBEAt0yUsaNPrxgYROrNXnq16rT0DmD+p6Xc0oTS1O7T3zxPbXxzPgbAlKgDBOj01BAJCkk0gTUzVOktZr2IoAAAggggIBeYPPWomVzN8+bVSGJ152WOzinv/5Z82xLuKd62qqyRe/Hj+jjY61MumS7j7UnGwIIIIAAAggg0EQB7724m1g4uyOAAAIIIICA+QW25BdtdRSqesoC4q6rS6mnVFeg+Ixs87dIqyE9fTQKNhBAAAEEEEAg4gSkj7SdxnbVFK3Om97wmiNuT3Pr1GwvHdrd7kIiAggggAAC9hBYvCYvNiFFa4vbBcS15dJ9H1qlFRioDXVo591L0Sofq0HQJ1D4lINABAm8+Nrk9u3am7PB23fsXLZstdTNkZcQtbcqIJWcs2jl9opKKapud3ne5k0BKXPZsmWqnMn/jj/37IHduqYHpFgKQQCBCBdoSgBL9pWvLn28g2zQec/efbEx0Q1mIwMCCCCAgAjwnhney8BRsc+XCsigKskW9g7CUgHpcOT7CK+IC/pscRT7cjqDkWez7tCyuHIYa6JvnUmqIVUKY004NfpLwpft5at+rqqu8SVn6PPs2bd/S/42OW5J67jKneUBqYBjW1l1TZ0UVbVrx6ZNgQn6bN7sUHX77Ot914y8JCD1pBAEEGicgP2WbJfbQX97nsu9o/NrQ8fqQAV9du6q/POr/2jbpnXjTorl9poz73Aof1VCmzWrVvhe/7q6PQ/de4vv+b3nNOctjfc6W+7ZMN6y6q3051qfHvptLyDPvfxW61ZxQa3STyt/UeWvWr708y9Tg3osL4VX7KratLVIZajZWdw+Id5LZtendlfVPHjPuJROHV2fIsU8AjKFs/PbkbQ+Ye8VKxWQjr1SGamSL5WJrKCPTMU62fGNGa4b89Rk8lRAjrkiODXHcPAAAQQQiAABuW2yWSsb0WGnOtV5+xhYh42btwa2QDOXVlZWpqonG79s2uJ7VVu3bh2kmzHz3NL4rmH+nOZRldUbTLKAg5cLePGytbW1taE5rf6+9IJXq/UbWsZGR9an7OBhmqdkCa+o2XxkHmUz1OrwdM65U3z5ix8Rl6MsuCM9a8xwbqgDApYTOHfQyZarMxVGAAEE/BUIeLzD3wqQ3+oCyYntq2udfUL9/WnbNl6Wm/R3Lwvlz0pP6ZbR2UIVdltVPk24ZWkwUfr6NW92sMFsNstAxMdmJ1SaI7PnHI74SEfaVF/XzAqqg1RDDfLKmzah990zvB8rIoI+gVpi2TslzyKAAAIIIICA5QRYst1yp8ycFe7Yvq38NqJuKUmJ40Zf1Igd2SWUAnyaaJz24oXzS7fvaNy+7IWASQSO9vHpP9aXsVQhq7Y2yGvNq8MkAOSlbizZHrKTwoEQQAABBBBAwIwCcqtkxmpRJwQQQAABBBAIn4B08JF4itbHx0tUJVx1zBoxSd3DSCWlqhKfcluTiOjp47blJCKAAAIIIIAAAgzs4hpAAAEEEEAAAb1A6ZqZLQpa5pU5F66RHsEygY5JRnXpK6m2JRQl0/rIOgwS95FfmeC5dWq2s9q65TgJ+ri6kYIAAggggAACESRA3CeCTjZNRQABBBBAwJ3ALseaPZUz1TN7Kkv2NWsZn5Zj5nCP1ggJSKmYlAR95JZG3dWU5TqfV8O+zBj0ycw0Lra31VGoNYkNBBBAwBcBWWRdllr3JWeDedR67ZKttHxn4+bp9HIIqeR7//s+NjbGSx6eQgCBoArIl3hSPqGfoCJTOAIIIIAAAtYSkBuD1o5s0/bx8R3TjEEf32tPTgQQQMAgoF8xQQvWGPI05WHAy5QCZXnBmBiCPk05LeyLQJME5K5OxX2aVAo7I4AAAggggIBlBdpl9I5NONex0DktTmyCLKpYLhvSd0b+NeFsPnpm5+Jii97XvruSWxoZ4cXwLj0R2wggYDeBXt0z9uzbb6FW/Xrk+a1bxwWqwjZYGTdQFJSDgO8C2q2S77uQEwEEEEAAAQRsKZDc+9yuGWlJWTVqohz51/vyWGFE0BYX8zL3ED19wniCODQCCARLQN/fJ1jHCFy5XTOS27RuHbjyKAkBBBBAAAEEEEAAAQSaJCAdfORXRVXM2eUnb/oE9a2V95gUQZ8mXQfsjAACBoHUtPTUtLSOHRNLS0uKCgtKS0r0Gdq1axcTE6tPMWzX1tVW7d5tSJSH8fESFfEWFqmv379jxw61Y5s2bVq18pi5pqamurrKcIjmzZslJiZ5OrohMw8RQMBOAqoXtLqZs1O7aAsCCCCAAAIINF1Aje1SXX6kNPMM9ZJolIr4ZI2c5H3iIYI+Tb8MKAEBBJwCKZ07337nvQPOyNFzzPr+239Ofmv79sMTKt96171Dh56nz2DYnjrlP/96921Dojw88+zB9z3wsGu6lrLhl5/vv/s29fCKK0ddd8NN2lOGjTf//rcZH/9Pn9iqdeu77x8vFZvyn/f+/a9/6J+yx7Ys4mjOhpi2YubkolZBEmBgV5BgvRfbpm3bVnGtysvLDhw46JqzffsOvU7qHRsTW1JSvHXrltoa56K5Xn4SEzs1b97cS4aq6iovhchfgTbxbYj7ewHkKQQCLuDlTUDeATIyM1M6dylwOBz5edXV1X4dXb78S03LkBJ2764sLCgoLHB42V2+U+ze8/iUlM4lJSWOrXk7d1Z4ycxTESsggR6ZIidv2gQJ/ejnygkjiHMen0PzDTUY8ZFKmjToIyPofllztIPAkJz+YQTl0Agg0KBAhw4d//Ly6+07dJj53TcL5s/dWbGjU6fky4ddec55FxzXvcf4++6sra2VQlavWL5/7z63pXXv0bPbcd2ra9z/XS8qLPzum6/c7ii9ik47vb++807HxI6S89uvv1QHNey1ZcsmfYrcFNz/4CO9TuytT7TZ9qGvJmzWJpqDQCAFiPs0WlNuOhuxb3afvo8/9ax8MBs94jLDx7mOHTtOfPKZE3qdpBVbsaP8rddfm/PD4WV0tXT9xmtv/aNt2wR9imH78cceWvrTodVrDU9ERbVo0eKxiU/J35EPpvz7vXffcXmeBAQQCLyApzeBVq1ajR5z3dVjrm3WrJk66sGDB7/8Ysbbr7+2d+/eBushe1186eW33nGPfn2Mn3IXv/n3V6T7uWF3yXPH3feff+HFWshYDvG/D9+fOuXfvhzLUBoPbS8gXWlkCJXzpnrR+/EjnIt+hvdHqiEVkCp57+OjKmnSoM/QQf1/WbNUVVECQIMJ+oT3muLoCDQkcO8DD0nE5/VXX/5sxvQjedfMmzv7oUcnDhl63kWXXP7xtA8l/cvPP5XfIxmO+f+Fv7wij+d6uK1fvWqF/B6zw5EHY6/7tdysf/vVl0cSoiTeJNvyB95t0EfLlpHZ9bY77zn1tNPl6995c2afNXio9pRtNpIGjolaxELUtjmfNCRYAmrpLkI/fvlqM0f6tZd8ojvvgovlvVf7lKXfXb7en/TcX9LSMz784L9LfsqVqNAZg848a/CQRyb8vqa2+qfFi/SZ9duzZ34vJetTtO3T+w+UP0811R77Cl11zbXyR0TLzwYCCARVwMubQHR09NN/fOHEk7LXrl758bT/FRcXJad0vuiSyy69bHhycpfnJj0pI/S9102COJddMbygoGDqlP+TXkJtE9qeedaQCy++tOdLr951280VFYfnAZBC5FjynZ/co/4w+/u5P8yuqto9YOCgwUPPHfurGyQY9I+33/B+IJ6NTAHp7yNBH7lbkL+A4R3kpQ3s8rEaJg36ZGamPnr7VVP+vKBX9nFnXTM8Mq8qWo2AVQQSEtr1H3CG/HH9/NOP9XWWL2emf/Sh/EE9qXe2Cvron9Vvd83qdlJ2X/kqpqS4WJ/e4HZcXNwVw0ZUVVUt+nG+ljmxU6fdu3d7j/hIZqmVRHxWr1zx0p//dFJ2H1sGfWT8FJ9jtQuDDQQ8CcjLRL4r48XiycdtuupVLvEyvVtNkbfBpKPHXjdi1NXyJ2PBvDl9Tj61bdu2hpIffuxxCcc/+/QTkkE9tXD+3CW5iyXoc/8DD99w7VVux4JJzjdee9lQlHoo40fOHnKO/GXZ8Mt6txn6nHzK9b++ecvmTdLV1G0GEhFAIIAC3t8ELrviSon4yMwAf33xuf37ncuwbtq4YdHCeTeOu23U1WPOv/ASw/B8Q8Wkh6BEfLbmbXlk/L1yH6ielWCxvMAl0PybO+564dmntV2uHDVablBnfDxNviNUiatWLJdvLt/553/lWPIN5baiQi0zGwhoAjKWSg3y8jHaou0Y2A31J1huXXws1qRBH1X7Qce1iu8Q7WNLyIYAAuES6Nwl9Zef182fN0eiPIY67K7cJSkxsd4mb5YMl17ujO1+NmOaYfcGH/brP7Bd+/bTPvpAH+LplJi0vay0wX03bvhFvvbJ27JZckrQp8H8KoPEp2TA2rq1a2QIW/8Bg/qeesqeuj2rV61cs2qFusOQkJPEkvqefKqEolatXP7jgnmuLD4eq+nZ1AcwNU9t00sLRgnqj1YwSqZMBPwS4FL0i0sb1ZU1YpK2dIiUIAEgecpTV3P5KCV5ZGK1Tz+Z9n9TPjIcMT0j8+RTTvtsxsdaxEdlmD/vB3mjlrferG7dN2/aaNjL+8PBQ86NjY2Vw9XX17vm7JiY+OiEJ9esWSWjOf4w6XnXDKQggEBgBby/CUjf7T179rzz5t9VxEcdWkK9MuXikHPOGzFq9BeffaJ/ylC3Mb+6XlLeeet1LeKjMnz5+Yybb7m9X78BWn55Wxh25ShH/tZ33nxNS5QNCRB/+sn04SNGnT5g4KcfT6urLNhb42Z1Ef0uAdzO/2xSbbu4ABZoKKp1anZ44xSG+lj0ofyBU992ePljF+ymSTcfOYRUw/cTauqgT7C9KB8BBAIiIBGfB+69021Rx/XoKemLFh7thuOaTb6JveCiS3bsKF++dInrs95TrhwxSjJ8/eXnWjbplCthoJ9/XicpMrRbZvfskpYusSeZDdQwi6d8faTt5ftG/4GDbhp362uvvDQo5ywZESBzBMpEEnIj8svP6x97+LedOiU9/9LfZO0wuWuRgQly35C7+MdJTz2+b5/7mYx8P25TcsogL0+fwZpSbNP3lb+XZe4n2Wh62ZSAAAJBFNDeUvQRH3U8+QpUBZrLdlYf2FfZPProVDuvvfyXn3J/9DRA45LLrpASvvrCOARY4jUPP3BvbGxMbV2dX02SZRmHj7hKdp898zvXHWVwxyOP/l7Sn3/2DxJvcs3gKcVaoX9PrSAdgbAIeHkTkCCs3Dj9vH6t61TKcv+2cvmyc8+/8MTe2dIfx1PNe/Q8Xp5at9bY31DuwcrKSlJT06WbYeWhLyNPOe10mT7sg//+n2s4+L133/7og/+o2zaJ+OyrrXR7uA6dknPOOrfQsXn5ksUDcgafcdb57TsmLc+du3jBnOJtBbKLzA5/xplD+p95vnzxuW71ks+mvV9X637aSq38muL11VUttIcB35CgvO8xgoAf3X4FSm967U9hWFonUTzfj0vQx3crciKAgH8C0iVG+tPu2rlTxm152VN9EyszaPobGVGDwmR8VoEjXytfQkiyvX176fEnnPjQoxPkb7x6SrrbfPj+f6d+8B9D6Efb0a+N39x258oVy64fM1LWiZd7iFvvuFumrH5kwlM9e/aUmUC//vIzCfpIB6iHH31cBr7JYPLPP/3Er/LJjAACIROQCIUcSz9GKWSHtvSBpFe5dI8yuB3+/lP6+xSu2l5VX1Hg7HQZ3SohpnXbuIR075Mxy2wapSUlMhBDscjoXYngby8rk09lMlW/n6v3OMvond03PSNj9uzv9RN5qMLlX+lT0LtP30cf/m359u1+BX2sGPrXWs0GAuEV8PImIEuCSN3kJe+2hvLVoKR36ZLqKegja/DJDWf+1jzX2zxZn6tLlzT5lk5+VeHyvZ1sLPpxgXooAeKk5JTKXbuk23jdoR+V7uXfzMysx19498vp7w0864Kb7p64u3JnfHzbS0fdKBvjRp4p7yp/+9eME/sOqNy1o137xMuuumnMTfffff0lKh7kpViesoSAfJlaPW2V9+HMZmsIQR+znRHqg4DlBX774O/iZbHM1DQJysgEyTK7s+uXNloj1TexEpH53sPiXFpO1w01KGzGJ8cMCmvXrr3kPP30M86/4JI5s2d+8N9/y4LxMknEyFHXjB77q76nnPLI+Pu89A12PYrbFLlveG7SU2pMmXxrJG2UjwH9BwyQJcO0AefF24pkUPrrb//zgosI+rhVJBEBUwhIeELFfUxRG+tUQr4xll/pZC43vlroR754lAFf0olPvgI9uLM6+vsp8j25+pWWSdzHU/ukk6Z85JNgumQ4+dTTrhg+8rR+/WUIhqyhs3zZktdf/avEgzzt6yldCpGnvphxzGRzKvNppw+4Zux17/1zsqcPkJ7K1NIJ/WsUbCAQEAEJlEg5Mo+729IyM7tKemKnJLfPSqLEeu6+fZzbZ2ViL+n6LS92bbh9ckqK5Ny1s0IOd9XosTKFs0z3Ls9u3rzxrb//TcbsG8pRkWt9Ykwb55oh5146ekd56S2/unzzpvUtW8QNH3XNnQ88/tI/P9+5Y3thwZb7br6ybt+BDknpd9z7yCXDRz/w+AtPPf6gKqS63DlhUHximvyr+hPJIRJPHZHUPl69o6r+kvKsYeoWLw8NOxoeMoRZyXv5N6NDdEpddJ5jlcqz07HqpHaVpYvczB0utl7KCcFTWgXUOC/vR1Tduwj6eFfiWQQQ8FsgLT29TZu2KZ27yJ77Ds3D56UI9U3sgvlzJTTjJZvrUzIDqAwKk291luQes56LfDMsmTt07PjU7x9dtuQntaMMHJv57TdPTfqTTBB43gUX6YeDuZbsS4phPXj5FnrTxl9kNgqZe0K/uwwXly4/mV2z5G5Du9XQZ2AbAQTMIKDFLMxQGWvVQcV9DIDOKQ9S+xwsK0/o7ByIIfNiyCcc9SsfctyGfmScrLxPypf8ffqe/NQzz8mgYFk9PTYu7jQJzwwc1PfkUyb+7kGZTM13HBlsm3PWYHkTXrvGeHcuX+k/8tjvZQX3jz74r+8FGnIS+jeA8BCBJgrIF4QVO8rl+0LpJ671+FNlStfpU/v1l+3kZGewxq+fjIxM6Y4tfcnfnfyWtmNScrIcTd52Jj33oswC+dmnH0vMqGevXkOGnPvci6/IvGPaF3hqlzaJafqRqpKogj4xMbFPP/lEUVmVelv7/Kvvzxh8sYz9b9a85T03jaqp3Nkh/cT6Fm3fmfyPATlnD77gyk6vvyMTPsq41+qoQonyHHkzLJDIuHSHTOo3MrlTRxkzK+VrA/NVsEZ9bleD4iUe5PahWs5Jm7jHbTmaABtuBXrWzl9VUKWe2l2wOr5TXtkej/MLG/7wuS0wSInq0D4G8tb/9HnLMyYS9AnSuaBYBCJX4MH775bGy+17dt+T7/3tg29Mfu+ZJye4fm2igC4fNkI2dAu9++omi23Jl8AyhbP0w9XvIz17Jz764I7yclm+QZ8ucZm//fXFv7/17pUjr2560Ed68egLl23Vm0lGe+nTJdAjdxUpnTtLVQ311GdjGwEEwiugevqE8QYu4M0vW/R+WdT7AS+2cQXKBxv51UI/UsiRjzpHy5Ov2eWBhMgfnfjUhEceWLP68HetMsXyxZdefvd94+9/8NH77vyN72+kF1x8qfwZkmmhDQF3GTX26MQn9+3d8+Lzz7pO53G0Qg1tEfpvSIjnEfBb4K3XX5Ol+iQm+/STEwsLHGp/ifg8NvFJ6Tku4+jrD7iZkd3LYWSVwIlPPB0X1+qVl14oKixQOeWdISkppba2RpaHn/7RVInvaO8Sn/zvoz++8Bfpx/dT7iItv5fyZVJLw93mypXLJejz44L5+/YdvTuVN651K3LPOn+YrEBfVbXRS4E8FV4B6ewzoKtzLu3CnfsHdouTh+Gtj9ujS+zPbbqnxIrmKRuXrCPo48mHdAQQaJKA/AWVnrRPPzFRxjfdN/7hW2+6XvubqpUr38SeefYQWStB5uXREn3ZkEFhV44cLTm//foLQ34J98ivIVE9lD/MMhRL5m6QcQQyZMBtHh8TPX5UcFm/zMcCyYYAAmEUkHCPbZZslwCWNMeEASwV6NG6/BjWelRvqj2PP+GNv7+iRXzkkpA/HLJ2snT3yTnzbPnXsLCXp2tGIjtXDBsh3+3LIF9DnutvHHf8Cb3kywkv444Nu7h9SOjfLQuJCDRFYO6cWX1PPfWSS6947c1/rFi+TOI+XVJTTzm13yfTP5IwigR9ykqd04T58iMztY8e8yuZuktG9P/pmaekZG0veVepr98vEzJKN0ApWUuXDQnivPvOW3fcfZ+s7fXGay/rn3K7XVhwOJCkPVu5a6dsu85MVLHDWXOZXUjLyYYJBVoMvGvsyFRZjkDqJkuzm7CGUiXpSOtL3abO+E4yjx52/q5t0QR9zHkqqRUCFhOQJcxl+mRZSbdq925D1aXfTVFRgcymLOOtXGMx5190iXzf4mkxXUNR+ocn9XZOzynzQ0vASJ/e4Pa2oqITep0of+n9HU3WYMlkQAABSwtoI+Qt3YqmVz4+I7vphXgqQeI+Ma0SqsoLZSzDwfpjIu8yVlft5TasM3/ODxL0kXEfbp91PVy//gNlqO83X32hVurRMgw682zp7Pn2G6+tX+fHSDFtd/0GoX+9BtsIBERAwjGv/vXF3EU/DrtyZK8TT+qdnb0kd/Hf/vrn2TO/PSPnbDlEuW9TAcjKrbKShvQ3z9uy+U/PPOnQLfeh6inBI5ntceZ337hWO3fxwjui7uvevbvrU64pnt4HXL/mdN2XFBMKZKSlagtyaRsmrKcvddvR3NmnTHJmRJUujIqip48JzyNVQsBiAkPOOU+mwTN8kaK1Yd9e52rlB+oPaClqQ76JHTZ8pPy9dLuYriGz4eEVw9WgsGOmcFZ5ZMqe7j2O/2T6h27jQalp6TLJThO/4DVUhocIIGADARN2jWmcahMbEuw1aGVejITOCTLUS7Vub618VdBctiU6c+DAAfkaQCb1cG24CtOnpHR2fcptyrARoyT9i89mGJ6VBSVl5o4WLVqMGOXsK6r9yLAy2e7du49KlzV9fBnZoe3OBgIIBFBApvSSX3k3kJeqtvKGdPmRQ5T4MKG7zN74xNPPynw9X3z+yT/eekOtuWGongr6uJ0eXgWgO6c6p1j29FO+ZVFVB2dvxX3VpbKtz1a7vZc83LszT0LbslFRsO7Is9fJRlXxGi2/ZNC25SnpBbn+neu3tzm8ZLvqbHJk36g1rw7TtuVN3stDmedFP9WLoRytEDYiTYCgT6SdcdqLQOAFVq1cLkGf/gPP0PeeVYeRDj5yMy038a5xFvVNrKfFdL3UUg0Kk8U7ZXpm12ytWrUePmKUdLw3TMInObP79JXpn2UomXYP4bo7KQggEGkC9pvQR86gjFbzt8+OTAPUxICR71eOdPlp1swZ66mpKIxu51ysR74AkBG4MoFr+/YdDJOjybNqqZ2CI3N8eD+QdAjKzu4rE8Fu+GW9IWdMdIys63zzLbcb0tVD6Rcgv7JdWFhA0MctEYkIBFWge8/jmzdrvnHDz9JTRn60uzUJAF1woXPtjg0/azEU9xWRtf9kJniJFr368osyMtR9pqioLVs2ycw7nZKSXN8l2h9aOV46qnvaV6Zh9vQU6QiYVoCgj2lPDRVDwDIC69askSCLdLGRHrn6uE98fJv7x/9O/lR/8vH/XBtz+JtYd4vpSma59f/1zbdIT37pn2/YVw0Kk+k5Zb4Gw1PyUPrl3lR32/U33jRr9g/62fXkO6J7fvuw3EO8/PJfd+w0DkPbXV0r+9bt2ef6lOEQ1TXOmfmqauoMOffu3S/pu3ZXG9LrDzi7OJWV73RbW1X47IUrW7VyzhsXkJ/zck4JSDkUggAC1hWQiI8v3b/1DaxOPbryuj49SNvNmjtvQffXVdY3K1DT/cjkGvePf+T0AWe4vu2fPXioZJZBxL5U5tLLh0s217i/JN55600yJZxrIb2zT/7dxCdmfDztw/f/Lc+67RrguhcpCCAQWIGbf3ObzODz1O8fW/zjAn3J0nlHRmNN+c973qdyl5CxTNMus/lM+N14t98LamXKgh6jrh5z1pChC+fP1RLVxsAzcmRjwy8/G9IND1vExktKdHxyYreB+qdadXKOC4tpnyWLc0lfHlm9S7/sV5vOvRO71UvYSHoASYaEzidKZjXJvaxs2Os3/0g5tHqXxN9l0hb1Hq469fS+29lvUWbwlZ478kVF1gjndDOGh7J6l/TxkYi/WttLVu9yLUf24icyBQj6ROZ5p9UIBFJAFsaSdRb++uqbctN87o8X5C5eVF1VJXPuXHLZFR06Jq5YvlQWRzAcT30T63YxXZXzqjHX9h9whvztn/vDLP39txoUJrGb77/5ylCmeiijuu6555633nrr/akfLV++/Ntvv92+fXvv3r3HjBkj8zc///zzM2fPcd1RhXJq6/aUlh+eV8I1j0qRPLIh+Q059+5zBn12VkpP32NKkAELkl62Y5eXqaPnLF4tdVPlB+Rf4j4BYaSQCBEIWfeWCPH0t5kyqEEm+pHPRRLlv+2Oe8bdeufP649ZEOf8Cy8ecEaOzMKzYtnR3p3X/fpmWYlZZucxTNAm3TkvuOgSGcY7f66bt3rXPqeqtpW7d8mGrObj2snI3+aQHwEEGi0gS3TJjZ+EfpYtydW+KuvcucuE3/9BXtSGtTtc3wRuHHerGtXlPeIj1ZMpopf+lDt06Hm5CxfOnvWdVmH5xvGGm8bJIFC3UWMtGxsIWE6AoI/lThkVRsCMAjJV3n133XrTb26TW3P5VVWsqqp67ZWX5I+01kFXq/ollzkHJ7supqtlmPfD7DPOyJn7w2x9xEeeldVbZHrOBfPnGm70tR337Ns/c+bMa6655pFHHunXr98ppxzu9rJ506Y//XHSqpUrkhPba5m1jfjWzo42reJi3T5bXVunokKSTfJITtkw5IyJdr6dtk+QL32OKb95c+cQhqSO7bTbF3koP1psSPIPHpDd9J4+eQUlWxwlqnAr/isfvPVj1H1vgvallu+7kBMBVwG16JVrOilBFWgZlxBVUyVTO8tEP9XV1U8+/rsnn/7Ty6+99dmM6b+sX9+qdavT+w/MOWvw7t2VL/35OW3OVFmEceyvbpCKbdy44cP3/6Ov4VmDh8bGxsofF/k2Qp/ONgIImF/g+2+/HnreBTI881//+XDe3B9kPP7xvXqdc+4FMipzwiPj9XM1ur4JyJCuwUPPlTZ2737808++4Laxf/3Lc+Xbt6unZBH3pyY999CjE8/IOXPZ0p/qaut6ndT7siuGS//05yb9wXXtEbcFkoiAVQRMHfRxVOyr2FubZRVL6olAZAvIWKonJ/5OFsZKSk6WiXVKSop3lG/X7tENNrIQpve1MKXD7ZhRwwyBEilEvgq+7MKhhtJcHy5ZsuSmG284ufcJScnOiT+LtxXu2uX8Irdj+7aumSUld+FcVazbDBL0UXvFt4r78tNp8uta1F///Ef5dU2/5cZrJbFtvASVjhnApQV95IhDB/Vt0+RVPL9fsNy6QZ+mfN5m0SV1cfJvEwVap2bT5aeJho3YvX1qr8odRTIIQsY7SGef1atW/vbeO3774CPDR1ylIubSr1O+/H/91Zf1nXRKS4rXrV0t60Iu/Wmx/qDyaU12lJSvvvA4l4c+P9sIIGAqAekTPenJx0eP/ZWsmC7xF/mVd4Bffl7/9huvrlt7zIp7rm8CySmdJeArzZFFWj01Kjr6aK/qsrLSh8ffe8994+WryrOHnKN22bRpw0sv/ElmBPNUAukIWFTAvEGf/36+IHd5VWxC/sY///3Xo6/MzHTO2c4PAgiYXEBWYDEskdvoCrtGfPwtSjrq01ffX7Sw5OfDdljYOahegOihXiME29eNcS6wJT8y54VMb6E6+8hDGfb7wL13yhf76emZBw7Uy4TKhv6ekkc+GT54/90yc4fhz4R8Prz9N792Furnz4plS335OkGV+tEH/5Vf1yM8/+zT8uuafvMNY1wTSUEAAe1NQE8h95DvvPn3Kf9+T2ZZlrFaeXmbq3Yb52GU/K5vAtuKCn1/FasjSsl/fObJli1bdu6SKiNDCwsKfL+DXbV8if5wErbee2i5rk8+eFN+pXy1epcz8VD6pAn3yK9M3OOsfM3hFql1DNVD+bdsybRm7ePVHZEspCi/qp7yr8zXI/9qf6e8PJQ86lm35WgFshFpAiYN+sxZkLvVUaSdjNkLc2/IdE7Lxw8CCCCAgG0EZJJCGZylX1vUNk2jIZYTIPIYllMmn3m0zz/6CsicGq6r6ugzyLYh4mN4locIIGBdARme6csIzYC8CcgUBAWO/CZaSXBHpidzLcSQqH8oUSEVGFJ7yXb5sunNjizZbrg10j+Uv1b6P1jeH+p3dK0eKZEjYNKgj+EEbHUU5ucX0dnHwMJDBBBAwOoCssaEWmbC34Y0bgIgf49C/kgQsOWS7ZY4cWrNGlVV/YcfS1SeSiKAAAKagNvgtfYsGwiEXcCkQZ88XTefsBtRAQQQQAABBBBAAIHAChg+JqlpfQJ7CEpDAAEEQikgC7HHtHY/fWSD1Ug89fKk9s6V4IP0E5+RHaSSKdb8AiYN+pgfjhoigAACCCCAgA0E9P3kbdCc8DZBppOoLlql6lC9fZfEcXyvj4yPiItO8D0/ORFAAAGzCUjEJy4hvXG1Suo3MrlTx8bt2+Be8s6s5gmSd2lZuKDB/DbOkDd9gghICExA5F+ZasDGjdWaRtBHo2ADAQQQQAABBCJRgBFegTrrztklph0O+pRV1VcUlPpesnT8kQXc+UEAAQSsKyCz9hj6MPrelvzPJtW2O2alV9/3bTCn/usN/XaDO9opg4R7VNvl37JcZ8tqivrEjyDoY6eTTFsQQAABBBBAAAEPAizZ7gGGZAQQQAABPwQaPUNZTfH66qoWfhyJrP4IOPs6FR7+TsLLfu998Mm8WRWS4brTcgfn9PeS01pP0dPHWueL2iKAAAIIIIBAgAV8uREM8CEpzkWg0Z+UXEoiAQEEEECgYQFZQTVyJvopW/R+gyLfz/1pq6NWZfthQW5WepptFpIi6NPg2ScDAggggAACCNhcgLiPzU8wzUMAAQSCJpDQ+URZjlBfvAzykkC2Nq+zWqw9PjFN5dE/1HKS+G5JAAAoBUlEQVQmnjpCJnJ2zoxWuEoGHauZd9Sa6xKdUTt6eajfUVup3VCOvoZqO0JmtHFtuNuUxWvyYhNStKdmL8y9IXO49tDSGwR9LH36qDwCkSvw0/LVbht/4MDBvfv2y1M7mjXbtq3YbZ4e/9/euQDXcZV3fCXZkixZLz9kR7ZskSiTGJkkYBw3JgQKGWgzGRKHR5IWMi0ZmE5hykybQocOdKZMoJnC0MwEpsAABVqchCYOIZhQEvJEJnEcYizZTmzZkq8k25Icvd+P2//qk4/Xu3f37uvu3Xvv/45HPnv27Ped8ztnz579znfOXrqpstLP9xHGJ6cqK1eklOk7cnp2rivRV1GRqVXcvjPGC0mgQAhwQ58QK1q9YEBmcmi8ct8TdsKt2174/uSNnQrGkwAJkEBkBEz7N89MHIHqlas3FC/uTy9WHkmDHe7HtR7Yg85f0g3zEDpA2cgZ+87gwrU77hBzjJhv6nfoRh8sUMJONOhmUx72vbQb1iKYinBWGX1wlSQ2xiASPyVHDvP+L5CqLedcFrYr0eMyZfyT0egT/zpiDkmABFIQaFhf33vGaYvQheSS9cd0cUVFRd+5EQ3/vP/GJ6ZOnjrt/TqnKyDwR48+VVpa6pSI50iABEggFwjI+4bkNNl/rrz6NbtcZ2LPZrvJALs8GOOvbH7LypV+JgOMQhgmARLIOgH2A8YqgBkIVqSmXfcaIyUsnkTW+HyNKXCfJhp98rVhs1wkkEECf/ruHfVrVmdQgTvRX/vmd1ImHJuYmpqZTXkKkR94/3vtTmUrft3q6tramrC0X9q4PixRlEMChUCAC7vyppbTTgbYlRQXZtHiMzNr+8CyyzDjSSBXCETfvHO0H8hchYrdR+RjmRhcfuDjozyJMqc3hpJbPvs4vKU6H9V9qQrtR6NPodU4y0sCIRD45F9+OAQpgUWMjU089Nheq5h6a9T5mK988XNbt1x+/oj/kwAJkIBOACNg/KX1J9zWMDo69uV//Ey4MtNKu+fL/5Y2jTXB1//1n6yRUcaMjo1X0c8oSuLUFQkBNOy/+/Rdkai6SElY/cCppx+Y6DsO0Y3v/2hlfbPoGO87nnj6gYr65k3vd+rf5Fp14dHdx3D5lXfql5gk9B168s22J1dtfc/Y6Ni6NatES1h/m267FxsYq6cbtm2WT5UXrNtLwRY8pkafpsaGN9pfNTb3zu6evNk921guhkmABHwTuOPDN+HalHaflDJh7qHFJyUZRpIACcDRXQ2LSSMUAs2Xbg5Fjichn/rE7e4fCiKZkwGeCDMxCbgnAFPm26/a4j59WCnD6gfqOmrHl5chV01vbapsWCrIeO9c3VFEJrTnv+CQ4eblmrahTDv6Pe2onuoqhPFbvATr+ev0wyUJGzVtIw4Hn5n65TPteiL9Z/JGaX/gQxKPv3hUORzCkce4fY9JjhLCQKERiKnRp9CqgeUlARKIgMDtu3QjEX8kQAIkYCJAc48JSO4ecjIgd+uOOSeBsAhktB8oWFeRsGqHcrJCgEafrGCnUhIggXAIuH+u080nHOKUQgJ5SoB2nzyt2DTF4mRAGkA8TQIFQMBrP4CtYdJSwfbJeKxgdZUYicQ3Ry6UbWWwrFj2V8ZXt+Cbg9125DNb7i90kKNcgUzLu9JmmwnylQCNPvlasywXCRQKAdh93Djze32iFwo+lpMECp6A84Y+Oeob7zvbpqUBudg6OBmQi7XGPJNAuATYDwhP2dAHjzlObITbwHJOWnHO5ZgZJgESIAETgdtvTbNuCwm4m48JGg9JoDAJJHr7Lvzr6RUI6su1p04ncFYizxVVFyaiPCi1vO+lLQgnA9IiYgISyF0C7AdQd7D1KJei3K1K5jw4AXr6BGdICSRAAlkmgOe6g7MPzD0uH/xZLgbVkwAJZJjAw0+8mOjtV0pWLXReuzgmVlOgPafPPvfE77bPdq3WtNXJEZWSgZwjAFu/w3MBxeFkQM7VKTNMAl4JsB8wWXzGE23CEEvDCnBzIpTaaxPKm/S5YfQZShx643/3rH51hYm7qR2bzvKQBGJIQFbqWjOmFv1aTzHGDQGH5zrnct0ADCWNrEu3ilIr1a2nGEMCURIwWnya519snte/oWv8SUxHybbVc88Y4xnOOQJ5Nhlg17tyJJxzLbNAMqz2lDGVN+Lhblj9AGwlylxiKpHdocwlmC7EjYz0E71LlhfjISLl0OuFEJhSjmQMfqxyVg7lw15QMf5oIXoAWRc+n+rteuS7e7bPPiLTPH3tvxVQ+JvYt/tMcdM3vnsJwh+7+V2NDfXqVC4GYmr0OdHVfeREovPU+NjcqeVv7F1bWzZUOnV2dP7Wq1caKaupOWMkw0LA2ttG3M+yIqwEYGC2a7R4KkRmcbcanvKgbYgvj3VeN+D+zXhSGr98iTql/cLasFWMGseoGAZIILYE6hbOpswb4o8vv/7J0r+Ws3kw1EtZzDhEZrqDzafJgMrGrf37U1Sa3aAiRVJGkUBUBGLlTxFKP2AaCroHabrQeKhbXnouOJ6YDo0poc54aErpfGi80H228zKlQ7O0c+wtT47lDYrYGX2Onpl58Kv3P9+6/9zA2anJhZLlOur+oemF6nVvTq2/pHzrjqm9iME7at7UQSYKkrJZR2lWyESh8kAmzDpqw3+xysGCgJEcihaZxQe6jM8YoZofbWPrWy9/6DFzMwno5kMrhhmo4zG+Q4HOB41ZDIum5i2nHAXwJAlEQQCruq7Y/uc7t/13SqNDy44739Lb99Tj//NmcVMUuSlgHZnuYDM0GRBxjUnPiX5VpmdwiMlqOPis3XFHxDmJobq2I8faDh9rf/0YAsgepnlarrgcAan6GGa4QLJkaq4otXpxi3K4K7Tzox/IRMvRrUWFtMjL6uYjVP/h07s0bZd1Rry+5X2N1esaG9YafYQzUREZkomhDiSjisd7ehGOl9HnsYNjvz4yuvotxypXVs3OJ9fUN1RU1SG7U5MTxUU6kJ8/1fpf3ac/uKXqnz/7Nv14sSRShepdWuIL/C+6VACRkQFQSFcbfT9b4LVgLL6YeKytFBYfVS/S3VjTGOWEEpa2Ifv5y2u55CHXu36M9kzzOUHcfISGWDHUtw8wyM4PVqE0JCVE3pzlhUS1ZzmrDiUN/aQUNAayRUBWdU0mZrVtV9p5T6zSzl4798zxksuPl1yfrXzmt97IOthMTAZEWTXGnlN1p5IBdSiDvUJb5wUrz0N79oqtR9WIbgNatP4ghnYfhSXKgBruqvYp2o2HKk1kGfPdD2BtlNrm31NuYdE2XijuNhgCeRISbmK6/IC/FYKdjw/gl1Wvw99L51pbZl5cpTVrWi4t78KzA8MY5L/zUf0vti+MkdHnwUf2wuKDbM0ni7WSZbWr1iIsv/IVFQhML2hFyXIEkOyyR/ayN1+ic/F/xp5U9bAqYHw3u/g6HmWQAAZkbqSLA44Mhd2k95rGWPtoEv3agyJBmofxrFfJ8UmPbsG4wusrX/ycv7wZaYDPeEOb1I6RFe0Xiq1M1zv7i0maTE/sqywxQALOBNYkh1UCuBgfPTtzfGC2o3+q8jcPvXNH3yUl/YPHx959zVmtRKViIDQCUXaw4U4GhIbAoyA3PafVh9ejklxKjleGpWd9Ucn8QnIhWYRXBBSgWEsWFyVLihZwFv8wD8SXhSjr1eVwV7KUueGutci++4H6HX7MNOji5H7ExCEyg5LK2kwlzfiyZs1thmKs9g5YimVYmyGNcRNrN82jmiIGAx0DU0MT88OTC8j8prmX1q5ZVfz6QdP2MnErV8r8vFm8yhQfo0+2S/ddWrNxDkYfTWtpabnvvvueWvwhcOed+l2XXFaBBAggsbLlm4pUyIdpe1vrDV/IuAqt7M61r97bcx0LBnlSBBXwUSI3NNyMwn2o5iUkQAKRETj0euLrTw/e/+w5TCbB4iN6Mbr4RWsbYp48OBRZTgpKUcQdrOm13/dkQEHVUZwLqyw+mCSeni/CW4NYfJBnBHA4vbBMnz9efFlA4jiXhXmLjEB8+oG0L2sZYmL1MzL6ImVIaazEwsJlhSA5xHP/a3sOYzDQdW5WLD6I7xs41370GAYDWIoUq4K4ycybxZuxNeHppo9J4vamz8fF00c6ZRh0Sms3I3Ow8mzbtk0VCWE53L17tyQ4d/Klb3zxk/e8X1/8xZ+VgJiQVTzWDakwA1kkYKoX5MRufWnmMmnSCEvQ0vjbsJlc5rRHIFmcfTCrY3rA+1ANOEZLGeZtrDXoQ2y+XmLChWJaY/K17CxXzhHA7Xzvp96HwRxyXlJWXVKOfzUl5bU4nJgYmp/TvQaePTwyeuQn5SXTn7mbm6eEX8Om/iGjHaxa+RtkMiB8BK4lWuFYY1wLy/mEMkkMs46aJL7rrrvkNeHAgQOvvfYaXhbklLj8YGkPhgQ5X+ycKoB1sGSNib5AEfcD1ps0u69j8DPCP5icdL9sw+YS0VdEFjUKBLhiIQ8IS7P8j3/5nBoMrKqvqlhZI9vLTIwOTowNazP6GqOX//7f7/zoHcHfLLJY9lgYfZTNXgw6cOqRvtvE5e67777mmmu+8IUvINn81EhH/wi8sK5cX4pkicHZc60XfdWgaeMG0+UOh5s2NTicdTh16lSvw1l1yrd8JSFgAP1OQAm8PI8J5F/zwHMdg7w8rjIWzURAnt+mSB7mHIEovedkD0EgUrNNChdMP/iHkcb0UM/oyPze3zy3urY6p4d6qmgFGwhxMqBgGcak4DJJrCw+DpPEF+w+e/Zu3eJzrXdMSs1shEIg6/1AHMbb8HYpqCVdKVsOzD0q3jQYWKFOaBpMP4vWn6aZoS5Ei7k5dwcDsTD6CF5xxYTFB8YdA/CLgjAGYdlXe3t7xZrLlhVNDTft7Kgqe+LhHyBR44qLjD7PaRcdXiQl1cF7dm6/Yef2VGdSx8Hc8+y+/V2JntSn3cVCKRKGqHd65Gxf+yBkYr9xyUJf+2+thx9p7vpAw9JO2JLMzV8pspuUKdM0NeqWNU+FFTnQ29kdiLMPpUp1yrK4jLQa+9THCyBBPG7gZwhzuwiU3YIRFmOi9XKXep2TKY3GjZxxidLufHlOnA2rRzaxUl9LySdWIVaowqWakzUmRHVKFEZRcRhIqfwwkBMEfttZVLdxy8xscdGidw+GFlZngbLaDTVF+tY/GOrRWSD0alX9g/Some5gc3oyQMFBLWCWHk5SxhhEmnx4Q6+smAhUk8Ri0Ek7SYxkJcVFWLiBf3T2iawSjY1TmitUWwfAkeXHqCjKfkBxMEFQh8aMMZwtAvDiwWBgLlmOPWSQh5SDAUwCzc1NwM0kpwcDsTD64FOLoIxt2PAXvjzOtY5hGZx9ipatKC4uPdk33TOk77QU/Pdc635PpoEfPWz5NLT3TEApLvKk16WlSfYbVzlShwjAMPR86/4zw/N33X6LSpA2gEskt2lT2iUQA1lnojdivcgPcu7VqIfyIqsBjXpQbdJrNa4bHSyxszJ81lp/2YrascPoJt7OmIjHD96NlUbTRs6Pn/zhG22jI8eer31Btxtaf5sb03jPwa7nqTGLCh/GRDEgqhzCrc+fgczBnth5sGtmZLKurGvtfDMU9Q9UDZ6YrJyZ3LBO3/VjaKa578TLN6bhoTJoDohRzxzr+thfYV2LD5RQtXBT64JQFRNIAS8uAALSU2W0oIvr84uSy2qLSvSNPxycBaprahbmZpAG3wmis0DolSI9hmmnfG2HNv5o+O7JYU0GhA4hrUAMDGrX1RXPrZaUwwuregZnV1bMqpi0EhwSpHweuZ9p8/HQR2ZMD18MtxxyaDz18oGD3b1nampXlZYvczlJjG2eS4o0fNYdRh/oxSjaKDBtOILxRvo8+B3kQHLK+k2rURIEGWyowQBEyR7GxhiXGchEsmj6AYy0TaVOeZiJAlKmJwKyWQ8GA8nFXcAcBgMwCc0nF/QVozkyGFi10LV99hFNd1HSf+u7/jMWRh8Y4JEb2YYt5cKuxdwu/ZEEkvjlVw9tf6vfFy+j0MUwekaXHRwsApar/Ud40utshoBNp2rj1hU1tp+UK61eW9PYgmSQ414vyhbQ4qPoZEsv8u/JNBBWeSHH/ZAIFplHXxurb+lVRjrFzVNAMm/Viw3b1BfHTQJ//NDPuxaaR6omaxttXcCc2x4EIkE0Rj1TTuDWZzKumUpnPUxvxFy5c2jwUO1wtbZ4sw8luka7p8oGT9UvLN37Q/PNnX9Y9oF1HuoX2cBN59Jua82zioH1zat97URX7x9eOGHipgS6DHiFLGKlyAh37+uYHRmt7Bupn/m5S41IJgNua2NOKwGvSS+dXNqXVxJvqPX2vLvuUqOTb1qFFxJAdffg3IVjm9DGutT5aaxbbnNFmmjoTZPC5rRvjTbygkZn2m/rmddOv3pktHL1BpfOAkXLSvHp0Nx1FvD0rLdWHi63RjrHGE0GKW9efNEGSzKNDvZGgXg5HF13w8L6t7kca1lNBr77DdVfGfNjDTv0pT76SVFqJ3PRg3us7MTv67v0WWj8zsecqH9zafYRMcu7R9HFtUgKd39DmdzCeMNrkdM/f+3zf/j1jsmpqaqknsLlJDFmlGH0weyyP72mesnIeMO+vHJG1i545ezcrtLpXDoPpQilvIvtJOgP31dbizu+LQkWm6s+ldg4tRSDcGKfxLygafiX4ue1sCLC5f2bQt9iVJB+w9jpifzu6ctWzjSfWhpDtvWdmES82opEP7vxKnXoibAx/yiy8dBr2OVrr1exuZIenoOylY/LwUBueQ6uWnhzPjmi6gJfpk896FQpYh6oWFGe1szhvgi4Y122fpgPvC4fc8hGuHrVS7ss7BK9CMPcA2OQOot493oD9immsheaXtDbtEnfLl4t4zIBUYdHy3bWt0wGtPgoaYt6L9qsSo2wMdrG3hnyZgUv8Tfa//BG5wroNTYPJcdTAMMjq14HCSEa10I36gmNocShmZF+KcLi2EW/lXBKziL/nvSG4iEIyPjnaYjw0K9ag7crFNbOqIdXOPXBS2N1P/Xiyx3J845jG28YSRwqrt5iGkMb01vDkthOL9LjzrJe9cIfu1oHurSqi86MePSfw2TEtk3lN15/7UVSHA90vW3nZ1UcU+LkkQGbFAOe9Z441fPioa7Tw+ktTalVLuYEhcVZT+UNqncxNykhK4fE1Bk+bz+1O+sQ//Irr3R3Lx+eKi9eqMI7tFdngerKSq+eAqbMeLXY4nJ0qsGNxT5e3kLRa2cUkOeRPIwEER5J2OUUkxNH55ufg4Gjq0PT8M/PL22/kVKoP6OASZRDP2lKqQ6dnwtuRrlIM1R15exK2wk/pcsYQFaNh77DkOPpORhELz6mg3yWr9DtX54miWG0LS31aU83kYmyvEbV0Ovpue/croySHcJSWe71wmL7m4GmFRvryxyEaprz/DQuhV6H535K2cHv37D7jcu1xOR0+xPDiXZkeHpEn4U6+L37ZAypafpZLbF0D6K8Xu1cKC8QeRpQWbn5mEQM5bngtbCSc1FtLYXLmJRGvamimvKaSyDB62Ag/stF8ZDd9+orKNp173gn/iIcC6MPwKE7LtaS8N/BxvvO/TgSIOsLM2PnTh+85pq3o90814qIoD9P7Q+2IdwnAe80lWP3nal7vXg7xT+lQg5X1Cxt9CPxmdCrNDoEPOl1kOP1lHu9XiU7pxcjlzK4mLbux14GWPaCwS5WO2//4F2Hw1g2KPlxMK7B0GPM81jPocnhpuBGgbR6jUoRRvdtigly6FBek1hPemHxsd5K/qxjeEKbchLkEKVwaaTeh/mllUFUXbgWnZ6dXvHcVq9waNKY7nv2tVfKqhMAiBGespRdEOc65KBX3VlGYYdf+La/OjIKQbgjqV1/yXtcckb6EPX+hWGXQVOurIffeeHbWvWW2mrrGQ8xKCx+WdE711kR2bLfwcHB/oGBienlq0t0I5cnZ4FfPf38sZOdOqYAPzRmry8zWXl5QxFD0Qs5eJ+xMwqo6Qchin4D/56b+rMAgC9c6tBvXEhkCMn7rSHCZ9CTXjfPBenN0JHK26NkC4eYzzP1rnb9s7Uknp6D1st9x2RL78TkRY6fvvMvF2ZovJE2V+7r1027SqtOJfCkVz18jXPPECWH1hlopcUU8HQf4dqs3L9p9U4O9+EmVUVDGP8UIhUvcuz6SWMyFQ6lvICMf57ej0J5LiDzXp+D+oqEYBvpyuVGvXAAnNSqq8r1IbKnwYDsS6PqIraB4yXXI2+37NiV6O07frA8FkaflisWjT5FSThh/vjHP3Y2+uBbjCjA3IRu7F83fXzT2cc+cZn2/EHz5Gr3kIc5zx1vKd90tqdzj4dtem4o1Z4f63KpxW4Cdvvm8g11yzr39LhvLqJ3f5efp9ficEG3N19SswxF9qRXO9JVMjRnVxD3+UeRPendPNblr7CmLGVLL7Kx6bKLmhZGtMa8qUPswoidLEq6O4JDFvkmvUalpi0zsLhj9bnB04t7fhuT+Qs76LUK7Gt/3RrpLyZKvcahzKmnOhfcrccpHpztaz/hr3TWq579QesNV2+2xpti0MCwjOjgCdz4+r0f/OesV7VnpUiGO6PdbcphSp3yFLDTa7KiQmZ3NjiHrvfFH3RudNeu9p2c7Gs/5QmmQ+Ks6O1r1y4d/53L8iLzP3vcf7+xPjlyfGKwVNMqKyshynm8oRJgRmrkzJHDbaPVk5sc6Lk85am8eVC/wOK+n4SxuO+E/gGKUH52/YZVeLb6DU/PBePbI4pg7V2zVd6FAz2d+oSsq1+Q5/7KouHB8emJsbX4prL7SeKRoZPNl1QbH9yuMmqfKMrxhjEX7u8jT+3KqCJl2H27MupN2VwROTOyzuWAxL3ebN2//vTaNUX39ZsHzwVPz0Fw3v9COONno97WZ35flZwtK9Mf654GA61njnRu6Ut5s8Qqcvusbh7p3KP7+yAcC6MPPorx0GMaNtifm9fwZS6Hfvz73//+7t26k8LMcLdglXeMbWvk6MJfa8yFcylCE+M9b6aIdoyCCo9arOL07SG9qnatt86iT1e3+EPAW5FFqe89I0Tr4s4RM9bXwqVMpfpP9OquCgF+eOltrPOst75E35ijx4v10JRHWNZQZPflRcpbmjUUVpT2+F2ssWHRqOdeL7L9jtXD3cVzL/syJqpS+9B7dd1kQKWi/drN5Z7KG1CvGspAb93E0fEJxcApgBtyTdGo72o1id62ps5lkdEI1xSdy4peNAmlV0EzFcTloV15rRDAeXrk/Joyl9Ltk9nptV4Rrt6xnvHxCVeLEerGZ6dHxqz58RdztG24zt1mRtnSi8dQkPLCvadY87P50djo0PzsfMBmrCol/pzDrd+6iRmX/ST6q7Agg7an+zcr/XMozwVFzFN5Az4HVWOO8vlbWTI1MDs7MToIo4/7SeLZyZFNZcl1VSW5ON4wco7/eMNNe1bNVRXNLuCpPefQc9+OgPt+Mtz+Of7Po7Fgz31TA1PlRc/gww6CqyDQOvg0aYnDoWz+L1lF2Edhwy8FlnfJCq+ZoR58FA0f50q5sg7GILH4FM1N4ONqt9y48/ab3hV+bijRnkCT/amMnsmK3qwoBcas6BWlKTZHQYbO/3rS7U0Lt7Xzad3+34RltJqWVrJJXKfBw7OpcYNvvb/7o9lD0KTI+dCH6ntu00RpECfV9+y81muRRW9Af+/NjQ1eVV/XrBOOXu9HmrsCKpWqh89z01W27lSJnt59Bw43blx73TuulvQh6n2XvV5Ts2zCppi/bO1y/fkb0+Wmwzv/5iOmmH2vHkx091+37a2NGy7aIyzTek3ZUIcB9WKKtWZF8XTJ6smJ8RUVlQ6TTKIRCfTAwuz6ppaK0fH6lq0SH/CvlbOdwKYM128Eep3vI2sGQryPHO5fq95s9Vdp+2f0vdbcmmK8ds64vAmeyIsPQevzKO3HOpV2H89B6MVz3/j8hRAl0DnwxonEt374s2QJfPXcThJXVlVVVm25ZIf+yuB1vGEcbECjj8LqV1nKi0hPP1SQj/ottPEG+g2ACv4ozIn+qimk58Kpnr6hkbHr7/y46flu1z7D0ivyo3kODo2Mn+o5W1u9ctOGpV3PlN4/6X3w9ROJ2YVZrXi5+8EATBBXXNrYdNsddpQQ//DjT61Kdt94y185pJFT44k2LHPGZ3bSpsSY8/VX/q+y8e1qzJn2ElOCoukzFy02MZ0OeIj9HbB7CDbaTLntglE49vT50lfvP3fypdKajbD74BTsPlhfJ95WqAlY9OEEhPhlRfr30hDY85MHjBIYJgESIAESiCeBIPs4uN9Sx1R2k1LswmBK4HDoZmk91kg//MTvGhvWfuxmfdW0+rm0N2FhubrEGHjvddt9FFmU2sk0yreGMVCW3RxTlvrhJ15M9PZ/7OZ3NTak2CYWegPuLADVXosshfWnN7Fvd8fA1Nm5dWvWrquorGppabn//vutTFSM+BfLwOOqliuWLStRp/wFfJQXioJwlhd4HxtIi1789dquZL9M4ZOyUckp579Sy85plAprMh83kQgx9RtWyYjxLTylNEZ6IoCXBbwyzCeL1Qd37r77bpMEvDVg/hiRcufefutN0Xyo25QNHkZPwM3965Ar37e2+/4qpXZ//aQo9do/GzOwbHnl6YHR67Zt2bntSmO8c9jN80i8may7hSIekXgqvX1T+aWbG2Q7SKUOnwRB2BQpZ6WwPp77I6MTBw+fqK1Z+bYrm0zPX3y966HH9kpn4mkwkLZLef5bH8fXsrCZBr5zokqXMiCmEuzrmrLUxkvaH/gQDic3Xv/OWz9vjHcf9jwz7160p5Tw9AHBb3/zJazbqqhrRFcOpx7x6zHKURYfJDbGM0wCJEACJBBbAr4HUkFKZFJqOgwi2flal3si3uAsxeNZURquTDdZgF6X5XUjzWUa0YhRssv0xmSHJ3/RMVD2eM/6iorKadcrymWqacvll+HVMSsvFVnhDG6COvp2pVQb6y6acGQdRTTFyT8tt++6qe3I/XJLyssCyug8SUyLT/41A7sSZev+jf45CALB++fWA0dPDxyxg2kXn/Z5BNsNNirF5SZbxqKB40mYQuDiP37gEDYCMyWA2wucRZAAni8mI8hSYXdu9/oI7uztK11xAPNzN733nabm4WN7Gel57MioeFh8VNg5ADcfJEDBTeW1u2pNctjuVNr4uHj6SEbv/dT7fn1kVMJw+Skprykpr8Xh/NTQ/NTw/NQI1tPj8INbqm69Wt9qmz8SIAESIAESIAES8ETg608PdvRPGT2LHZwFZoa6MB3FgYcnwkxMApkj8NjBMXlZULewVZfctojnnWuFwxgSIAEhUFCDgZIv3fO3mav48R59oRosdpUbYdVL88NHWC6rGLp5a9XcfFHHwAzsO3Pj/TPDCfxDAIfJ+enL1pbfdW3N9c0r0sjiaRIgARIgARIgARJIRWBVRclLnZOL00hJzC21tbXNzs4mk8mGBn3zFKwNue+++376058irF4d77kR2yDyRwIkkH0CV64vVW8KeEfQtCTyVLwMu7Trk8RzY2dnhvQXBxzS4pP92mIOSCDGBApqMBAXTx9YfLC5tFr8hlV2aCHtrx/Dwl0EsPgLn3WHFxYCMW45zBoJkAAJkAAJkEAOEJDF/Mio2hzEmmnjinKuELHyYQwJZJeAuout2dB3jdh1E98arGQYQwIREMBKLtmf2LRqCe/7FQ1bsdWvJDBteYN1Yf0vPSgJIsikqFDdSIiDAdl/R5k17MoiG/rI2ZbPPm6XTOJdynQQEos9fUwWH2SXoyuHOuMpEiABEiABEiCBIARkmIFNHLFEH/8w2ltI4iMRRZBZrCWLi5IlxUVaUv9qRNotG4Nkg9eSAAn4JqBeFjhJ7JshLySBTBCw+4KTsvKkTAALUeWu9GuDws1wTAYDMHiZDGThFhPSsm/0sVp8Qi8kBZIACZAACZAACZCAkQCGevgns3yLph/jSX3JCJ0FLibCIxKIHQFl94ldzpghEiCBHCGQlcGA7ta0f7cihK2v0zr7qMT+Alk2+tDi46/aeBUJkAAJkAAJkEBwAuqlkc4CwWFSAgmQAAmQAAnkIoGIBwNYyGaihNVeKR2gTMl8H2bT6EOLj+9q44UkQAIkQAIkQAKhEFBDvVCkUQgJkAAJkAAJkEDOEYhsMAD7juxlDEQIrN1+J7x+9M/VN27N3CKv4mzVBy0+2SJPvSRAAiRAAiRAAiRAAiRAAiRAAiRAAlESUPs3r91xh+iFrQd2H4St7j8hZiw7Rh9afEKsQooiARIgARIgARIgARIgARIgARIgARKILQG1lQ+sPEanHlnYBa8ffKULVqFM5D8Ly7to8clERVImCZAACZAACZAACZAACZAACZAACZBArAjIB+lh1kGu8DV36/Y92MhZnIBkg2drgoDFidroQ4tPwArj5SRAAiRAAiRAAiRAAiRAAiRAAiRAAvEnoJZ0IatNt91r9PExZl4MPbK/z0RvW0XD1hBNP5EafWjxMdYrwyRAAiRAAiRAAiRAAiRAAiRAAiRAAnlGAKYPlEi8exCAg0/TrnudywgrD7b4wRfccRX+ideP7PjjfGHas9EZfWjxSVsZTEACJEACJEACJEACJEACJEACJEACJJC7BJStB0WAuQfbNts5+JjKiGSy1AvxYvSRvziE748psfvDiIw+tPi4rxKmJAESIAESIAESIAESIAESIAESIAESyC0CcMzB4izkWb7P5dLWYyqjLOySv7K1M2TCCciUzP1hFEYfsU658Whyn2+mJAESIAESIAESIAESIAESIAESIAESIIGYEAhxIx4pUSgCozD6SHbhj+TyC2ShFCwmtc5skAAJkAAJkAAJkAAJkAAJkAAJkAAJkEBWCGTW6AMfpP79S+VSq9GcywmHIOcEPEsCJEACJEACJEACJEACJEACJEACJEACJJCWQNH0Gf1z8Zn7ufTuURmgm49CwQAJkAAJkAAJkAAJkAAJkAAJkAAJkED+ERjvPeRv0x+vKDJu9PGaIaYnARIgARIgARIgARIgARIgARIgARIgARIITqA4uAhKIAESIAESIAESIAESIAESIAESIAESIAESiBsBGn3iViPMDwmQAAmQAAmQAAmQAAmQAAmQAAmQAAmEQIBGnxAgUgQJkAAJkAAJkAAJkAAJkAAJkAAJkAAJxI0AjT5xqxHmhwRIgARIgARIgARIgARIgARIgARIgARCIECjTwgQKYIESIAESIAESIAESIAESIAESIAESIAE4kaARp+41QjzQwIkQAIkQAIkQAIkQAIkQAIkQAIkQAIhEKDRJwSIFEECJEACJEACJEACJEACJEACJEACJEACcSNAo0/caoT5IQESIAESIAESIAESIAESIAESIAESIIEQCNDoEwJEiiABEiABEiABEiABEiABEiABEiABEiCBuBGg0SduNcL8kAAJkAAJkAAJkAAJkAAJkAAJkAAJkEAIBGj0CQEiRZAACZAACZAACZAACZAACZAACZAACZBA3AjQ6BO3GmF+SIAESIAESIAESIAESIAESIAESIAESCAEAjT6hACRIkiABEiABEiABEiABEiABEiABEiABEggbgRo9IlbjTA/JEACJEACJEACJEACJEACJEACJEACJBACARp9QoBIESRAAiRAAiRAAiRAAiRAAiRAAiRAAiQQNwL/D28MVcuCQ6nNAAAAAElFTkSuQmCC;" vertex="1" parent="1">
          <mxGeometry x="740" y="810" width="1532" height="958" as="geometry" />
        </mxCell>
        <mxCell id="XQ58RHuz3fzO0AU-IGTR-14" value="" style="group" vertex="1" connectable="0" parent="1">
          <mxGeometry x="870" y="840" width="200" height="145" as="geometry" />
        </mxCell>
        <mxCell id="XQ58RHuz3fzO0AU-IGTR-15" value="" style="group;fillColor=#eeeeee;strokeColor=#36393d;container=0;" vertex="1" connectable="0" parent="XQ58RHuz3fzO0AU-IGTR-14">
          <mxGeometry width="200" height="145" as="geometry" />
        </mxCell>
        <mxCell id="XQ58RHuz3fzO0AU-IGTR-16" value="摄像头拍摄方向指示线" style="text;html=1;align=center;verticalAlign=middle;whiteSpace=wrap;rounded=0;container=0;" vertex="1" parent="XQ58RHuz3fzO0AU-IGTR-14">
          <mxGeometry x="10" y="115" width="170" height="30" as="geometry" />
        </mxCell>
        <mxCell id="XQ58RHuz3fzO0AU-IGTR-17" value="" style="endArrow=classic;html=1;rounded=0;startArrow=none;startFill=0;endFill=1;startFillColor=#FF3333;snapToPoint=1;flowAnimation=0;jumpStyle=none;strokeColor=default;perimeterSpacing=0;linecap=square;fillColor=#3333FF;strokeWidth=3;" edge="1" parent="XQ58RHuz3fzO0AU-IGTR-14">
          <mxGeometry width="50" height="50" relative="1" as="geometry">
            <mxPoint x="10" y="130" as="sourcePoint" />
            <mxPoint x="30" y="130" as="targetPoint" />
          </mxGeometry>
        </mxCell>
        <mxCell id="XQ58RHuz3fzO0AU-IGTR-18" value="&lt;font style=&quot;font-size: 14px;&quot;&gt;&lt;b&gt;图示&lt;/b&gt;&lt;/font&gt;" style="text;html=1;align=center;verticalAlign=middle;whiteSpace=wrap;rounded=0;container=0;" vertex="1" parent="XQ58RHuz3fzO0AU-IGTR-14">
          <mxGeometry width="60" height="30" as="geometry" />
        </mxCell>
        <mxCell id="XQ58RHuz3fzO0AU-IGTR-19" value="" style="fontColor=#0066CC;verticalAlign=top;verticalLabelPosition=bottom;labelPosition=center;align=center;html=1;outlineConnect=0;fillColor=#3333FF;strokeColor=#3333FF;gradientColor=none;gradientDirection=north;strokeWidth=2;shape=mxgraph.networks.security_camera;container=0;" vertex="1" parent="XQ58RHuz3fzO0AU-IGTR-14">
          <mxGeometry x="10" y="35" width="20" height="20" as="geometry" />
        </mxCell>
        <mxCell id="XQ58RHuz3fzO0AU-IGTR-20" value="" style="fontColor=#0066CC;verticalAlign=top;verticalLabelPosition=bottom;labelPosition=center;align=center;html=1;outlineConnect=0;fillColor=#FF3333;strokeColor=#FF3333;gradientColor=none;gradientDirection=north;strokeWidth=2;shape=mxgraph.networks.security_camera;container=0;" vertex="1" parent="XQ58RHuz3fzO0AU-IGTR-14">
          <mxGeometry x="10" y="75" width="20" height="20" as="geometry" />
        </mxCell>
        <mxCell id="XQ58RHuz3fzO0AU-IGTR-21" value="巷道摄像头" style="text;html=1;align=center;verticalAlign=middle;whiteSpace=wrap;rounded=0;container=0;" vertex="1" parent="XQ58RHuz3fzO0AU-IGTR-14">
          <mxGeometry x="30" y="30" width="70" height="30" as="geometry" />
        </mxCell>
        <mxCell id="XQ58RHuz3fzO0AU-IGTR-22" value="主通道摄像头" style="text;html=1;align=center;verticalAlign=middle;whiteSpace=wrap;rounded=0;container=0;" vertex="1" parent="XQ58RHuz3fzO0AU-IGTR-14">
          <mxGeometry x="30" y="70" width="80" height="30" as="geometry" />
        </mxCell>
        <mxCell id="XQ58RHuz3fzO0AU-IGTR-42" value="" style="edgeStyle=orthogonalEdgeStyle;rounded=0;orthogonalLoop=1;jettySize=auto;html=1;strokeWidth=6;" edge="1" parent="1" source="XQ58RHuz3fzO0AU-IGTR-24">
          <mxGeometry relative="1" as="geometry">
            <mxPoint x="887" y="1700" as="targetPoint" />
          </mxGeometry>
        </mxCell>
        <mxCell id="XQ58RHuz3fzO0AU-IGTR-24" value="" style="fontColor=#0066CC;verticalAlign=top;verticalLabelPosition=bottom;labelPosition=center;align=center;html=1;outlineConnect=0;fillColor=#3333FF;strokeColor=#3333FF;gradientColor=none;gradientDirection=north;strokeWidth=2;shape=mxgraph.networks.security_camera;container=0;" vertex="1" parent="1">
          <mxGeometry x="787" y="1680" width="40" height="40" as="geometry" />
        </mxCell>
        <mxCell id="XQ58RHuz3fzO0AU-IGTR-44" value="" style="edgeStyle=orthogonalEdgeStyle;rounded=0;orthogonalLoop=1;jettySize=auto;html=1;strokeWidth=6;" edge="1" parent="1" source="XQ58RHuz3fzO0AU-IGTR-25">
          <mxGeometry relative="1" as="geometry">
            <mxPoint x="887" y="1590" as="targetPoint" />
          </mxGeometry>
        </mxCell>
        <mxCell id="XQ58RHuz3fzO0AU-IGTR-25" value="" style="fontColor=#0066CC;verticalAlign=top;verticalLabelPosition=bottom;labelPosition=center;align=center;html=1;outlineConnect=0;fillColor=#3333FF;strokeColor=#3333FF;gradientColor=none;gradientDirection=north;strokeWidth=2;shape=mxgraph.networks.security_camera;container=0;" vertex="1" parent="1">
          <mxGeometry x="787" y="1570" width="40" height="40" as="geometry" />
        </mxCell>
        <mxCell id="XQ58RHuz3fzO0AU-IGTR-46" value="" style="edgeStyle=orthogonalEdgeStyle;rounded=0;orthogonalLoop=1;jettySize=auto;html=1;strokeWidth=6;" edge="1" parent="1" source="XQ58RHuz3fzO0AU-IGTR-26">
          <mxGeometry relative="1" as="geometry">
            <mxPoint x="887" y="1490" as="targetPoint" />
          </mxGeometry>
        </mxCell>
        <mxCell id="XQ58RHuz3fzO0AU-IGTR-26" value="" style="fontColor=#0066CC;verticalAlign=top;verticalLabelPosition=bottom;labelPosition=center;align=center;html=1;outlineConnect=0;fillColor=#3333FF;strokeColor=#3333FF;gradientColor=none;gradientDirection=north;strokeWidth=2;shape=mxgraph.networks.security_camera;container=0;" vertex="1" parent="1">
          <mxGeometry x="787" y="1470" width="40" height="40" as="geometry" />
        </mxCell>
        <mxCell id="XQ58RHuz3fzO0AU-IGTR-48" value="" style="edgeStyle=orthogonalEdgeStyle;rounded=0;orthogonalLoop=1;jettySize=auto;html=1;strokeWidth=6;" edge="1" parent="1" source="XQ58RHuz3fzO0AU-IGTR-27">
          <mxGeometry relative="1" as="geometry">
            <mxPoint x="887" y="1390" as="targetPoint" />
          </mxGeometry>
        </mxCell>
        <mxCell id="XQ58RHuz3fzO0AU-IGTR-27" value="" style="fontColor=#0066CC;verticalAlign=top;verticalLabelPosition=bottom;labelPosition=center;align=center;html=1;outlineConnect=0;fillColor=#3333FF;strokeColor=#3333FF;gradientColor=none;gradientDirection=north;strokeWidth=2;shape=mxgraph.networks.security_camera;container=0;" vertex="1" parent="1">
          <mxGeometry x="787" y="1370" width="40" height="40" as="geometry" />
        </mxCell>
        <mxCell id="XQ58RHuz3fzO0AU-IGTR-50" value="" style="edgeStyle=orthogonalEdgeStyle;rounded=0;orthogonalLoop=1;jettySize=auto;html=1;strokeWidth=6;" edge="1" parent="1" source="XQ58RHuz3fzO0AU-IGTR-28">
          <mxGeometry relative="1" as="geometry">
            <mxPoint x="887" y="1280" as="targetPoint" />
          </mxGeometry>
        </mxCell>
        <mxCell id="XQ58RHuz3fzO0AU-IGTR-28" value="" style="fontColor=#0066CC;verticalAlign=top;verticalLabelPosition=bottom;labelPosition=center;align=center;html=1;outlineConnect=0;fillColor=#3333FF;strokeColor=#3333FF;gradientColor=none;gradientDirection=north;strokeWidth=2;shape=mxgraph.networks.security_camera;container=0;" vertex="1" parent="1">
          <mxGeometry x="787" y="1260" width="40" height="40" as="geometry" />
        </mxCell>
        <mxCell id="XQ58RHuz3fzO0AU-IGTR-52" value="" style="edgeStyle=orthogonalEdgeStyle;rounded=0;orthogonalLoop=1;jettySize=auto;html=1;strokeWidth=6;" edge="1" parent="1" source="XQ58RHuz3fzO0AU-IGTR-29">
          <mxGeometry relative="1" as="geometry">
            <mxPoint x="890" y="1170" as="targetPoint" />
          </mxGeometry>
        </mxCell>
        <mxCell id="XQ58RHuz3fzO0AU-IGTR-29" value="" style="fontColor=#0066CC;verticalAlign=top;verticalLabelPosition=bottom;labelPosition=center;align=center;html=1;outlineConnect=0;fillColor=#3333FF;strokeColor=#3333FF;gradientColor=none;gradientDirection=north;strokeWidth=2;shape=mxgraph.networks.security_camera;container=0;" vertex="1" parent="1">
          <mxGeometry x="790" y="1150" width="40" height="40" as="geometry" />
        </mxCell>
        <mxCell id="XQ58RHuz3fzO0AU-IGTR-40" value="" style="edgeStyle=orthogonalEdgeStyle;rounded=0;orthogonalLoop=1;jettySize=auto;html=1;strokeWidth=6;" edge="1" parent="1" source="XQ58RHuz3fzO0AU-IGTR-35">
          <mxGeometry relative="1" as="geometry">
            <mxPoint x="1130" y="1630" as="targetPoint" />
          </mxGeometry>
        </mxCell>
        <mxCell id="XQ58RHuz3fzO0AU-IGTR-35" value="" style="fontColor=#0066CC;verticalAlign=top;verticalLabelPosition=bottom;labelPosition=center;align=center;html=1;outlineConnect=0;fillColor=#FF3333;strokeColor=#FF3333;gradientColor=none;gradientDirection=north;strokeWidth=2;shape=mxgraph.networks.security_camera;container=0;direction=west;" vertex="1" parent="1">
          <mxGeometry x="1110" y="1690" width="40" height="40" as="geometry" />
        </mxCell>
        <mxCell id="XQ58RHuz3fzO0AU-IGTR-38" value="" style="edgeStyle=orthogonalEdgeStyle;rounded=0;orthogonalLoop=1;jettySize=auto;html=1;strokeWidth=6;" edge="1" parent="1" source="XQ58RHuz3fzO0AU-IGTR-36">
          <mxGeometry relative="1" as="geometry">
            <mxPoint x="1130" y="1350" as="targetPoint" />
          </mxGeometry>
        </mxCell>
        <mxCell id="XQ58RHuz3fzO0AU-IGTR-36" value="" style="fontColor=#0066CC;verticalAlign=top;verticalLabelPosition=bottom;labelPosition=center;align=center;html=1;outlineConnect=0;fillColor=#FF3333;strokeColor=#FF3333;gradientColor=none;gradientDirection=north;strokeWidth=2;shape=mxgraph.networks.security_camera;container=0;direction=west;" vertex="1" parent="1">
          <mxGeometry x="1110" y="1410" width="40" height="40" as="geometry" />
        </mxCell>
        <mxCell id="XQ58RHuz3fzO0AU-IGTR-83" value="" style="edgeStyle=orthogonalEdgeStyle;rounded=0;orthogonalLoop=1;jettySize=auto;html=1;strokeWidth=6;" edge="1" parent="1" source="XQ58RHuz3fzO0AU-IGTR-68">
          <mxGeometry relative="1" as="geometry">
            <mxPoint x="1614" y="1179.0000000000005" as="targetPoint" />
          </mxGeometry>
        </mxCell>
        <mxCell id="XQ58RHuz3fzO0AU-IGTR-68" value="" style="fontColor=#0066CC;verticalAlign=top;verticalLabelPosition=bottom;labelPosition=center;align=center;html=1;outlineConnect=0;fillColor=#3333FF;strokeColor=#3333FF;gradientColor=none;gradientDirection=north;strokeWidth=2;shape=mxgraph.networks.security_camera;container=0;direction=east;flipH=0;flipV=0;" vertex="1" parent="1">
          <mxGeometry x="1514" y="1159" width="40" height="40" as="geometry" />
        </mxCell>
        <mxCell id="XQ58RHuz3fzO0AU-IGTR-85" value="" style="edgeStyle=orthogonalEdgeStyle;rounded=0;orthogonalLoop=1;jettySize=auto;html=1;strokeWidth=6;" edge="1" parent="1" source="XQ58RHuz3fzO0AU-IGTR-69">
          <mxGeometry relative="1" as="geometry">
            <mxPoint x="1614" y="1279.0000000000005" as="targetPoint" />
          </mxGeometry>
        </mxCell>
        <mxCell id="XQ58RHuz3fzO0AU-IGTR-69" value="" style="fontColor=#0066CC;verticalAlign=top;verticalLabelPosition=bottom;labelPosition=center;align=center;html=1;outlineConnect=0;fillColor=#3333FF;strokeColor=#3333FF;gradientColor=none;gradientDirection=north;strokeWidth=2;shape=mxgraph.networks.security_camera;container=0;direction=east;flipH=0;flipV=0;" vertex="1" parent="1">
          <mxGeometry x="1514" y="1259" width="40" height="40" as="geometry" />
        </mxCell>
        <mxCell id="XQ58RHuz3fzO0AU-IGTR-87" value="" style="edgeStyle=orthogonalEdgeStyle;rounded=0;orthogonalLoop=1;jettySize=auto;html=1;strokeWidth=6;" edge="1" parent="1" source="XQ58RHuz3fzO0AU-IGTR-70">
          <mxGeometry relative="1" as="geometry">
            <mxPoint x="1614" y="1389.0000000000005" as="targetPoint" />
          </mxGeometry>
        </mxCell>
        <mxCell id="XQ58RHuz3fzO0AU-IGTR-70" value="" style="fontColor=#0066CC;verticalAlign=top;verticalLabelPosition=bottom;labelPosition=center;align=center;html=1;outlineConnect=0;fillColor=#3333FF;strokeColor=#3333FF;gradientColor=none;gradientDirection=north;strokeWidth=2;shape=mxgraph.networks.security_camera;container=0;direction=east;flipH=0;flipV=0;" vertex="1" parent="1">
          <mxGeometry x="1514" y="1369" width="40" height="40" as="geometry" />
        </mxCell>
        <mxCell id="XQ58RHuz3fzO0AU-IGTR-89" value="" style="edgeStyle=orthogonalEdgeStyle;rounded=0;orthogonalLoop=1;jettySize=auto;html=1;strokeWidth=6;" edge="1" parent="1" source="XQ58RHuz3fzO0AU-IGTR-71">
          <mxGeometry relative="1" as="geometry">
            <mxPoint x="1614" y="1489.0000000000005" as="targetPoint" />
          </mxGeometry>
        </mxCell>
        <mxCell id="XQ58RHuz3fzO0AU-IGTR-71" value="" style="fontColor=#0066CC;verticalAlign=top;verticalLabelPosition=bottom;labelPosition=center;align=center;html=1;outlineConnect=0;fillColor=#3333FF;strokeColor=#3333FF;gradientColor=none;gradientDirection=north;strokeWidth=2;shape=mxgraph.networks.security_camera;container=0;direction=east;flipH=0;flipV=0;" vertex="1" parent="1">
          <mxGeometry x="1514" y="1469" width="40" height="40" as="geometry" />
        </mxCell>
        <mxCell id="XQ58RHuz3fzO0AU-IGTR-91" value="" style="edgeStyle=orthogonalEdgeStyle;rounded=0;orthogonalLoop=1;jettySize=auto;html=1;strokeWidth=6;" edge="1" parent="1" source="XQ58RHuz3fzO0AU-IGTR-72">
          <mxGeometry relative="1" as="geometry">
            <mxPoint x="1614" y="1589.0000000000005" as="targetPoint" />
          </mxGeometry>
        </mxCell>
        <mxCell id="XQ58RHuz3fzO0AU-IGTR-72" value="" style="fontColor=#0066CC;verticalAlign=top;verticalLabelPosition=bottom;labelPosition=center;align=center;html=1;outlineConnect=0;fillColor=#3333FF;strokeColor=#3333FF;gradientColor=none;gradientDirection=north;strokeWidth=2;shape=mxgraph.networks.security_camera;container=0;direction=east;flipH=0;flipV=0;" vertex="1" parent="1">
          <mxGeometry x="1514" y="1569" width="40" height="40" as="geometry" />
        </mxCell>
        <mxCell id="XQ58RHuz3fzO0AU-IGTR-78" value="" style="edgeStyle=orthogonalEdgeStyle;rounded=0;orthogonalLoop=1;jettySize=auto;html=1;strokeWidth=6;" edge="1" parent="1" source="XQ58RHuz3fzO0AU-IGTR-79">
          <mxGeometry relative="1" as="geometry">
            <mxPoint x="1840" y="1630" as="targetPoint" />
          </mxGeometry>
        </mxCell>
        <mxCell id="XQ58RHuz3fzO0AU-IGTR-79" value="" style="fontColor=#0066CC;verticalAlign=top;verticalLabelPosition=bottom;labelPosition=center;align=center;html=1;outlineConnect=0;fillColor=#FF3333;strokeColor=#FF3333;gradientColor=none;gradientDirection=north;strokeWidth=2;shape=mxgraph.networks.security_camera;container=0;direction=west;" vertex="1" parent="1">
          <mxGeometry x="1820" y="1690" width="40" height="40" as="geometry" />
        </mxCell>
        <mxCell id="XQ58RHuz3fzO0AU-IGTR-80" value="" style="edgeStyle=orthogonalEdgeStyle;rounded=0;orthogonalLoop=1;jettySize=auto;html=1;strokeWidth=6;" edge="1" parent="1" source="XQ58RHuz3fzO0AU-IGTR-81">
          <mxGeometry relative="1" as="geometry">
            <mxPoint x="1840" y="1350" as="targetPoint" />
          </mxGeometry>
        </mxCell>
        <mxCell id="XQ58RHuz3fzO0AU-IGTR-81" value="" style="fontColor=#0066CC;verticalAlign=top;verticalLabelPosition=bottom;labelPosition=center;align=center;html=1;outlineConnect=0;fillColor=#FF3333;strokeColor=#FF3333;gradientColor=none;gradientDirection=north;strokeWidth=2;shape=mxgraph.networks.security_camera;container=0;direction=west;" vertex="1" parent="1">
          <mxGeometry x="1820" y="1410" width="40" height="40" as="geometry" />
        </mxCell>
      </root>
    </mxGraphModel>
  </diagram>
</mxfile>
